<?xml version="1.0" encoding="utf-8" standalone="no"?>
<!DOCTYPE svg PUBLIC "-//W3C//DTD SVG 1.1//EN"
  "http://www.w3.org/Graphics/SVG/1.1/DTD/svg11.dtd">
<svg xmlns:xlink="http://www.w3.org/1999/xlink" width="1170pt" height="280.8pt" viewBox="0 0 1170 280.8" xmlns="http://www.w3.org/2000/svg" version="1.1">
 <metadata>
  <rdf:RDF xmlns:dc="http://purl.org/dc/elements/1.1/" xmlns:cc="http://creativecommons.org/ns#" xmlns:rdf="http://www.w3.org/1999/02/22-rdf-syntax-ns#">
   <cc:Work>
    <dc:type rdf:resource="http://purl.org/dc/dcmitype/StillImage"/>
    <dc:date>2023-11-14T20:11:01.391973</dc:date>
    <dc:format>image/svg+xml</dc:format>
    <dc:creator>
     <cc:Agent>
      <dc:title>Matplotlib v3.7.2, https://matplotlib.org/</dc:title>
     </cc:Agent>
    </dc:creator>
   </cc:Work>
  </rdf:RDF>
 </metadata>
 <defs>
  <style type="text/css">*{stroke-linejoin: round; stroke-linecap: butt}</style>
 </defs>
 <g id="figure_1">
  <g id="patch_1">
   <path d="M 0 280.8 
L 1170 280.8 
L 1170 0 
L 0 0 
z
" style="fill: #ffffff"/>
  </g>
  <g id="axes_1">
   <g id="patch_2">
    <path d="M 212.168041 110.424946 
L 306.250515 110.424946 
L 306.250515 152.475783 
L 212.168041 152.475783 
z
" clip-path="url(#p5437599e9a)" style="fill: #ffffff"/>
   </g>
   <g id="patch_3">
    <path d="M 306.250515 110.424946 
L 368.972165 110.424946 
L 368.972165 152.475783 
L 306.250515 152.475783 
z
" clip-path="url(#p5437599e9a)" style="fill: #ffffff"/>
   </g>
   <g id="patch_4">
    <path d="M 368.972165 110.424946 
L 431.693814 110.424946 
L 431.693814 152.475783 
L 368.972165 152.475783 
z
" clip-path="url(#p5437599e9a)" style="fill: #ffffff"/>
   </g>
   <g id="patch_5">
    <path d="M 431.693814 110.424946 
L 494.415464 110.424946 
L 494.415464 152.475783 
L 431.693814 152.475783 
z
" clip-path="url(#p5437599e9a)" style="fill: #ffffff"/>
   </g>
   <g id="patch_6">
    <path d="M 494.415464 110.424946 
L 557.137113 110.424946 
L 557.137113 152.475783 
L 494.415464 152.475783 
z
" clip-path="url(#p5437599e9a)" style="fill: #ffffff"/>
   </g>
   <g id="patch_7">
    <path d="M 557.137113 110.424946 
L 619.858763 110.424946 
L 619.858763 152.475783 
L 557.137113 152.475783 
z
" clip-path="url(#p5437599e9a)" style="fill: #ffffff"/>
   </g>
   <g id="patch_8">
    <path d="M 619.858763 110.424946 
L 682.580412 110.424946 
L 682.580412 152.475783 
L 619.858763 152.475783 
z
" clip-path="url(#p5437599e9a)" style="fill: #ffffff"/>
   </g>
   <g id="patch_9">
    <path d="M 682.580412 110.424946 
L 745.302062 110.424946 
L 745.302062 152.475783 
L 682.580412 152.475783 
z
" clip-path="url(#p5437599e9a)" style="fill: #ffffff"/>
   </g>
   <g id="patch_10">
    <path d="M 745.302062 110.424946 
L 808.023711 110.424946 
L 808.023711 152.475783 
L 745.302062 152.475783 
z
" clip-path="url(#p5437599e9a)" style="fill: #ffffff"/>
   </g>
   <g id="patch_11">
    <path d="M 808.023711 110.424946 
L 870.745361 110.424946 
L 870.745361 152.475783 
L 808.023711 152.475783 
z
" clip-path="url(#p5437599e9a)" style="fill: #ffffff"/>
   </g>
   <g id="patch_12">
    <path d="M 870.745361 110.424946 
L 933.46701 110.424946 
L 933.46701 152.475783 
L 870.745361 152.475783 
z
" clip-path="url(#p5437599e9a)" style="fill: #ffffff"/>
   </g>
   <g id="patch_13">
    <path d="M 933.46701 110.424946 
L 996.18866 110.424946 
L 996.18866 152.475783 
L 933.46701 152.475783 
z
" clip-path="url(#p5437599e9a)" style="fill: #ffffff"/>
   </g>
   <g id="patch_14">
    <path d="M 933.46701 110.424946 
L 996.18866 110.424946 
L 996.18866 152.475783 
L 933.46701 152.475783 
z
" clip-path="url(#p5437599e9a)" style="fill: #ffffff"/>
   </g>
   <g id="patch_15">
    <path d="M 996.18866 110.424946 
L 1058.910309 110.424946 
L 1058.910309 152.475783 
L 996.18866 152.475783 
z
" clip-path="url(#p5437599e9a)" style="fill: #ffffff"/>
   </g>
   <g id="patch_16">
    <path d="M 996.18866 110.424946 
L 1058.910309 110.424946 
L 1058.910309 152.475783 
L 996.18866 152.475783 
z
" clip-path="url(#p5437599e9a)" style="fill: #ffffff"/>
   </g>
   <g id="patch_17">
    <path d="M 1058.910309 110.424946 
L 1121.631959 110.424946 
L 1121.631959 152.475783 
L 1058.910309 152.475783 
z
" clip-path="url(#p5437599e9a)" style="fill: #ffffff"/>
   </g>
   <g id="patch_18">
    <path d="M 1058.910309 110.424946 
L 1121.631959 110.424946 
L 1121.631959 152.475783 
L 1058.910309 152.475783 
z
" clip-path="url(#p5437599e9a)" style="fill: #ffffff"/>
   </g>
   <g id="patch_19">
    <path d="M 212.168041 152.475783 
L 306.250515 152.475783 
L 306.250515 194.526621 
L 212.168041 194.526621 
z
" clip-path="url(#p5437599e9a)" style="fill: #ffffff"/>
   </g>
   <g id="patch_20">
    <path d="M 306.250515 152.475783 
L 368.972165 152.475783 
L 368.972165 194.526621 
L 306.250515 194.526621 
z
" clip-path="url(#p5437599e9a)" style="fill: #ffffff"/>
   </g>
   <g id="patch_21">
    <path d="M 368.972165 152.475783 
L 431.693814 152.475783 
L 431.693814 194.526621 
L 368.972165 194.526621 
z
" clip-path="url(#p5437599e9a)" style="fill: #ffffff"/>
   </g>
   <g id="patch_22">
    <path d="M 431.693814 152.475783 
L 494.415464 152.475783 
L 494.415464 194.526621 
L 431.693814 194.526621 
z
" clip-path="url(#p5437599e9a)" style="fill: #ffffff"/>
   </g>
   <g id="patch_23">
    <path d="M 494.415464 152.475783 
L 557.137113 152.475783 
L 557.137113 194.526621 
L 494.415464 194.526621 
z
" clip-path="url(#p5437599e9a)" style="fill: #ffffff"/>
   </g>
   <g id="patch_24">
    <path d="M 557.137113 152.475783 
L 619.858763 152.475783 
L 619.858763 194.526621 
L 557.137113 194.526621 
z
" clip-path="url(#p5437599e9a)" style="fill: #ffffff"/>
   </g>
   <g id="patch_25">
    <path d="M 619.858763 152.475783 
L 682.580412 152.475783 
L 682.580412 194.526621 
L 619.858763 194.526621 
z
" clip-path="url(#p5437599e9a)" style="fill: #ffffff"/>
   </g>
   <g id="patch_26">
    <path d="M 682.580412 152.475783 
L 745.302062 152.475783 
L 745.302062 194.526621 
L 682.580412 194.526621 
z
" clip-path="url(#p5437599e9a)" style="fill: #ffffff"/>
   </g>
   <g id="patch_27">
    <path d="M 745.302062 152.475783 
L 808.023711 152.475783 
L 808.023711 194.526621 
L 745.302062 194.526621 
z
" clip-path="url(#p5437599e9a)" style="fill: #ffffff"/>
   </g>
   <g id="patch_28">
    <path d="M 808.023711 152.475783 
L 870.745361 152.475783 
L 870.745361 194.526621 
L 808.023711 194.526621 
z
" clip-path="url(#p5437599e9a)" style="fill: #ffffff"/>
   </g>
   <g id="patch_29">
    <path d="M 870.745361 152.475783 
L 933.46701 152.475783 
L 933.46701 194.526621 
L 870.745361 194.526621 
z
" clip-path="url(#p5437599e9a)" style="fill: #ffffff"/>
   </g>
   <g id="patch_30">
    <path d="M 933.46701 152.475783 
L 996.18866 152.475783 
L 996.18866 194.526621 
L 933.46701 194.526621 
z
" clip-path="url(#p5437599e9a)" style="fill: #ffffff"/>
   </g>
   <g id="patch_31">
    <path d="M 933.46701 152.475783 
L 996.18866 152.475783 
L 996.18866 194.526621 
L 933.46701 194.526621 
z
" clip-path="url(#p5437599e9a)" style="fill: #ffffff"/>
   </g>
   <g id="patch_32">
    <path d="M 996.18866 152.475783 
L 1058.910309 152.475783 
L 1058.910309 194.526621 
L 996.18866 194.526621 
z
" clip-path="url(#p5437599e9a)" style="fill: #ffffff"/>
   </g>
   <g id="patch_33">
    <path d="M 996.18866 152.475783 
L 1058.910309 152.475783 
L 1058.910309 194.526621 
L 996.18866 194.526621 
z
" clip-path="url(#p5437599e9a)" style="fill: #ffffff"/>
   </g>
   <g id="patch_34">
    <path d="M 1058.910309 152.475783 
L 1121.631959 152.475783 
L 1121.631959 194.526621 
L 1058.910309 194.526621 
z
" clip-path="url(#p5437599e9a)" style="fill: #ffffff"/>
   </g>
   <g id="patch_35">
    <path d="M 1058.910309 152.475783 
L 1121.631959 152.475783 
L 1121.631959 194.526621 
L 1058.910309 194.526621 
z
" clip-path="url(#p5437599e9a)" style="fill: #ffffff"/>
   </g>
   <g id="patch_36">
    <path d="M 212.168041 194.526621 
L 306.250515 194.526621 
L 306.250515 236.577458 
L 212.168041 236.577458 
z
" clip-path="url(#p5437599e9a)" style="fill: #ffffff"/>
   </g>
   <g id="patch_37">
    <path d="M 306.250515 194.526621 
L 368.972165 194.526621 
L 368.972165 236.577458 
L 306.250515 236.577458 
z
" clip-path="url(#p5437599e9a)" style="fill: #ffffff"/>
   </g>
   <g id="patch_38">
    <path d="M 368.972165 194.526621 
L 431.693814 194.526621 
L 431.693814 236.577458 
L 368.972165 236.577458 
z
" clip-path="url(#p5437599e9a)" style="fill: #ffffff"/>
   </g>
   <g id="patch_39">
    <path d="M 431.693814 194.526621 
L 494.415464 194.526621 
L 494.415464 236.577458 
L 431.693814 236.577458 
z
" clip-path="url(#p5437599e9a)" style="fill: #ffffff"/>
   </g>
   <g id="patch_40">
    <path d="M 494.415464 194.526621 
L 557.137113 194.526621 
L 557.137113 236.577458 
L 494.415464 236.577458 
z
" clip-path="url(#p5437599e9a)" style="fill: #ffffff"/>
   </g>
   <g id="patch_41">
    <path d="M 557.137113 194.526621 
L 619.858763 194.526621 
L 619.858763 236.577458 
L 557.137113 236.577458 
z
" clip-path="url(#p5437599e9a)" style="fill: #ffffff"/>
   </g>
   <g id="patch_42">
    <path d="M 619.858763 194.526621 
L 682.580412 194.526621 
L 682.580412 236.577458 
L 619.858763 236.577458 
z
" clip-path="url(#p5437599e9a)" style="fill: #ffffff"/>
   </g>
   <g id="patch_43">
    <path d="M 682.580412 194.526621 
L 745.302062 194.526621 
L 745.302062 236.577458 
L 682.580412 236.577458 
z
" clip-path="url(#p5437599e9a)" style="fill: #ffffff"/>
   </g>
   <g id="patch_44">
    <path d="M 745.302062 194.526621 
L 808.023711 194.526621 
L 808.023711 236.577458 
L 745.302062 236.577458 
z
" clip-path="url(#p5437599e9a)" style="fill: #ffffff"/>
   </g>
   <g id="patch_45">
    <path d="M 808.023711 194.526621 
L 870.745361 194.526621 
L 870.745361 236.577458 
L 808.023711 236.577458 
z
" clip-path="url(#p5437599e9a)" style="fill: #ffffff"/>
   </g>
   <g id="patch_46">
    <path d="M 870.745361 194.526621 
L 933.46701 194.526621 
L 933.46701 236.577458 
L 870.745361 236.577458 
z
" clip-path="url(#p5437599e9a)" style="fill: #ffffff"/>
   </g>
   <g id="patch_47">
    <path d="M 933.46701 194.526621 
L 996.18866 194.526621 
L 996.18866 236.577458 
L 933.46701 236.577458 
z
" clip-path="url(#p5437599e9a)" style="fill: #ffffff"/>
   </g>
   <g id="patch_48">
    <path d="M 933.46701 194.526621 
L 996.18866 194.526621 
L 996.18866 236.577458 
L 933.46701 236.577458 
z
" clip-path="url(#p5437599e9a)" style="fill: #ffffff"/>
   </g>
   <g id="patch_49">
    <path d="M 996.18866 194.526621 
L 1058.910309 194.526621 
L 1058.910309 236.577458 
L 996.18866 236.577458 
z
" clip-path="url(#p5437599e9a)" style="fill: #ffffff"/>
   </g>
   <g id="patch_50">
    <path d="M 996.18866 194.526621 
L 1058.910309 194.526621 
L 1058.910309 236.577458 
L 996.18866 236.577458 
z
" clip-path="url(#p5437599e9a)" style="fill: #ffffff"/>
   </g>
   <g id="patch_51">
    <path d="M 1058.910309 194.526621 
L 1121.631959 194.526621 
L 1121.631959 236.577458 
L 1058.910309 236.577458 
z
" clip-path="url(#p5437599e9a)" style="fill: #ffffff"/>
   </g>
   <g id="patch_52">
    <path d="M 1058.910309 194.526621 
L 1121.631959 194.526621 
L 1121.631959 236.577458 
L 1058.910309 236.577458 
z
" clip-path="url(#p5437599e9a)" style="fill: #ffffff"/>
   </g>
   <g id="patch_53">
    <path d="M 212.168041 68.374108 
L 306.250515 68.374108 
L 306.250515 110.424946 
L 212.168041 110.424946 
z
" clip-path="url(#p5437599e9a)" style="fill: #ffffff"/>
   </g>
   <g id="patch_54">
    <path d="M 306.250515 68.374108 
L 368.972165 68.374108 
L 368.972165 110.424946 
L 306.250515 110.424946 
z
" clip-path="url(#p5437599e9a)" style="fill: #ffffff"/>
   </g>
   <g id="patch_55">
    <path d="M 368.972165 68.374108 
L 431.693814 68.374108 
L 431.693814 110.424946 
L 368.972165 110.424946 
z
" clip-path="url(#p5437599e9a)" style="fill: #ffffff"/>
   </g>
   <g id="patch_56">
    <path d="M 431.693814 68.374108 
L 494.415464 68.374108 
L 494.415464 110.424946 
L 431.693814 110.424946 
z
" clip-path="url(#p5437599e9a)" style="fill: #ffffff"/>
   </g>
   <g id="patch_57">
    <path d="M 494.415464 68.374108 
L 557.137113 68.374108 
L 557.137113 110.424946 
L 494.415464 110.424946 
z
" clip-path="url(#p5437599e9a)" style="fill: #ffffff"/>
   </g>
   <g id="patch_58">
    <path d="M 557.137113 68.374108 
L 619.858763 68.374108 
L 619.858763 110.424946 
L 557.137113 110.424946 
z
" clip-path="url(#p5437599e9a)" style="fill: #ffffff"/>
   </g>
   <g id="patch_59">
    <path d="M 619.858763 68.374108 
L 682.580412 68.374108 
L 682.580412 110.424946 
L 619.858763 110.424946 
z
" clip-path="url(#p5437599e9a)" style="fill: #ffffff"/>
   </g>
   <g id="patch_60">
    <path d="M 682.580412 68.374108 
L 745.302062 68.374108 
L 745.302062 110.424946 
L 682.580412 110.424946 
z
" clip-path="url(#p5437599e9a)" style="fill: #ffffff"/>
   </g>
   <g id="patch_61">
    <path d="M 745.302062 68.374108 
L 808.023711 68.374108 
L 808.023711 110.424946 
L 745.302062 110.424946 
z
" clip-path="url(#p5437599e9a)" style="fill: #ffffff"/>
   </g>
   <g id="patch_62">
    <path d="M 808.023711 68.374108 
L 870.745361 68.374108 
L 870.745361 110.424946 
L 808.023711 110.424946 
z
" clip-path="url(#p5437599e9a)" style="fill: #ffffff"/>
   </g>
   <g id="patch_63">
    <path d="M 870.745361 68.374108 
L 933.46701 68.374108 
L 933.46701 110.424946 
L 870.745361 110.424946 
z
" clip-path="url(#p5437599e9a)" style="fill: #ffffff"/>
   </g>
   <g id="patch_64">
    <path d="M 933.46701 68.374108 
L 996.18866 68.374108 
L 996.18866 110.424946 
L 933.46701 110.424946 
z
" clip-path="url(#p5437599e9a)" style="fill: #ffffff"/>
   </g>
   <g id="patch_65">
    <path d="M 996.18866 68.374108 
L 1058.910309 68.374108 
L 1058.910309 110.424946 
L 996.18866 110.424946 
z
" clip-path="url(#p5437599e9a)" style="fill: #ffffff"/>
   </g>
   <g id="patch_66">
    <path d="M 1058.910309 68.374108 
L 1121.631959 68.374108 
L 1121.631959 110.424946 
L 1058.910309 110.424946 
z
" clip-path="url(#p5437599e9a)" style="fill: #ffffff"/>
   </g>
   <g id="patch_67">
    <path d="M 619.858763 68.374108 
L 933.46701 68.374108 
L 933.46701 110.424946 
L 619.858763 110.424946 
z
" clip-path="url(#p5437599e9a)" style="fill: #ffffff"/>
   </g>
   <g id="patch_68">
    <path d="M 306.250515 68.374108 
L 619.858763 68.374108 
L 619.858763 110.424946 
L 306.250515 110.424946 
z
" clip-path="url(#p5437599e9a)" style="fill: #ffffff"/>
   </g>
   <g id="patch_69">
    <path d="M 933.46701 68.374108 
L 1121.631959 68.374108 
L 1121.631959 110.424946 
L 933.46701 110.424946 
z
" clip-path="url(#p5437599e9a)" style="fill: #ffffff"/>
   </g>
   <g id="patch_70">
    <path d="M 933.46701 110.424946 
L 996.18866 110.424946 
L 996.18866 152.475783 
L 933.46701 152.475783 
z
" clip-path="url(#p5437599e9a)" style="fill: #ffffff"/>
   </g>
   <g id="patch_71">
    <path d="M 996.18866 110.424946 
L 1058.910309 110.424946 
L 1058.910309 152.475783 
L 996.18866 152.475783 
z
" clip-path="url(#p5437599e9a)" style="fill: #ffffff"/>
   </g>
   <g id="patch_72">
    <path d="M 1058.910309 110.424946 
L 1121.631959 110.424946 
L 1121.631959 152.475783 
L 1058.910309 152.475783 
z
" clip-path="url(#p5437599e9a)" style="fill: #ffffff"/>
   </g>
   <g id="patch_73">
    <path d="M 933.46701 152.475783 
L 996.18866 152.475783 
L 996.18866 194.526621 
L 933.46701 194.526621 
z
" clip-path="url(#p5437599e9a)" style="fill: #ffffff"/>
   </g>
   <g id="patch_74">
    <path d="M 996.18866 152.475783 
L 1058.910309 152.475783 
L 1058.910309 194.526621 
L 996.18866 194.526621 
z
" clip-path="url(#p5437599e9a)" style="fill: #ffffff"/>
   </g>
   <g id="patch_75">
    <path d="M 1058.910309 152.475783 
L 1121.631959 152.475783 
L 1121.631959 194.526621 
L 1058.910309 194.526621 
z
" clip-path="url(#p5437599e9a)" style="fill: #ffffff"/>
   </g>
   <g id="patch_76">
    <path d="M 933.46701 194.526621 
L 996.18866 194.526621 
L 996.18866 236.577458 
L 933.46701 236.577458 
z
" clip-path="url(#p5437599e9a)" style="fill: #ffffff"/>
   </g>
   <g id="patch_77">
    <path d="M 996.18866 194.526621 
L 1058.910309 194.526621 
L 1058.910309 236.577458 
L 996.18866 236.577458 
z
" clip-path="url(#p5437599e9a)" style="fill: #ffffff"/>
   </g>
   <g id="patch_78">
    <path d="M 1058.910309 194.526621 
L 1121.631959 194.526621 
L 1121.631959 236.577458 
L 1058.910309 236.577458 
z
" clip-path="url(#p5437599e9a)" style="fill: #ffffff"/>
   </g>
   <g id="line2d_1">
    <path d="M 635.539175 68.374108 
L 917.786598 68.374108 
" clip-path="url(#p5437599e9a)" style="fill: none; stroke: #000000; stroke-width: 0.2; stroke-linecap: square"/>
   </g>
   <g id="line2d_2">
    <path d="M 321.930928 68.374108 
L 604.178351 68.374108 
" clip-path="url(#p5437599e9a)" style="fill: none; stroke: #000000; stroke-width: 0.2; stroke-linecap: square"/>
   </g>
   <g id="line2d_3">
    <path d="M 942.875258 68.374108 
L 1112.223711 68.374108 
" clip-path="url(#p5437599e9a)" style="fill: none; stroke: #000000; stroke-width: 0.2; stroke-linecap: square"/>
   </g>
   <g id="line2d_4">
    <path d="M 212.168041 110.424946 
L 1121.631959 110.424946 
" clip-path="url(#p5437599e9a)" style="fill: none; stroke: #000000; stroke-linecap: square"/>
   </g>
   <g id="line2d_5">
    <path d="M 212.168041 236.577458 
L 1121.631959 236.577458 
" clip-path="url(#p5437599e9a)" style="fill: none; stroke: #000000; stroke-linecap: square"/>
   </g>
   <g id="line2d_6">
    <path d="M 212.168041 152.475783 
L 1121.631959 152.475783 
" clip-path="url(#p5437599e9a)" style="fill: none; stroke-dasharray: 1,5; stroke-dashoffset: 0; stroke: #000000"/>
   </g>
   <g id="line2d_7">
    <path d="M 212.168041 194.526621 
L 1121.631959 194.526621 
" clip-path="url(#p5437599e9a)" style="fill: none; stroke-dasharray: 1,5; stroke-dashoffset: 0; stroke: #000000"/>
   </g>
   <g id="line2d_8">
    <path d="M 933.46701 110.424946 
L 933.46701 236.577458 
" clip-path="url(#p5437599e9a)" style="fill: none; stroke: #000000; stroke-linecap: square"/>
   </g>
   <g id="text_1">
    <!-- X_scVI_L1 -->
    <g transform="translate(221.576289 133.931615) scale(0.1 -0.1)">
     <defs>
      <path id="DejaVuSans-Bold-58" d="M 3188 2381 
L 4806 0 
L 3553 0 
L 2463 1594 
L 1381 0 
L 122 0 
L 1741 2381 
L 184 4666 
L 1441 4666 
L 2463 3163 
L 3481 4666 
L 4744 4666 
L 3188 2381 
z
" transform="scale(0.015625)"/>
      <path id="DejaVuSans-Bold-5f" d="M 3200 -916 
L 3200 -1509 
L 0 -1509 
L 0 -916 
L 3200 -916 
z
" transform="scale(0.015625)"/>
      <path id="DejaVuSans-Bold-73" d="M 3272 3391 
L 3272 2541 
Q 2913 2691 2578 2766 
Q 2244 2841 1947 2841 
Q 1628 2841 1473 2761 
Q 1319 2681 1319 2516 
Q 1319 2381 1436 2309 
Q 1553 2238 1856 2203 
L 2053 2175 
Q 2913 2066 3209 1816 
Q 3506 1566 3506 1031 
Q 3506 472 3093 190 
Q 2681 -91 1863 -91 
Q 1516 -91 1145 -36 
Q 775 19 384 128 
L 384 978 
Q 719 816 1070 734 
Q 1422 653 1784 653 
Q 2113 653 2278 743 
Q 2444 834 2444 1013 
Q 2444 1163 2330 1236 
Q 2216 1309 1875 1350 
L 1678 1375 
Q 931 1469 631 1722 
Q 331 1975 331 2491 
Q 331 3047 712 3315 
Q 1094 3584 1881 3584 
Q 2191 3584 2531 3537 
Q 2872 3491 3272 3391 
z
" transform="scale(0.015625)"/>
      <path id="DejaVuSans-Bold-63" d="M 3366 3391 
L 3366 2478 
Q 3138 2634 2908 2709 
Q 2678 2784 2431 2784 
Q 1963 2784 1702 2511 
Q 1441 2238 1441 1747 
Q 1441 1256 1702 982 
Q 1963 709 2431 709 
Q 2694 709 2930 787 
Q 3166 866 3366 1019 
L 3366 103 
Q 3103 6 2833 -42 
Q 2563 -91 2291 -91 
Q 1344 -91 809 395 
Q 275 881 275 1747 
Q 275 2613 809 3098 
Q 1344 3584 2291 3584 
Q 2566 3584 2833 3536 
Q 3100 3488 3366 3391 
z
" transform="scale(0.015625)"/>
      <path id="DejaVuSans-Bold-56" d="M 31 4666 
L 1241 4666 
L 2478 1222 
L 3713 4666 
L 4922 4666 
L 3194 0 
L 1759 0 
L 31 4666 
z
" transform="scale(0.015625)"/>
      <path id="DejaVuSans-Bold-49" d="M 588 4666 
L 1791 4666 
L 1791 0 
L 588 0 
L 588 4666 
z
" transform="scale(0.015625)"/>
      <path id="DejaVuSans-Bold-4c" d="M 588 4666 
L 1791 4666 
L 1791 909 
L 3903 909 
L 3903 0 
L 588 0 
L 588 4666 
z
" transform="scale(0.015625)"/>
      <path id="DejaVuSans-Bold-31" d="M 750 831 
L 1813 831 
L 1813 3847 
L 722 3622 
L 722 4441 
L 1806 4666 
L 2950 4666 
L 2950 831 
L 4013 831 
L 4013 0 
L 750 0 
L 750 831 
z
" transform="scale(0.015625)"/>
     </defs>
     <use xlink:href="#DejaVuSans-Bold-58"/>
     <use xlink:href="#DejaVuSans-Bold-5f" x="77.099609"/>
     <use xlink:href="#DejaVuSans-Bold-73" x="127.099609"/>
     <use xlink:href="#DejaVuSans-Bold-63" x="186.621094"/>
     <use xlink:href="#DejaVuSans-Bold-56" x="245.898438"/>
     <use xlink:href="#DejaVuSans-Bold-49" x="323.291016"/>
     <use xlink:href="#DejaVuSans-Bold-5f" x="360.498047"/>
     <use xlink:href="#DejaVuSans-Bold-4c" x="410.498047"/>
     <use xlink:href="#DejaVuSans-Bold-31" x="474.21875"/>
    </g>
   </g>
   <g id="text_2">
    <g id="patch_79">
     <path d="M 337.61134 145.083177 
C 341.226804 145.083177 344.694675 143.646738 347.251194 141.090219 
C 349.807714 138.533699 351.244153 135.065829 351.244153 131.450365 
C 351.244153 127.8349 349.807714 124.36703 347.251194 121.81051 
C 344.694675 119.253991 341.226804 117.817552 337.61134 117.817552 
C 333.995876 117.817552 330.528005 119.253991 327.971486 121.81051 
C 325.414967 124.36703 323.978528 127.8349 323.978528 131.450365 
C 323.978528 135.065829 325.414967 138.533699 327.971486 141.090219 
C 330.528005 143.646738 333.995876 145.083177 337.61134 145.083177 
z
" style="fill: #f6f7f6; stroke: #f6f7f6; stroke-linejoin: miter"/>
    </g>
    <!-- 0.80 -->
    <g transform="translate(326.478528 134.20974) scale(0.1 -0.1)">
     <defs>
      <path id="DejaVuSans-30" d="M 2034 4250 
Q 1547 4250 1301 3770 
Q 1056 3291 1056 2328 
Q 1056 1369 1301 889 
Q 1547 409 2034 409 
Q 2525 409 2770 889 
Q 3016 1369 3016 2328 
Q 3016 3291 2770 3770 
Q 2525 4250 2034 4250 
z
M 2034 4750 
Q 2819 4750 3233 4129 
Q 3647 3509 3647 2328 
Q 3647 1150 3233 529 
Q 2819 -91 2034 -91 
Q 1250 -91 836 529 
Q 422 1150 422 2328 
Q 422 3509 836 4129 
Q 1250 4750 2034 4750 
z
" transform="scale(0.015625)"/>
      <path id="DejaVuSans-2e" d="M 684 794 
L 1344 794 
L 1344 0 
L 684 0 
L 684 794 
z
" transform="scale(0.015625)"/>
      <path id="DejaVuSans-38" d="M 2034 2216 
Q 1584 2216 1326 1975 
Q 1069 1734 1069 1313 
Q 1069 891 1326 650 
Q 1584 409 2034 409 
Q 2484 409 2743 651 
Q 3003 894 3003 1313 
Q 3003 1734 2745 1975 
Q 2488 2216 2034 2216 
z
M 1403 2484 
Q 997 2584 770 2862 
Q 544 3141 544 3541 
Q 544 4100 942 4425 
Q 1341 4750 2034 4750 
Q 2731 4750 3128 4425 
Q 3525 4100 3525 3541 
Q 3525 3141 3298 2862 
Q 3072 2584 2669 2484 
Q 3125 2378 3379 2068 
Q 3634 1759 3634 1313 
Q 3634 634 3220 271 
Q 2806 -91 2034 -91 
Q 1263 -91 848 271 
Q 434 634 434 1313 
Q 434 1759 690 2068 
Q 947 2378 1403 2484 
z
M 1172 3481 
Q 1172 3119 1398 2916 
Q 1625 2713 2034 2713 
Q 2441 2713 2670 2916 
Q 2900 3119 2900 3481 
Q 2900 3844 2670 4047 
Q 2441 4250 2034 4250 
Q 1625 4250 1398 4047 
Q 1172 3844 1172 3481 
z
" transform="scale(0.015625)"/>
     </defs>
     <use xlink:href="#DejaVuSans-30"/>
     <use xlink:href="#DejaVuSans-2e" x="63.623047"/>
     <use xlink:href="#DejaVuSans-38" x="95.410156"/>
     <use xlink:href="#DejaVuSans-30" x="159.033203"/>
    </g>
   </g>
   <g id="text_3">
    <g id="patch_80">
     <path d="M 400.33299 145.083177 
C 403.948454 145.083177 407.416325 143.646738 409.972844 141.090219 
C 412.529363 138.533699 413.965802 135.065829 413.965802 131.450365 
C 413.965802 127.8349 412.529363 124.36703 409.972844 121.81051 
C 407.416325 119.253991 403.948454 117.817552 400.33299 117.817552 
C 396.717526 117.817552 393.249655 119.253991 390.693136 121.81051 
C 388.136616 124.36703 386.700177 127.8349 386.700177 131.450365 
C 386.700177 135.065829 388.136616 138.533699 390.693136 141.090219 
C 393.249655 143.646738 396.717526 145.083177 400.33299 145.083177 
z
" style="fill: #caafd4; stroke: #caafd4; stroke-linejoin: miter"/>
    </g>
    <!-- 0.62 -->
    <g transform="translate(389.200177 134.20974) scale(0.1 -0.1)">
     <defs>
      <path id="DejaVuSans-36" d="M 2113 2584 
Q 1688 2584 1439 2293 
Q 1191 2003 1191 1497 
Q 1191 994 1439 701 
Q 1688 409 2113 409 
Q 2538 409 2786 701 
Q 3034 994 3034 1497 
Q 3034 2003 2786 2293 
Q 2538 2584 2113 2584 
z
M 3366 4563 
L 3366 3988 
Q 3128 4100 2886 4159 
Q 2644 4219 2406 4219 
Q 1781 4219 1451 3797 
Q 1122 3375 1075 2522 
Q 1259 2794 1537 2939 
Q 1816 3084 2150 3084 
Q 2853 3084 3261 2657 
Q 3669 2231 3669 1497 
Q 3669 778 3244 343 
Q 2819 -91 2113 -91 
Q 1303 -91 875 529 
Q 447 1150 447 2328 
Q 447 3434 972 4092 
Q 1497 4750 2381 4750 
Q 2619 4750 2861 4703 
Q 3103 4656 3366 4563 
z
" transform="scale(0.015625)"/>
      <path id="DejaVuSans-32" d="M 1228 531 
L 3431 531 
L 3431 0 
L 469 0 
L 469 531 
Q 828 903 1448 1529 
Q 2069 2156 2228 2338 
Q 2531 2678 2651 2914 
Q 2772 3150 2772 3378 
Q 2772 3750 2511 3984 
Q 2250 4219 1831 4219 
Q 1534 4219 1204 4116 
Q 875 4013 500 3803 
L 500 4441 
Q 881 4594 1212 4672 
Q 1544 4750 1819 4750 
Q 2544 4750 2975 4387 
Q 3406 4025 3406 3419 
Q 3406 3131 3298 2873 
Q 3191 2616 2906 2266 
Q 2828 2175 2409 1742 
Q 1991 1309 1228 531 
z
" transform="scale(0.015625)"/>
     </defs>
     <use xlink:href="#DejaVuSans-30"/>
     <use xlink:href="#DejaVuSans-2e" x="63.623047"/>
     <use xlink:href="#DejaVuSans-36" x="95.410156"/>
     <use xlink:href="#DejaVuSans-32" x="159.033203"/>
    </g>
   </g>
   <g id="text_4">
    <g id="patch_81">
     <path d="M 463.054639 145.083177 
C 466.670103 145.083177 470.137974 143.646738 472.694493 141.090219 
C 475.251013 138.533699 476.687452 135.065829 476.687452 131.450365 
C 476.687452 127.8349 475.251013 124.36703 472.694493 121.81051 
C 470.137974 119.253991 466.670103 117.817552 463.054639 117.817552 
C 459.439175 117.817552 455.971304 119.253991 453.414785 121.81051 
C 450.858266 124.36703 449.421827 127.8349 449.421827 131.450365 
C 449.421827 135.065829 450.858266 138.533699 453.414785 141.090219 
C 455.971304 143.646738 459.439175 145.083177 463.054639 145.083177 
z
" style="fill: #60b266; stroke: #60b266; stroke-linejoin: miter"/>
    </g>
    <!-- 0.63 -->
    <g style="fill: #ffffff" transform="translate(451.921827 134.20974) scale(0.1 -0.1)">
     <defs>
      <path id="DejaVuSans-33" d="M 2597 2516 
Q 3050 2419 3304 2112 
Q 3559 1806 3559 1356 
Q 3559 666 3084 287 
Q 2609 -91 1734 -91 
Q 1441 -91 1130 -33 
Q 819 25 488 141 
L 488 750 
Q 750 597 1062 519 
Q 1375 441 1716 441 
Q 2309 441 2620 675 
Q 2931 909 2931 1356 
Q 2931 1769 2642 2001 
Q 2353 2234 1838 2234 
L 1294 2234 
L 1294 2753 
L 1863 2753 
Q 2328 2753 2575 2939 
Q 2822 3125 2822 3475 
Q 2822 3834 2567 4026 
Q 2313 4219 1838 4219 
Q 1578 4219 1281 4162 
Q 984 4106 628 3988 
L 628 4550 
Q 988 4650 1302 4700 
Q 1616 4750 1894 4750 
Q 2613 4750 3031 4423 
Q 3450 4097 3450 3541 
Q 3450 3153 3228 2886 
Q 3006 2619 2597 2516 
z
" transform="scale(0.015625)"/>
     </defs>
     <use xlink:href="#DejaVuSans-30"/>
     <use xlink:href="#DejaVuSans-2e" x="63.623047"/>
     <use xlink:href="#DejaVuSans-36" x="95.410156"/>
     <use xlink:href="#DejaVuSans-33" x="159.033203"/>
    </g>
   </g>
   <g id="text_5">
    <g id="patch_82">
     <path d="M 525.776289 145.083177 
C 529.391753 145.083177 532.859624 143.646738 535.416143 141.090219 
C 537.972662 138.533699 539.409101 135.065829 539.409101 131.450365 
C 539.409101 127.8349 537.972662 124.36703 535.416143 121.81051 
C 532.859624 119.253991 529.391753 117.817552 525.776289 117.817552 
C 522.160825 117.817552 518.692954 119.253991 516.136434 121.81051 
C 513.579915 124.36703 512.143476 127.8349 512.143476 131.450365 
C 512.143476 135.065829 513.579915 138.533699 516.136434 141.090219 
C 518.692954 143.646738 522.160825 145.083177 525.776289 145.083177 
z
" style="fill: #8aca89; stroke: #8aca89; stroke-linejoin: miter"/>
    </g>
    <!-- 0.26 -->
    <g transform="translate(514.643476 134.20974) scale(0.1 -0.1)">
     <use xlink:href="#DejaVuSans-30"/>
     <use xlink:href="#DejaVuSans-2e" x="63.623047"/>
     <use xlink:href="#DejaVuSans-32" x="95.410156"/>
     <use xlink:href="#DejaVuSans-36" x="159.033203"/>
    </g>
   </g>
   <g id="text_6">
    <g id="patch_83">
     <path d="M 588.497938 145.083177 
C 592.113402 145.083177 595.581273 143.646738 598.137792 141.090219 
C 600.694312 138.533699 602.130751 135.065829 602.130751 131.450365 
C 602.130751 127.8349 600.694312 124.36703 598.137792 121.81051 
C 595.581273 119.253991 592.113402 117.817552 588.497938 117.817552 
C 584.882474 117.817552 581.414603 119.253991 578.858084 121.81051 
C 576.301565 124.36703 574.865126 127.8349 574.865126 131.450365 
C 574.865126 135.065829 576.301565 138.533699 578.858084 141.090219 
C 581.414603 143.646738 584.882474 145.083177 588.497938 145.083177 
z
" style="fill: #469d54; stroke: #469d54; stroke-linejoin: miter"/>
    </g>
    <!-- 0.63 -->
    <g style="fill: #ffffff" transform="translate(577.365126 134.20974) scale(0.1 -0.1)">
     <use xlink:href="#DejaVuSans-30"/>
     <use xlink:href="#DejaVuSans-2e" x="63.623047"/>
     <use xlink:href="#DejaVuSans-36" x="95.410156"/>
     <use xlink:href="#DejaVuSans-33" x="159.033203"/>
    </g>
   </g>
   <g id="text_7">
    <g id="patch_84">
     <path d="M 651.219588 145.083177 
C 654.835052 145.083177 658.302923 143.646738 660.859442 141.090219 
C 663.415961 138.533699 664.8524 135.065829 664.8524 131.450365 
C 664.8524 127.8349 663.415961 124.36703 660.859442 121.81051 
C 658.302923 119.253991 654.835052 117.817552 651.219588 117.817552 
C 647.604123 117.817552 644.136253 119.253991 641.579733 121.81051 
C 639.023214 124.36703 637.586775 127.8349 637.586775 131.450365 
C 637.586775 135.065829 639.023214 138.533699 641.579733 141.090219 
C 644.136253 143.646738 647.604123 145.083177 651.219588 145.083177 
z
" style="fill: #def1d9; stroke: #def1d9; stroke-linejoin: miter"/>
    </g>
    <!-- 0.82 -->
    <g transform="translate(640.086775 134.20974) scale(0.1 -0.1)">
     <use xlink:href="#DejaVuSans-30"/>
     <use xlink:href="#DejaVuSans-2e" x="63.623047"/>
     <use xlink:href="#DejaVuSans-38" x="95.410156"/>
     <use xlink:href="#DejaVuSans-32" x="159.033203"/>
    </g>
   </g>
   <g id="text_8">
    <g id="patch_85">
     <path d="M 713.941237 145.083177 
C 717.556701 145.083177 721.024572 143.646738 723.581091 141.090219 
C 726.13761 138.533699 727.57405 135.065829 727.57405 131.450365 
C 727.57405 127.8349 726.13761 124.36703 723.581091 121.81051 
C 721.024572 119.253991 717.556701 117.817552 713.941237 117.817552 
C 710.325773 117.817552 706.857902 119.253991 704.301383 121.81051 
C 701.744864 124.36703 700.308425 127.8349 700.308425 131.450365 
C 700.308425 135.065829 701.744864 138.533699 704.301383 141.090219 
C 706.857902 143.646738 710.325773 145.083177 713.941237 145.083177 
z
" style="fill: #f6f7f6; stroke: #f6f7f6; stroke-linejoin: miter"/>
    </g>
    <!-- 0.05 -->
    <g transform="translate(702.808425 134.20974) scale(0.1 -0.1)">
     <defs>
      <path id="DejaVuSans-35" d="M 691 4666 
L 3169 4666 
L 3169 4134 
L 1269 4134 
L 1269 2991 
Q 1406 3038 1543 3061 
Q 1681 3084 1819 3084 
Q 2600 3084 3056 2656 
Q 3513 2228 3513 1497 
Q 3513 744 3044 326 
Q 2575 -91 1722 -91 
Q 1428 -91 1123 -41 
Q 819 9 494 109 
L 494 744 
Q 775 591 1075 516 
Q 1375 441 1709 441 
Q 2250 441 2565 725 
Q 2881 1009 2881 1497 
Q 2881 1984 2565 2268 
Q 2250 2553 1709 2553 
Q 1456 2553 1204 2497 
Q 953 2441 691 2322 
L 691 4666 
z
" transform="scale(0.015625)"/>
     </defs>
     <use xlink:href="#DejaVuSans-30"/>
     <use xlink:href="#DejaVuSans-2e" x="63.623047"/>
     <use xlink:href="#DejaVuSans-30" x="95.410156"/>
     <use xlink:href="#DejaVuSans-35" x="159.033203"/>
    </g>
   </g>
   <g id="text_9">
    <g id="patch_86">
     <path d="M 776.662887 145.083177 
C 780.278351 145.083177 783.746222 143.646738 786.302741 141.090219 
C 788.85926 138.533699 790.295699 135.065829 790.295699 131.450365 
C 790.295699 127.8349 788.85926 124.36703 786.302741 121.81051 
C 783.746222 119.253991 780.278351 117.817552 776.662887 117.817552 
C 773.047422 117.817552 769.579552 119.253991 767.023032 121.81051 
C 764.466513 124.36703 763.030074 127.8349 763.030074 131.450365 
C 763.030074 135.065829 764.466513 138.533699 767.023032 141.090219 
C 769.579552 143.646738 773.047422 145.083177 776.662887 145.083177 
z
" style="fill: #f6f7f6; stroke: #f6f7f6; stroke-linejoin: miter"/>
    </g>
    <!-- 0.31 -->
    <g transform="translate(765.530074 134.20974) scale(0.1 -0.1)">
     <defs>
      <path id="DejaVuSans-31" d="M 794 531 
L 1825 531 
L 1825 4091 
L 703 3866 
L 703 4441 
L 1819 4666 
L 2450 4666 
L 2450 531 
L 3481 531 
L 3481 0 
L 794 0 
L 794 531 
z
" transform="scale(0.015625)"/>
     </defs>
     <use xlink:href="#DejaVuSans-30"/>
     <use xlink:href="#DejaVuSans-2e" x="63.623047"/>
     <use xlink:href="#DejaVuSans-33" x="95.410156"/>
     <use xlink:href="#DejaVuSans-31" x="159.033203"/>
    </g>
   </g>
   <g id="text_10">
    <g id="patch_87">
     <path d="M 839.384536 145.083177 
C 843 145.083177 846.467871 143.646738 849.02439 141.090219 
C 851.580909 138.533699 853.017349 135.065829 853.017349 131.450365 
C 853.017349 127.8349 851.580909 124.36703 849.02439 121.81051 
C 846.467871 119.253991 843 117.817552 839.384536 117.817552 
C 835.769072 117.817552 832.301201 119.253991 829.744682 121.81051 
C 827.188163 124.36703 825.751724 127.8349 825.751724 131.450365 
C 825.751724 135.065829 827.188163 138.533699 829.744682 141.090219 
C 832.301201 143.646738 835.769072 145.083177 839.384536 145.083177 
z
" style="fill: #84c784; stroke: #84c784; stroke-linejoin: miter"/>
    </g>
    <!-- 0.80 -->
    <g transform="translate(828.251724 134.20974) scale(0.1 -0.1)">
     <use xlink:href="#DejaVuSans-30"/>
     <use xlink:href="#DejaVuSans-2e" x="63.623047"/>
     <use xlink:href="#DejaVuSans-38" x="95.410156"/>
     <use xlink:href="#DejaVuSans-30" x="159.033203"/>
    </g>
   </g>
   <g id="text_11">
    <g id="patch_88">
     <path d="M 902.106186 145.083177 
C 905.72165 145.083177 909.189521 143.646738 911.74604 141.090219 
C 914.302559 138.533699 915.738998 135.065829 915.738998 131.450365 
C 915.738998 127.8349 914.302559 124.36703 911.74604 121.81051 
C 909.189521 119.253991 905.72165 117.817552 902.106186 117.817552 
C 898.490721 117.817552 895.022851 119.253991 892.466331 121.81051 
C 889.909812 124.36703 888.473373 127.8349 888.473373 131.450365 
C 888.473373 135.065829 889.909812 138.533699 892.466331 141.090219 
C 895.022851 143.646738 898.490721 145.083177 902.106186 145.083177 
z
" style="fill: #9e76af; stroke: #9e76af; stroke-linejoin: miter"/>
    </g>
    <!-- 0.39 -->
    <g style="fill: #ffffff" transform="translate(890.973373 134.20974) scale(0.1 -0.1)">
     <defs>
      <path id="DejaVuSans-39" d="M 703 97 
L 703 672 
Q 941 559 1184 500 
Q 1428 441 1663 441 
Q 2288 441 2617 861 
Q 2947 1281 2994 2138 
Q 2813 1869 2534 1725 
Q 2256 1581 1919 1581 
Q 1219 1581 811 2004 
Q 403 2428 403 3163 
Q 403 3881 828 4315 
Q 1253 4750 1959 4750 
Q 2769 4750 3195 4129 
Q 3622 3509 3622 2328 
Q 3622 1225 3098 567 
Q 2575 -91 1691 -91 
Q 1453 -91 1209 -44 
Q 966 3 703 97 
z
M 1959 2075 
Q 2384 2075 2632 2365 
Q 2881 2656 2881 3163 
Q 2881 3666 2632 3958 
Q 2384 4250 1959 4250 
Q 1534 4250 1286 3958 
Q 1038 3666 1038 3163 
Q 1038 2656 1286 2365 
Q 1534 2075 1959 2075 
z
" transform="scale(0.015625)"/>
     </defs>
     <use xlink:href="#DejaVuSans-30"/>
     <use xlink:href="#DejaVuSans-2e" x="63.623047"/>
     <use xlink:href="#DejaVuSans-33" x="95.410156"/>
     <use xlink:href="#DejaVuSans-39" x="159.033203"/>
    </g>
   </g>
   <g id="text_12">
    <!-- X_scVI_L5 -->
    <g transform="translate(221.576289 175.982452) scale(0.1 -0.1)">
     <defs>
      <path id="DejaVuSans-Bold-35" d="M 678 4666 
L 3669 4666 
L 3669 3781 
L 1638 3781 
L 1638 3059 
Q 1775 3097 1914 3117 
Q 2053 3138 2203 3138 
Q 3056 3138 3531 2711 
Q 4006 2284 4006 1522 
Q 4006 766 3489 337 
Q 2972 -91 2053 -91 
Q 1656 -91 1267 -14 
Q 878 63 494 219 
L 494 1166 
Q 875 947 1217 837 
Q 1559 728 1863 728 
Q 2300 728 2551 942 
Q 2803 1156 2803 1522 
Q 2803 1891 2551 2103 
Q 2300 2316 1863 2316 
Q 1603 2316 1309 2248 
Q 1016 2181 678 2041 
L 678 4666 
z
" transform="scale(0.015625)"/>
     </defs>
     <use xlink:href="#DejaVuSans-Bold-58"/>
     <use xlink:href="#DejaVuSans-Bold-5f" x="77.099609"/>
     <use xlink:href="#DejaVuSans-Bold-73" x="127.099609"/>
     <use xlink:href="#DejaVuSans-Bold-63" x="186.621094"/>
     <use xlink:href="#DejaVuSans-Bold-56" x="245.898438"/>
     <use xlink:href="#DejaVuSans-Bold-49" x="323.291016"/>
     <use xlink:href="#DejaVuSans-Bold-5f" x="360.498047"/>
     <use xlink:href="#DejaVuSans-Bold-4c" x="410.498047"/>
     <use xlink:href="#DejaVuSans-Bold-35" x="474.21875"/>
    </g>
   </g>
   <g id="text_13">
    <g id="patch_89">
     <path d="M 337.61134 187.134014 
C 341.226804 187.134014 344.694675 185.697575 347.251194 183.141056 
C 349.807714 180.584537 351.244153 177.116666 351.244153 173.501202 
C 351.244153 169.885738 349.807714 166.417867 347.251194 163.861348 
C 344.694675 161.304829 341.226804 159.868389 337.61134 159.868389 
C 333.995876 159.868389 330.528005 161.304829 327.971486 163.861348 
C 325.414967 166.417867 323.978528 169.885738 323.978528 173.501202 
C 323.978528 177.116666 325.414967 180.584537 327.971486 183.141056 
C 330.528005 185.697575 333.995876 187.134014 337.61134 187.134014 
z
" style="fill: #dbc5e0; stroke: #dbc5e0; stroke-linejoin: miter"/>
    </g>
    <!-- 0.80 -->
    <g transform="translate(326.478528 176.260577) scale(0.1 -0.1)">
     <use xlink:href="#DejaVuSans-30"/>
     <use xlink:href="#DejaVuSans-2e" x="63.623047"/>
     <use xlink:href="#DejaVuSans-38" x="95.410156"/>
     <use xlink:href="#DejaVuSans-30" x="159.033203"/>
    </g>
   </g>
   <g id="text_14">
    <g id="patch_90">
     <path d="M 400.33299 187.134014 
C 403.948454 187.134014 407.416325 185.697575 409.972844 183.141056 
C 412.529363 180.584537 413.965802 177.116666 413.965802 173.501202 
C 413.965802 169.885738 412.529363 166.417867 409.972844 163.861348 
C 407.416325 161.304829 403.948454 159.868389 400.33299 159.868389 
C 396.717526 159.868389 393.249655 161.304829 390.693136 163.861348 
C 388.136616 166.417867 386.700177 169.885738 386.700177 173.501202 
C 386.700177 177.116666 388.136616 180.584537 390.693136 183.141056 
C 393.249655 185.697575 396.717526 187.134014 400.33299 187.134014 
z
" style="fill: #96d192; stroke: #96d192; stroke-linejoin: miter"/>
    </g>
    <!-- 0.65 -->
    <g transform="translate(389.200177 176.260577) scale(0.1 -0.1)">
     <use xlink:href="#DejaVuSans-30"/>
     <use xlink:href="#DejaVuSans-2e" x="63.623047"/>
     <use xlink:href="#DejaVuSans-36" x="95.410156"/>
     <use xlink:href="#DejaVuSans-35" x="159.033203"/>
    </g>
   </g>
   <g id="text_15">
    <g id="patch_91">
     <path d="M 463.054639 187.134014 
C 466.670103 187.134014 470.137974 185.697575 472.694493 183.141056 
C 475.251013 180.584537 476.687452 177.116666 476.687452 173.501202 
C 476.687452 169.885738 475.251013 166.417867 472.694493 163.861348 
C 470.137974 161.304829 466.670103 159.868389 463.054639 159.868389 
C 459.439175 159.868389 455.971304 161.304829 453.414785 163.861348 
C 450.858266 166.417867 449.421827 169.885738 449.421827 173.501202 
C 449.421827 177.116666 450.858266 180.584537 453.414785 183.141056 
C 455.971304 185.697575 459.439175 187.134014 463.054639 187.134014 
z
" style="fill: #e8d7e9; stroke: #e8d7e9; stroke-linejoin: miter"/>
    </g>
    <!-- 0.61 -->
    <g transform="translate(451.921827 176.260577) scale(0.1 -0.1)">
     <use xlink:href="#DejaVuSans-30"/>
     <use xlink:href="#DejaVuSans-2e" x="63.623047"/>
     <use xlink:href="#DejaVuSans-36" x="95.410156"/>
     <use xlink:href="#DejaVuSans-31" x="159.033203"/>
    </g>
   </g>
   <g id="text_16">
    <g id="patch_92">
     <path d="M 525.776289 187.134014 
C 529.391753 187.134014 532.859624 185.697575 535.416143 183.141056 
C 537.972662 180.584537 539.409101 177.116666 539.409101 173.501202 
C 539.409101 169.885738 537.972662 166.417867 535.416143 163.861348 
C 532.859624 161.304829 529.391753 159.868389 525.776289 159.868389 
C 522.160825 159.868389 518.692954 161.304829 516.136434 163.861348 
C 513.579915 166.417867 512.143476 169.885738 512.143476 173.501202 
C 512.143476 177.116666 513.579915 180.584537 516.136434 183.141056 
C 518.692954 185.697575 522.160825 187.134014 525.776289 187.134014 
z
" style="fill: #d0b7d8; stroke: #d0b7d8; stroke-linejoin: miter"/>
    </g>
    <!-- 0.21 -->
    <g transform="translate(514.643476 176.260577) scale(0.1 -0.1)">
     <use xlink:href="#DejaVuSans-30"/>
     <use xlink:href="#DejaVuSans-2e" x="63.623047"/>
     <use xlink:href="#DejaVuSans-32" x="95.410156"/>
     <use xlink:href="#DejaVuSans-31" x="159.033203"/>
    </g>
   </g>
   <g id="text_17">
    <g id="patch_93">
     <path d="M 588.497938 187.134014 
C 592.113402 187.134014 595.581273 185.697575 598.137792 183.141056 
C 600.694312 180.584537 602.130751 177.116666 602.130751 173.501202 
C 602.130751 169.885738 600.694312 166.417867 598.137792 163.861348 
C 595.581273 161.304829 592.113402 159.868389 588.497938 159.868389 
C 584.882474 159.868389 581.414603 161.304829 578.858084 163.861348 
C 576.301565 166.417867 574.865126 169.885738 574.865126 173.501202 
C 574.865126 177.116666 576.301565 180.584537 578.858084 183.141056 
C 581.414603 185.697575 584.882474 187.134014 588.497938 187.134014 
z
" style="fill: #f2edf3; stroke: #f2edf3; stroke-linejoin: miter"/>
    </g>
    <!-- 0.57 -->
    <g transform="translate(577.365126 176.260577) scale(0.1 -0.1)">
     <defs>
      <path id="DejaVuSans-37" d="M 525 4666 
L 3525 4666 
L 3525 4397 
L 1831 0 
L 1172 0 
L 2766 4134 
L 525 4134 
L 525 4666 
z
" transform="scale(0.015625)"/>
     </defs>
     <use xlink:href="#DejaVuSans-30"/>
     <use xlink:href="#DejaVuSans-2e" x="63.623047"/>
     <use xlink:href="#DejaVuSans-35" x="95.410156"/>
     <use xlink:href="#DejaVuSans-37" x="159.033203"/>
    </g>
   </g>
   <g id="text_18">
    <g id="patch_94">
     <path d="M 651.219588 187.134014 
C 654.835052 187.134014 658.302923 185.697575 660.859442 183.141056 
C 663.415961 180.584537 664.8524 177.116666 664.8524 173.501202 
C 664.8524 169.885738 663.415961 166.417867 660.859442 163.861348 
C 658.302923 161.304829 654.835052 159.868389 651.219588 159.868389 
C 647.604123 159.868389 644.136253 161.304829 641.579733 163.861348 
C 639.023214 166.417867 637.586775 169.885738 637.586775 173.501202 
C 637.586775 177.116666 639.023214 180.584537 641.579733 183.141056 
C 644.136253 185.697575 647.604123 187.134014 651.219588 187.134014 
z
" style="fill: #9b72ac; stroke: #9b72ac; stroke-linejoin: miter"/>
    </g>
    <!-- 0.80 -->
    <g style="fill: #ffffff" transform="translate(640.086775 176.260577) scale(0.1 -0.1)">
     <use xlink:href="#DejaVuSans-30"/>
     <use xlink:href="#DejaVuSans-2e" x="63.623047"/>
     <use xlink:href="#DejaVuSans-38" x="95.410156"/>
     <use xlink:href="#DejaVuSans-30" x="159.033203"/>
    </g>
   </g>
   <g id="text_19">
    <g id="patch_95">
     <path d="M 713.941237 187.134014 
C 717.556701 187.134014 721.024572 185.697575 723.581091 183.141056 
C 726.13761 180.584537 727.57405 177.116666 727.57405 173.501202 
C 727.57405 169.885738 726.13761 166.417867 723.581091 163.861348 
C 721.024572 161.304829 717.556701 159.868389 713.941237 159.868389 
C 710.325773 159.868389 706.857902 161.304829 704.301383 163.861348 
C 701.744864 166.417867 700.308425 169.885738 700.308425 173.501202 
C 700.308425 177.116666 701.744864 180.584537 704.301383 183.141056 
C 706.857902 185.697575 710.325773 187.134014 713.941237 187.134014 
z
" style="fill: #66b56b; stroke: #66b56b; stroke-linejoin: miter"/>
    </g>
    <!-- 0.06 -->
    <g style="fill: #ffffff" transform="translate(702.808425 176.260577) scale(0.1 -0.1)">
     <use xlink:href="#DejaVuSans-30"/>
     <use xlink:href="#DejaVuSans-2e" x="63.623047"/>
     <use xlink:href="#DejaVuSans-30" x="95.410156"/>
     <use xlink:href="#DejaVuSans-36" x="159.033203"/>
    </g>
   </g>
   <g id="text_20">
    <g id="patch_96">
     <path d="M 776.662887 187.134014 
C 780.278351 187.134014 783.746222 185.697575 786.302741 183.141056 
C 788.85926 180.584537 790.295699 177.116666 790.295699 173.501202 
C 790.295699 169.885738 788.85926 166.417867 786.302741 163.861348 
C 783.746222 161.304829 780.278351 159.868389 776.662887 159.868389 
C 773.047422 159.868389 769.579552 161.304829 767.023032 163.861348 
C 764.466513 166.417867 763.030074 169.885738 763.030074 173.501202 
C 763.030074 177.116666 764.466513 180.584537 767.023032 183.141056 
C 769.579552 185.697575 773.047422 187.134014 776.662887 187.134014 
z
" style="fill: #8aca89; stroke: #8aca89; stroke-linejoin: miter"/>
    </g>
    <!-- 0.33 -->
    <g transform="translate(765.530074 176.260577) scale(0.1 -0.1)">
     <use xlink:href="#DejaVuSans-30"/>
     <use xlink:href="#DejaVuSans-2e" x="63.623047"/>
     <use xlink:href="#DejaVuSans-33" x="95.410156"/>
     <use xlink:href="#DejaVuSans-33" x="159.033203"/>
    </g>
   </g>
   <g id="text_21">
    <g id="patch_97">
     <path d="M 839.384536 187.134014 
C 843 187.134014 846.467871 185.697575 849.02439 183.141056 
C 851.580909 180.584537 853.017349 177.116666 853.017349 173.501202 
C 853.017349 169.885738 851.580909 166.417867 849.02439 163.861348 
C 846.467871 161.304829 843 159.868389 839.384536 159.868389 
C 835.769072 159.868389 832.301201 161.304829 829.744682 163.861348 
C 827.188163 166.417867 825.751724 169.885738 825.751724 173.501202 
C 825.751724 177.116666 827.188163 180.584537 829.744682 183.141056 
C 832.301201 185.697575 835.769072 187.134014 839.384536 187.134014 
z
" style="fill: #d4bcdb; stroke: #d4bcdb; stroke-linejoin: miter"/>
    </g>
    <!-- 0.76 -->
    <g transform="translate(828.251724 176.260577) scale(0.1 -0.1)">
     <use xlink:href="#DejaVuSans-30"/>
     <use xlink:href="#DejaVuSans-2e" x="63.623047"/>
     <use xlink:href="#DejaVuSans-37" x="95.410156"/>
     <use xlink:href="#DejaVuSans-36" x="159.033203"/>
    </g>
   </g>
   <g id="text_22">
    <g id="patch_98">
     <path d="M 902.106186 187.134014 
C 905.72165 187.134014 909.189521 185.697575 911.74604 183.141056 
C 914.302559 180.584537 915.738998 177.116666 915.738998 173.501202 
C 915.738998 169.885738 914.302559 166.417867 911.74604 163.861348 
C 909.189521 161.304829 905.72165 159.868389 902.106186 159.868389 
C 898.490721 159.868389 895.022851 161.304829 892.466331 163.861348 
C 889.909812 166.417867 888.473373 169.885738 888.473373 173.501202 
C 888.473373 177.116666 889.909812 180.584537 892.466331 183.141056 
C 895.022851 185.697575 898.490721 187.134014 902.106186 187.134014 
z
" style="fill: #d9f0d3; stroke: #d9f0d3; stroke-linejoin: miter"/>
    </g>
    <!-- 0.50 -->
    <g transform="translate(890.973373 176.260577) scale(0.1 -0.1)">
     <use xlink:href="#DejaVuSans-30"/>
     <use xlink:href="#DejaVuSans-2e" x="63.623047"/>
     <use xlink:href="#DejaVuSans-35" x="95.410156"/>
     <use xlink:href="#DejaVuSans-30" x="159.033203"/>
    </g>
   </g>
   <g id="text_23">
    <!-- X_scVI_L3 -->
    <g transform="translate(221.576289 218.084071) scale(0.1 -0.1)">
     <defs>
      <path id="DejaVuSans-Bold-33" d="M 2981 2516 
Q 3453 2394 3698 2092 
Q 3944 1791 3944 1325 
Q 3944 631 3412 270 
Q 2881 -91 1863 -91 
Q 1503 -91 1142 -33 
Q 781 25 428 141 
L 428 1069 
Q 766 900 1098 814 
Q 1431 728 1753 728 
Q 2231 728 2486 893 
Q 2741 1059 2741 1369 
Q 2741 1688 2480 1852 
Q 2219 2016 1709 2016 
L 1228 2016 
L 1228 2791 
L 1734 2791 
Q 2188 2791 2409 2933 
Q 2631 3075 2631 3366 
Q 2631 3634 2415 3781 
Q 2200 3928 1806 3928 
Q 1516 3928 1219 3862 
Q 922 3797 628 3669 
L 628 4550 
Q 984 4650 1334 4700 
Q 1684 4750 2022 4750 
Q 2931 4750 3382 4451 
Q 3834 4153 3834 3553 
Q 3834 3144 3618 2883 
Q 3403 2622 2981 2516 
z
" transform="scale(0.015625)"/>
     </defs>
     <use xlink:href="#DejaVuSans-Bold-58"/>
     <use xlink:href="#DejaVuSans-Bold-5f" x="77.099609"/>
     <use xlink:href="#DejaVuSans-Bold-73" x="127.099609"/>
     <use xlink:href="#DejaVuSans-Bold-63" x="186.621094"/>
     <use xlink:href="#DejaVuSans-Bold-56" x="245.898438"/>
     <use xlink:href="#DejaVuSans-Bold-49" x="323.291016"/>
     <use xlink:href="#DejaVuSans-Bold-5f" x="360.498047"/>
     <use xlink:href="#DejaVuSans-Bold-4c" x="410.498047"/>
     <use xlink:href="#DejaVuSans-Bold-33" x="474.21875"/>
    </g>
   </g>
   <g id="text_24">
    <g id="patch_99">
     <path d="M 337.61134 229.184852 
C 341.226804 229.184852 344.694675 227.748413 347.251194 225.191894 
C 349.807714 222.635374 351.244153 219.167504 351.244153 215.552039 
C 351.244153 211.936575 349.807714 208.468704 347.251194 205.912185 
C 344.694675 203.355666 341.226804 201.919227 337.61134 201.919227 
C 333.995876 201.919227 330.528005 203.355666 327.971486 205.912185 
C 325.414967 208.468704 323.978528 211.936575 323.978528 215.552039 
C 323.978528 219.167504 325.414967 222.635374 327.971486 225.191894 
C 330.528005 227.748413 333.995876 229.184852 337.61134 229.184852 
z
" style="fill: #78c07a; stroke: #78c07a; stroke-linejoin: miter"/>
    </g>
    <!-- 0.80 -->
    <g transform="translate(326.478528 218.311414) scale(0.1 -0.1)">
     <use xlink:href="#DejaVuSans-30"/>
     <use xlink:href="#DejaVuSans-2e" x="63.623047"/>
     <use xlink:href="#DejaVuSans-38" x="95.410156"/>
     <use xlink:href="#DejaVuSans-30" x="159.033203"/>
    </g>
   </g>
   <g id="text_25">
    <g id="patch_100">
     <path d="M 400.33299 229.184852 
C 403.948454 229.184852 407.416325 227.748413 409.972844 225.191894 
C 412.529363 222.635374 413.965802 219.167504 413.965802 215.552039 
C 413.965802 211.936575 412.529363 208.468704 409.972844 205.912185 
C 407.416325 203.355666 403.948454 201.919227 400.33299 201.919227 
C 396.717526 201.919227 393.249655 203.355666 390.693136 205.912185 
C 388.136616 208.468704 386.700177 211.936575 386.700177 215.552039 
C 386.700177 219.167504 388.136616 222.635374 390.693136 225.191894 
C 393.249655 227.748413 396.717526 229.184852 400.33299 229.184852 
z
" style="fill: #f6f7f6; stroke: #f6f7f6; stroke-linejoin: miter"/>
    </g>
    <!-- 0.63 -->
    <g transform="translate(389.200177 218.311414) scale(0.1 -0.1)">
     <use xlink:href="#DejaVuSans-30"/>
     <use xlink:href="#DejaVuSans-2e" x="63.623047"/>
     <use xlink:href="#DejaVuSans-36" x="95.410156"/>
     <use xlink:href="#DejaVuSans-33" x="159.033203"/>
    </g>
   </g>
   <g id="text_26">
    <g id="patch_101">
     <path d="M 463.054639 229.184852 
C 466.670103 229.184852 470.137974 227.748413 472.694493 225.191894 
C 475.251013 222.635374 476.687452 219.167504 476.687452 215.552039 
C 476.687452 211.936575 475.251013 208.468704 472.694493 205.912185 
C 470.137974 203.355666 466.670103 201.919227 463.054639 201.919227 
C 459.439175 201.919227 455.971304 203.355666 453.414785 205.912185 
C 450.858266 208.468704 449.421827 211.936575 449.421827 215.552039 
C 449.421827 219.167504 450.858266 222.635374 453.414785 225.191894 
C 455.971304 227.748413 459.439175 229.184852 463.054639 229.184852 
z
" style="fill: #f6f7f6; stroke: #f6f7f6; stroke-linejoin: miter"/>
    </g>
    <!-- 0.61 -->
    <g transform="translate(451.921827 218.311414) scale(0.1 -0.1)">
     <use xlink:href="#DejaVuSans-30"/>
     <use xlink:href="#DejaVuSans-2e" x="63.623047"/>
     <use xlink:href="#DejaVuSans-36" x="95.410156"/>
     <use xlink:href="#DejaVuSans-31" x="159.033203"/>
    </g>
   </g>
   <g id="text_27">
    <g id="patch_102">
     <path d="M 525.776289 229.184852 
C 529.391753 229.184852 532.859624 227.748413 535.416143 225.191894 
C 537.972662 222.635374 539.409101 219.167504 539.409101 215.552039 
C 539.409101 211.936575 537.972662 208.468704 535.416143 205.912185 
C 532.859624 203.355666 529.391753 201.919227 525.776289 201.919227 
C 522.160825 201.919227 518.692954 203.355666 516.136434 205.912185 
C 513.579915 208.468704 512.143476 211.936575 512.143476 215.552039 
C 512.143476 219.167504 513.579915 222.635374 516.136434 225.191894 
C 518.692954 227.748413 522.160825 229.184852 525.776289 229.184852 
z
" style="fill: #f6f7f6; stroke: #f6f7f6; stroke-linejoin: miter"/>
    </g>
    <!-- 0.23 -->
    <g transform="translate(514.643476 218.311414) scale(0.1 -0.1)">
     <use xlink:href="#DejaVuSans-30"/>
     <use xlink:href="#DejaVuSans-2e" x="63.623047"/>
     <use xlink:href="#DejaVuSans-32" x="95.410156"/>
     <use xlink:href="#DejaVuSans-33" x="159.033203"/>
    </g>
   </g>
   <g id="text_28">
    <g id="patch_103">
     <path d="M 588.497938 229.184852 
C 592.113402 229.184852 595.581273 227.748413 598.137792 225.191894 
C 600.694312 222.635374 602.130751 219.167504 602.130751 215.552039 
C 602.130751 211.936575 600.694312 208.468704 598.137792 205.912185 
C 595.581273 203.355666 592.113402 201.919227 588.497938 201.919227 
C 584.882474 201.919227 581.414603 203.355666 578.858084 205.912185 
C 576.301565 208.468704 574.865126 211.936575 574.865126 215.552039 
C 574.865126 219.167504 576.301565 222.635374 578.858084 225.191894 
C 581.414603 227.748413 584.882474 229.184852 588.497938 229.184852 
z
" style="fill: #f6f7f6; stroke: #f6f7f6; stroke-linejoin: miter"/>
    </g>
    <!-- 0.58 -->
    <g transform="translate(577.365126 218.311414) scale(0.1 -0.1)">
     <use xlink:href="#DejaVuSans-30"/>
     <use xlink:href="#DejaVuSans-2e" x="63.623047"/>
     <use xlink:href="#DejaVuSans-35" x="95.410156"/>
     <use xlink:href="#DejaVuSans-38" x="159.033203"/>
    </g>
   </g>
   <g id="text_29">
    <g id="patch_104">
     <path d="M 651.219588 229.184852 
C 654.835052 229.184852 658.302923 227.748413 660.859442 225.191894 
C 663.415961 222.635374 664.8524 219.167504 664.8524 215.552039 
C 664.8524 211.936575 663.415961 208.468704 660.859442 205.912185 
C 658.302923 203.355666 654.835052 201.919227 651.219588 201.919227 
C 647.604123 201.919227 644.136253 203.355666 641.579733 205.912185 
C 639.023214 208.468704 637.586775 211.936575 637.586775 215.552039 
C 637.586775 219.167504 639.023214 222.635374 641.579733 225.191894 
C 644.136253 227.748413 647.604123 229.184852 651.219588 229.184852 
z
" style="fill: #f6f7f6; stroke: #f6f7f6; stroke-linejoin: miter"/>
    </g>
    <!-- 0.81 -->
    <g transform="translate(640.086775 218.311414) scale(0.1 -0.1)">
     <use xlink:href="#DejaVuSans-30"/>
     <use xlink:href="#DejaVuSans-2e" x="63.623047"/>
     <use xlink:href="#DejaVuSans-38" x="95.410156"/>
     <use xlink:href="#DejaVuSans-31" x="159.033203"/>
    </g>
   </g>
   <g id="text_30">
    <g id="patch_105">
     <path d="M 713.941237 229.184852 
C 717.556701 229.184852 721.024572 227.748413 723.581091 225.191894 
C 726.13761 222.635374 727.57405 219.167504 727.57405 215.552039 
C 727.57405 211.936575 726.13761 208.468704 723.581091 205.912185 
C 721.024572 203.355666 717.556701 201.919227 713.941237 201.919227 
C 710.325773 201.919227 706.857902 203.355666 704.301383 205.912185 
C 701.744864 208.468704 700.308425 211.936575 700.308425 215.552039 
C 700.308425 219.167504 701.744864 222.635374 704.301383 225.191894 
C 706.857902 227.748413 710.325773 229.184852 713.941237 229.184852 
z
" style="fill: #e6d2e7; stroke: #e6d2e7; stroke-linejoin: miter"/>
    </g>
    <!-- 0.04 -->
    <g transform="translate(702.808425 218.311414) scale(0.1 -0.1)">
     <defs>
      <path id="DejaVuSans-34" d="M 2419 4116 
L 825 1625 
L 2419 1625 
L 2419 4116 
z
M 2253 4666 
L 3047 4666 
L 3047 1625 
L 3713 1625 
L 3713 1100 
L 3047 1100 
L 3047 0 
L 2419 0 
L 2419 1100 
L 313 1100 
L 313 1709 
L 2253 4666 
z
" transform="scale(0.015625)"/>
     </defs>
     <use xlink:href="#DejaVuSans-30"/>
     <use xlink:href="#DejaVuSans-2e" x="63.623047"/>
     <use xlink:href="#DejaVuSans-30" x="95.410156"/>
     <use xlink:href="#DejaVuSans-34" x="159.033203"/>
    </g>
   </g>
   <g id="text_31">
    <g id="patch_106">
     <path d="M 776.662887 229.184852 
C 780.278351 229.184852 783.746222 227.748413 786.302741 225.191894 
C 788.85926 222.635374 790.295699 219.167504 790.295699 215.552039 
C 790.295699 211.936575 788.85926 208.468704 786.302741 205.912185 
C 783.746222 203.355666 780.278351 201.919227 776.662887 201.919227 
C 773.047422 201.919227 769.579552 203.355666 767.023032 205.912185 
C 764.466513 208.468704 763.030074 211.936575 763.030074 215.552039 
C 763.030074 219.167504 764.466513 222.635374 767.023032 225.191894 
C 769.579552 227.748413 773.047422 229.184852 776.662887 229.184852 
z
" style="fill: #d0b7d8; stroke: #d0b7d8; stroke-linejoin: miter"/>
    </g>
    <!-- 0.30 -->
    <g transform="translate(765.530074 218.311414) scale(0.1 -0.1)">
     <use xlink:href="#DejaVuSans-30"/>
     <use xlink:href="#DejaVuSans-2e" x="63.623047"/>
     <use xlink:href="#DejaVuSans-33" x="95.410156"/>
     <use xlink:href="#DejaVuSans-30" x="159.033203"/>
    </g>
   </g>
   <g id="text_32">
    <g id="patch_107">
     <path d="M 839.384536 229.184852 
C 843 229.184852 846.467871 227.748413 849.02439 225.191894 
C 851.580909 222.635374 853.017349 219.167504 853.017349 215.552039 
C 853.017349 211.936575 851.580909 208.468704 849.02439 205.912185 
C 846.467871 203.355666 843 201.919227 839.384536 201.919227 
C 835.769072 201.919227 832.301201 203.355666 829.744682 205.912185 
C 827.188163 208.468704 825.751724 211.936575 825.751724 215.552039 
C 825.751724 219.167504 827.188163 222.635374 829.744682 225.191894 
C 832.301201 227.748413 835.769072 229.184852 839.384536 229.184852 
z
" style="fill: #f6f7f6; stroke: #f6f7f6; stroke-linejoin: miter"/>
    </g>
    <!-- 0.78 -->
    <g transform="translate(828.251724 218.311414) scale(0.1 -0.1)">
     <use xlink:href="#DejaVuSans-30"/>
     <use xlink:href="#DejaVuSans-2e" x="63.623047"/>
     <use xlink:href="#DejaVuSans-37" x="95.410156"/>
     <use xlink:href="#DejaVuSans-38" x="159.033203"/>
    </g>
   </g>
   <g id="text_33">
    <g id="patch_108">
     <path d="M 902.106186 229.184852 
C 905.72165 229.184852 909.189521 227.748413 911.74604 225.191894 
C 914.302559 222.635374 915.738998 219.167504 915.738998 215.552039 
C 915.738998 211.936575 914.302559 208.468704 911.74604 205.912185 
C 909.189521 203.355666 905.72165 201.919227 902.106186 201.919227 
C 898.490721 201.919227 895.022851 203.355666 892.466331 205.912185 
C 889.909812 208.468704 888.473373 211.936575 888.473373 215.552039 
C 888.473373 219.167504 889.909812 222.635374 892.466331 225.191894 
C 895.022851 227.748413 898.490721 229.184852 902.106186 229.184852 
z
" style="fill: #f6f7f6; stroke: #f6f7f6; stroke-linejoin: miter"/>
    </g>
    <!-- 0.47 -->
    <g transform="translate(890.973373 218.311414) scale(0.1 -0.1)">
     <use xlink:href="#DejaVuSans-30"/>
     <use xlink:href="#DejaVuSans-2e" x="63.623047"/>
     <use xlink:href="#DejaVuSans-34" x="95.410156"/>
     <use xlink:href="#DejaVuSans-37" x="159.033203"/>
    </g>
   </g>
   <g id="text_34">
    <!-- Method -->
    <g transform="translate(221.576289 92.158902) scale(0.1 -0.1)">
     <defs>
      <path id="DejaVuSans-Bold-4d" d="M 588 4666 
L 2119 4666 
L 3181 2169 
L 4250 4666 
L 5778 4666 
L 5778 0 
L 4641 0 
L 4641 3413 
L 3566 897 
L 2803 897 
L 1728 3413 
L 1728 0 
L 588 0 
L 588 4666 
z
" transform="scale(0.015625)"/>
      <path id="DejaVuSans-Bold-65" d="M 4031 1759 
L 4031 1441 
L 1416 1441 
Q 1456 1047 1700 850 
Q 1944 653 2381 653 
Q 2734 653 3104 758 
Q 3475 863 3866 1075 
L 3866 213 
Q 3469 63 3072 -14 
Q 2675 -91 2278 -91 
Q 1328 -91 801 392 
Q 275 875 275 1747 
Q 275 2603 792 3093 
Q 1309 3584 2216 3584 
Q 3041 3584 3536 3087 
Q 4031 2591 4031 1759 
z
M 2881 2131 
Q 2881 2450 2695 2645 
Q 2509 2841 2209 2841 
Q 1884 2841 1681 2658 
Q 1478 2475 1428 2131 
L 2881 2131 
z
" transform="scale(0.015625)"/>
      <path id="DejaVuSans-Bold-74" d="M 1759 4494 
L 1759 3500 
L 2913 3500 
L 2913 2700 
L 1759 2700 
L 1759 1216 
Q 1759 972 1856 886 
Q 1953 800 2241 800 
L 2816 800 
L 2816 0 
L 1856 0 
Q 1194 0 917 276 
Q 641 553 641 1216 
L 641 2700 
L 84 2700 
L 84 3500 
L 641 3500 
L 641 4494 
L 1759 4494 
z
" transform="scale(0.015625)"/>
      <path id="DejaVuSans-Bold-68" d="M 4056 2131 
L 4056 0 
L 2931 0 
L 2931 347 
L 2931 1625 
Q 2931 2084 2911 2256 
Q 2891 2428 2841 2509 
Q 2775 2619 2662 2680 
Q 2550 2741 2406 2741 
Q 2056 2741 1856 2470 
Q 1656 2200 1656 1722 
L 1656 0 
L 538 0 
L 538 4863 
L 1656 4863 
L 1656 2988 
Q 1909 3294 2193 3439 
Q 2478 3584 2822 3584 
Q 3428 3584 3742 3212 
Q 4056 2841 4056 2131 
z
" transform="scale(0.015625)"/>
      <path id="DejaVuSans-Bold-6f" d="M 2203 2784 
Q 1831 2784 1636 2517 
Q 1441 2250 1441 1747 
Q 1441 1244 1636 976 
Q 1831 709 2203 709 
Q 2569 709 2762 976 
Q 2956 1244 2956 1747 
Q 2956 2250 2762 2517 
Q 2569 2784 2203 2784 
z
M 2203 3584 
Q 3106 3584 3614 3096 
Q 4122 2609 4122 1747 
Q 4122 884 3614 396 
Q 3106 -91 2203 -91 
Q 1297 -91 786 396 
Q 275 884 275 1747 
Q 275 2609 786 3096 
Q 1297 3584 2203 3584 
z
" transform="scale(0.015625)"/>
      <path id="DejaVuSans-Bold-64" d="M 2919 2988 
L 2919 4863 
L 4044 4863 
L 4044 0 
L 2919 0 
L 2919 506 
Q 2688 197 2409 53 
Q 2131 -91 1766 -91 
Q 1119 -91 703 423 
Q 288 938 288 1747 
Q 288 2556 703 3070 
Q 1119 3584 1766 3584 
Q 2128 3584 2408 3439 
Q 2688 3294 2919 2988 
z
M 2181 722 
Q 2541 722 2730 984 
Q 2919 1247 2919 1747 
Q 2919 2247 2730 2509 
Q 2541 2772 2181 2772 
Q 1825 2772 1636 2509 
Q 1447 2247 1447 1747 
Q 1447 1247 1636 984 
Q 1825 722 2181 722 
z
" transform="scale(0.015625)"/>
     </defs>
     <use xlink:href="#DejaVuSans-Bold-4d"/>
     <use xlink:href="#DejaVuSans-Bold-65" x="99.511719"/>
     <use xlink:href="#DejaVuSans-Bold-74" x="167.333984"/>
     <use xlink:href="#DejaVuSans-Bold-68" x="215.136719"/>
     <use xlink:href="#DejaVuSans-Bold-6f" x="286.328125"/>
     <use xlink:href="#DejaVuSans-Bold-64" x="355.029297"/>
    </g>
   </g>
   <g id="text_35">
    <!-- Leiden -->
    <g transform="translate(321.027746 86.559996) scale(0.1 -0.1)">
     <defs>
      <path id="DejaVuSans-4c" d="M 628 4666 
L 1259 4666 
L 1259 531 
L 3531 531 
L 3531 0 
L 628 0 
L 628 4666 
z
" transform="scale(0.015625)"/>
      <path id="DejaVuSans-65" d="M 3597 1894 
L 3597 1613 
L 953 1613 
Q 991 1019 1311 708 
Q 1631 397 2203 397 
Q 2534 397 2845 478 
Q 3156 559 3463 722 
L 3463 178 
Q 3153 47 2828 -22 
Q 2503 -91 2169 -91 
Q 1331 -91 842 396 
Q 353 884 353 1716 
Q 353 2575 817 3079 
Q 1281 3584 2069 3584 
Q 2775 3584 3186 3129 
Q 3597 2675 3597 1894 
z
M 3022 2063 
Q 3016 2534 2758 2815 
Q 2500 3097 2075 3097 
Q 1594 3097 1305 2825 
Q 1016 2553 972 2059 
L 3022 2063 
z
" transform="scale(0.015625)"/>
      <path id="DejaVuSans-69" d="M 603 3500 
L 1178 3500 
L 1178 0 
L 603 0 
L 603 3500 
z
M 603 4863 
L 1178 4863 
L 1178 4134 
L 603 4134 
L 603 4863 
z
" transform="scale(0.015625)"/>
      <path id="DejaVuSans-64" d="M 2906 2969 
L 2906 4863 
L 3481 4863 
L 3481 0 
L 2906 0 
L 2906 525 
Q 2725 213 2448 61 
Q 2172 -91 1784 -91 
Q 1150 -91 751 415 
Q 353 922 353 1747 
Q 353 2572 751 3078 
Q 1150 3584 1784 3584 
Q 2172 3584 2448 3432 
Q 2725 3281 2906 2969 
z
M 947 1747 
Q 947 1113 1208 752 
Q 1469 391 1925 391 
Q 2381 391 2643 752 
Q 2906 1113 2906 1747 
Q 2906 2381 2643 2742 
Q 2381 3103 1925 3103 
Q 1469 3103 1208 2742 
Q 947 2381 947 1747 
z
" transform="scale(0.015625)"/>
      <path id="DejaVuSans-6e" d="M 3513 2113 
L 3513 0 
L 2938 0 
L 2938 2094 
Q 2938 2591 2744 2837 
Q 2550 3084 2163 3084 
Q 1697 3084 1428 2787 
Q 1159 2491 1159 1978 
L 1159 0 
L 581 0 
L 581 3500 
L 1159 3500 
L 1159 2956 
Q 1366 3272 1645 3428 
Q 1925 3584 2291 3584 
Q 2894 3584 3203 3211 
Q 3513 2838 3513 2113 
z
" transform="scale(0.015625)"/>
     </defs>
     <use xlink:href="#DejaVuSans-4c"/>
     <use xlink:href="#DejaVuSans-65" x="53.962891"/>
     <use xlink:href="#DejaVuSans-69" x="115.486328"/>
     <use xlink:href="#DejaVuSans-64" x="143.269531"/>
     <use xlink:href="#DejaVuSans-65" x="206.746094"/>
     <use xlink:href="#DejaVuSans-6e" x="268.269531"/>
    </g>
    <!-- NMI -->
    <g transform="translate(328.081653 97.757808) scale(0.1 -0.1)">
     <defs>
      <path id="DejaVuSans-4e" d="M 628 4666 
L 1478 4666 
L 3547 763 
L 3547 4666 
L 4159 4666 
L 4159 0 
L 3309 0 
L 1241 3903 
L 1241 0 
L 628 0 
L 628 4666 
z
" transform="scale(0.015625)"/>
      <path id="DejaVuSans-4d" d="M 628 4666 
L 1569 4666 
L 2759 1491 
L 3956 4666 
L 4897 4666 
L 4897 0 
L 4281 0 
L 4281 4097 
L 3078 897 
L 2444 897 
L 1241 4097 
L 1241 0 
L 628 0 
L 628 4666 
z
" transform="scale(0.015625)"/>
      <path id="DejaVuSans-49" d="M 628 4666 
L 1259 4666 
L 1259 0 
L 628 0 
L 628 4666 
z
" transform="scale(0.015625)"/>
     </defs>
     <use xlink:href="#DejaVuSans-4e"/>
     <use xlink:href="#DejaVuSans-4d" x="74.804688"/>
     <use xlink:href="#DejaVuSans-49" x="161.083984"/>
    </g>
   </g>
   <g id="text_36">
    <!-- Leiden -->
    <g transform="translate(383.749396 86.559996) scale(0.1 -0.1)">
     <use xlink:href="#DejaVuSans-4c"/>
     <use xlink:href="#DejaVuSans-65" x="53.962891"/>
     <use xlink:href="#DejaVuSans-69" x="115.486328"/>
     <use xlink:href="#DejaVuSans-64" x="143.269531"/>
     <use xlink:href="#DejaVuSans-65" x="206.746094"/>
     <use xlink:href="#DejaVuSans-6e" x="268.269531"/>
    </g>
    <!-- ARI -->
    <g transform="translate(391.963458 97.757808) scale(0.1 -0.1)">
     <defs>
      <path id="DejaVuSans-41" d="M 2188 4044 
L 1331 1722 
L 3047 1722 
L 2188 4044 
z
M 1831 4666 
L 2547 4666 
L 4325 0 
L 3669 0 
L 3244 1197 
L 1141 1197 
L 716 0 
L 50 0 
L 1831 4666 
z
" transform="scale(0.015625)"/>
      <path id="DejaVuSans-52" d="M 2841 2188 
Q 3044 2119 3236 1894 
Q 3428 1669 3622 1275 
L 4263 0 
L 3584 0 
L 2988 1197 
Q 2756 1666 2539 1819 
Q 2322 1972 1947 1972 
L 1259 1972 
L 1259 0 
L 628 0 
L 628 4666 
L 2053 4666 
Q 2853 4666 3247 4331 
Q 3641 3997 3641 3322 
Q 3641 2881 3436 2590 
Q 3231 2300 2841 2188 
z
M 1259 4147 
L 1259 2491 
L 2053 2491 
Q 2509 2491 2742 2702 
Q 2975 2913 2975 3322 
Q 2975 3731 2742 3939 
Q 2509 4147 2053 4147 
L 1259 4147 
z
" transform="scale(0.015625)"/>
     </defs>
     <use xlink:href="#DejaVuSans-41"/>
     <use xlink:href="#DejaVuSans-52" x="68.408203"/>
     <use xlink:href="#DejaVuSans-49" x="137.890625"/>
    </g>
   </g>
   <g id="text_37">
    <!-- KMeans -->
    <g transform="translate(443.547608 86.559996) scale(0.1 -0.1)">
     <defs>
      <path id="DejaVuSans-4b" d="M 628 4666 
L 1259 4666 
L 1259 2694 
L 3353 4666 
L 4166 4666 
L 1850 2491 
L 4331 0 
L 3500 0 
L 1259 2247 
L 1259 0 
L 628 0 
L 628 4666 
z
" transform="scale(0.015625)"/>
      <path id="DejaVuSans-61" d="M 2194 1759 
Q 1497 1759 1228 1600 
Q 959 1441 959 1056 
Q 959 750 1161 570 
Q 1363 391 1709 391 
Q 2188 391 2477 730 
Q 2766 1069 2766 1631 
L 2766 1759 
L 2194 1759 
z
M 3341 1997 
L 3341 0 
L 2766 0 
L 2766 531 
Q 2569 213 2275 61 
Q 1981 -91 1556 -91 
Q 1019 -91 701 211 
Q 384 513 384 1019 
Q 384 1609 779 1909 
Q 1175 2209 1959 2209 
L 2766 2209 
L 2766 2266 
Q 2766 2663 2505 2880 
Q 2244 3097 1772 3097 
Q 1472 3097 1187 3025 
Q 903 2953 641 2809 
L 641 3341 
Q 956 3463 1253 3523 
Q 1550 3584 1831 3584 
Q 2591 3584 2966 3190 
Q 3341 2797 3341 1997 
z
" transform="scale(0.015625)"/>
      <path id="DejaVuSans-73" d="M 2834 3397 
L 2834 2853 
Q 2591 2978 2328 3040 
Q 2066 3103 1784 3103 
Q 1356 3103 1142 2972 
Q 928 2841 928 2578 
Q 928 2378 1081 2264 
Q 1234 2150 1697 2047 
L 1894 2003 
Q 2506 1872 2764 1633 
Q 3022 1394 3022 966 
Q 3022 478 2636 193 
Q 2250 -91 1575 -91 
Q 1294 -91 989 -36 
Q 684 19 347 128 
L 347 722 
Q 666 556 975 473 
Q 1284 391 1588 391 
Q 1994 391 2212 530 
Q 2431 669 2431 922 
Q 2431 1156 2273 1281 
Q 2116 1406 1581 1522 
L 1381 1569 
Q 847 1681 609 1914 
Q 372 2147 372 2553 
Q 372 3047 722 3315 
Q 1072 3584 1716 3584 
Q 2034 3584 2315 3537 
Q 2597 3491 2834 3397 
z
" transform="scale(0.015625)"/>
     </defs>
     <use xlink:href="#DejaVuSans-4b"/>
     <use xlink:href="#DejaVuSans-4d" x="65.576172"/>
     <use xlink:href="#DejaVuSans-65" x="151.855469"/>
     <use xlink:href="#DejaVuSans-61" x="213.378906"/>
     <use xlink:href="#DejaVuSans-6e" x="274.658203"/>
     <use xlink:href="#DejaVuSans-73" x="338.037109"/>
    </g>
    <!-- NMI -->
    <g transform="translate(453.524952 97.757808) scale(0.1 -0.1)">
     <use xlink:href="#DejaVuSans-4e"/>
     <use xlink:href="#DejaVuSans-4d" x="74.804688"/>
     <use xlink:href="#DejaVuSans-49" x="161.083984"/>
    </g>
   </g>
   <g id="text_38">
    <!-- KMeans -->
    <g transform="translate(506.269257 86.559996) scale(0.1 -0.1)">
     <use xlink:href="#DejaVuSans-4b"/>
     <use xlink:href="#DejaVuSans-4d" x="65.576172"/>
     <use xlink:href="#DejaVuSans-65" x="151.855469"/>
     <use xlink:href="#DejaVuSans-61" x="213.378906"/>
     <use xlink:href="#DejaVuSans-6e" x="274.658203"/>
     <use xlink:href="#DejaVuSans-73" x="338.037109"/>
    </g>
    <!-- ARI -->
    <g transform="translate(517.406757 97.757808) scale(0.1 -0.1)">
     <use xlink:href="#DejaVuSans-41"/>
     <use xlink:href="#DejaVuSans-52" x="68.408203"/>
     <use xlink:href="#DejaVuSans-49" x="137.890625"/>
    </g>
   </g>
   <g id="text_39">
    <!-- Silhouette -->
    <g transform="translate(563.075282 86.559996) scale(0.1 -0.1)">
     <defs>
      <path id="DejaVuSans-53" d="M 3425 4513 
L 3425 3897 
Q 3066 4069 2747 4153 
Q 2428 4238 2131 4238 
Q 1616 4238 1336 4038 
Q 1056 3838 1056 3469 
Q 1056 3159 1242 3001 
Q 1428 2844 1947 2747 
L 2328 2669 
Q 3034 2534 3370 2195 
Q 3706 1856 3706 1288 
Q 3706 609 3251 259 
Q 2797 -91 1919 -91 
Q 1588 -91 1214 -16 
Q 841 59 441 206 
L 441 856 
Q 825 641 1194 531 
Q 1563 422 1919 422 
Q 2459 422 2753 634 
Q 3047 847 3047 1241 
Q 3047 1584 2836 1778 
Q 2625 1972 2144 2069 
L 1759 2144 
Q 1053 2284 737 2584 
Q 422 2884 422 3419 
Q 422 4038 858 4394 
Q 1294 4750 2059 4750 
Q 2388 4750 2728 4690 
Q 3069 4631 3425 4513 
z
" transform="scale(0.015625)"/>
      <path id="DejaVuSans-6c" d="M 603 4863 
L 1178 4863 
L 1178 0 
L 603 0 
L 603 4863 
z
" transform="scale(0.015625)"/>
      <path id="DejaVuSans-68" d="M 3513 2113 
L 3513 0 
L 2938 0 
L 2938 2094 
Q 2938 2591 2744 2837 
Q 2550 3084 2163 3084 
Q 1697 3084 1428 2787 
Q 1159 2491 1159 1978 
L 1159 0 
L 581 0 
L 581 4863 
L 1159 4863 
L 1159 2956 
Q 1366 3272 1645 3428 
Q 1925 3584 2291 3584 
Q 2894 3584 3203 3211 
Q 3513 2838 3513 2113 
z
" transform="scale(0.015625)"/>
      <path id="DejaVuSans-6f" d="M 1959 3097 
Q 1497 3097 1228 2736 
Q 959 2375 959 1747 
Q 959 1119 1226 758 
Q 1494 397 1959 397 
Q 2419 397 2687 759 
Q 2956 1122 2956 1747 
Q 2956 2369 2687 2733 
Q 2419 3097 1959 3097 
z
M 1959 3584 
Q 2709 3584 3137 3096 
Q 3566 2609 3566 1747 
Q 3566 888 3137 398 
Q 2709 -91 1959 -91 
Q 1206 -91 779 398 
Q 353 888 353 1747 
Q 353 2609 779 3096 
Q 1206 3584 1959 3584 
z
" transform="scale(0.015625)"/>
      <path id="DejaVuSans-75" d="M 544 1381 
L 544 3500 
L 1119 3500 
L 1119 1403 
Q 1119 906 1312 657 
Q 1506 409 1894 409 
Q 2359 409 2629 706 
Q 2900 1003 2900 1516 
L 2900 3500 
L 3475 3500 
L 3475 0 
L 2900 0 
L 2900 538 
Q 2691 219 2414 64 
Q 2138 -91 1772 -91 
Q 1169 -91 856 284 
Q 544 659 544 1381 
z
M 1991 3584 
L 1991 3584 
z
" transform="scale(0.015625)"/>
      <path id="DejaVuSans-74" d="M 1172 4494 
L 1172 3500 
L 2356 3500 
L 2356 3053 
L 1172 3053 
L 1172 1153 
Q 1172 725 1289 603 
Q 1406 481 1766 481 
L 2356 481 
L 2356 0 
L 1766 0 
Q 1100 0 847 248 
Q 594 497 594 1153 
L 594 3053 
L 172 3053 
L 172 3500 
L 594 3500 
L 594 4494 
L 1172 4494 
z
" transform="scale(0.015625)"/>
     </defs>
     <use xlink:href="#DejaVuSans-53"/>
     <use xlink:href="#DejaVuSans-69" x="63.476562"/>
     <use xlink:href="#DejaVuSans-6c" x="91.259766"/>
     <use xlink:href="#DejaVuSans-68" x="119.042969"/>
     <use xlink:href="#DejaVuSans-6f" x="182.421875"/>
     <use xlink:href="#DejaVuSans-75" x="243.603516"/>
     <use xlink:href="#DejaVuSans-65" x="306.982422"/>
     <use xlink:href="#DejaVuSans-74" x="368.505859"/>
     <use xlink:href="#DejaVuSans-74" x="407.714844"/>
     <use xlink:href="#DejaVuSans-65" x="446.923828"/>
    </g>
    <!-- label -->
    <g transform="translate(576.404969 97.757808) scale(0.1 -0.1)">
     <defs>
      <path id="DejaVuSans-62" d="M 3116 1747 
Q 3116 2381 2855 2742 
Q 2594 3103 2138 3103 
Q 1681 3103 1420 2742 
Q 1159 2381 1159 1747 
Q 1159 1113 1420 752 
Q 1681 391 2138 391 
Q 2594 391 2855 752 
Q 3116 1113 3116 1747 
z
M 1159 2969 
Q 1341 3281 1617 3432 
Q 1894 3584 2278 3584 
Q 2916 3584 3314 3078 
Q 3713 2572 3713 1747 
Q 3713 922 3314 415 
Q 2916 -91 2278 -91 
Q 1894 -91 1617 61 
Q 1341 213 1159 525 
L 1159 0 
L 581 0 
L 581 4863 
L 1159 4863 
L 1159 2969 
z
" transform="scale(0.015625)"/>
     </defs>
     <use xlink:href="#DejaVuSans-6c"/>
     <use xlink:href="#DejaVuSans-61" x="27.783203"/>
     <use xlink:href="#DejaVuSans-62" x="89.0625"/>
     <use xlink:href="#DejaVuSans-65" x="152.539062"/>
     <use xlink:href="#DejaVuSans-6c" x="214.0625"/>
    </g>
   </g>
   <g id="text_40">
    <!-- Silhouette -->
    <g transform="translate(625.796931 86.559996) scale(0.1 -0.1)">
     <use xlink:href="#DejaVuSans-53"/>
     <use xlink:href="#DejaVuSans-69" x="63.476562"/>
     <use xlink:href="#DejaVuSans-6c" x="91.259766"/>
     <use xlink:href="#DejaVuSans-68" x="119.042969"/>
     <use xlink:href="#DejaVuSans-6f" x="182.421875"/>
     <use xlink:href="#DejaVuSans-75" x="243.603516"/>
     <use xlink:href="#DejaVuSans-65" x="306.982422"/>
     <use xlink:href="#DejaVuSans-74" x="368.505859"/>
     <use xlink:href="#DejaVuSans-74" x="407.714844"/>
     <use xlink:href="#DejaVuSans-65" x="446.923828"/>
    </g>
    <!-- batch -->
    <g transform="translate(637.103181 97.757808) scale(0.1 -0.1)">
     <defs>
      <path id="DejaVuSans-63" d="M 3122 3366 
L 3122 2828 
Q 2878 2963 2633 3030 
Q 2388 3097 2138 3097 
Q 1578 3097 1268 2742 
Q 959 2388 959 1747 
Q 959 1106 1268 751 
Q 1578 397 2138 397 
Q 2388 397 2633 464 
Q 2878 531 3122 666 
L 3122 134 
Q 2881 22 2623 -34 
Q 2366 -91 2075 -91 
Q 1284 -91 818 406 
Q 353 903 353 1747 
Q 353 2603 823 3093 
Q 1294 3584 2113 3584 
Q 2378 3584 2631 3529 
Q 2884 3475 3122 3366 
z
" transform="scale(0.015625)"/>
     </defs>
     <use xlink:href="#DejaVuSans-62"/>
     <use xlink:href="#DejaVuSans-61" x="63.476562"/>
     <use xlink:href="#DejaVuSans-74" x="124.755859"/>
     <use xlink:href="#DejaVuSans-63" x="163.964844"/>
     <use xlink:href="#DejaVuSans-68" x="218.945312"/>
    </g>
   </g>
   <g id="text_41">
    <!-- iLISI -->
    <g transform="translate(703.642018 92.158902) scale(0.1 -0.1)">
     <use xlink:href="#DejaVuSans-69"/>
     <use xlink:href="#DejaVuSans-4c" x="27.783203"/>
     <use xlink:href="#DejaVuSans-49" x="83.496094"/>
     <use xlink:href="#DejaVuSans-53" x="112.988281"/>
     <use xlink:href="#DejaVuSans-49" x="176.464844"/>
    </g>
   </g>
   <g id="text_42">
    <!-- KBET -->
    <g transform="translate(763.74023 92.158902) scale(0.1 -0.1)">
     <defs>
      <path id="DejaVuSans-42" d="M 1259 2228 
L 1259 519 
L 2272 519 
Q 2781 519 3026 730 
Q 3272 941 3272 1375 
Q 3272 1813 3026 2020 
Q 2781 2228 2272 2228 
L 1259 2228 
z
M 1259 4147 
L 1259 2741 
L 2194 2741 
Q 2656 2741 2882 2914 
Q 3109 3088 3109 3444 
Q 3109 3797 2882 3972 
Q 2656 4147 2194 4147 
L 1259 4147 
z
M 628 4666 
L 2241 4666 
Q 2963 4666 3353 4366 
Q 3744 4066 3744 3513 
Q 3744 3084 3544 2831 
Q 3344 2578 2956 2516 
Q 3422 2416 3680 2098 
Q 3938 1781 3938 1306 
Q 3938 681 3513 340 
Q 3088 0 2303 0 
L 628 0 
L 628 4666 
z
" transform="scale(0.015625)"/>
      <path id="DejaVuSans-45" d="M 628 4666 
L 3578 4666 
L 3578 4134 
L 1259 4134 
L 1259 2753 
L 3481 2753 
L 3481 2222 
L 1259 2222 
L 1259 531 
L 3634 531 
L 3634 0 
L 628 0 
L 628 4666 
z
" transform="scale(0.015625)"/>
      <path id="DejaVuSans-54" d="M -19 4666 
L 3928 4666 
L 3928 4134 
L 2272 4134 
L 2272 0 
L 1638 0 
L 1638 4134 
L -19 4134 
L -19 4666 
z
" transform="scale(0.015625)"/>
     </defs>
     <use xlink:href="#DejaVuSans-4b"/>
     <use xlink:href="#DejaVuSans-42" x="65.576172"/>
     <use xlink:href="#DejaVuSans-45" x="134.179688"/>
     <use xlink:href="#DejaVuSans-54" x="197.363281"/>
    </g>
   </g>
   <g id="text_43">
    <!-- Graph -->
    <g transform="translate(824.047817 86.559996) scale(0.1 -0.1)">
     <defs>
      <path id="DejaVuSans-47" d="M 3809 666 
L 3809 1919 
L 2778 1919 
L 2778 2438 
L 4434 2438 
L 4434 434 
Q 4069 175 3628 42 
Q 3188 -91 2688 -91 
Q 1594 -91 976 548 
Q 359 1188 359 2328 
Q 359 3472 976 4111 
Q 1594 4750 2688 4750 
Q 3144 4750 3555 4637 
Q 3966 4525 4313 4306 
L 4313 3634 
Q 3963 3931 3569 4081 
Q 3175 4231 2741 4231 
Q 1884 4231 1454 3753 
Q 1025 3275 1025 2328 
Q 1025 1384 1454 906 
Q 1884 428 2741 428 
Q 3075 428 3337 486 
Q 3600 544 3809 666 
z
" transform="scale(0.015625)"/>
      <path id="DejaVuSans-72" d="M 2631 2963 
Q 2534 3019 2420 3045 
Q 2306 3072 2169 3072 
Q 1681 3072 1420 2755 
Q 1159 2438 1159 1844 
L 1159 0 
L 581 0 
L 581 3500 
L 1159 3500 
L 1159 2956 
Q 1341 3275 1631 3429 
Q 1922 3584 2338 3584 
Q 2397 3584 2469 3576 
Q 2541 3569 2628 3553 
L 2631 2963 
z
" transform="scale(0.015625)"/>
      <path id="DejaVuSans-70" d="M 1159 525 
L 1159 -1331 
L 581 -1331 
L 581 3500 
L 1159 3500 
L 1159 2969 
Q 1341 3281 1617 3432 
Q 1894 3584 2278 3584 
Q 2916 3584 3314 3078 
Q 3713 2572 3713 1747 
Q 3713 922 3314 415 
Q 2916 -91 2278 -91 
Q 1894 -91 1617 61 
Q 1341 213 1159 525 
z
M 3116 1747 
Q 3116 2381 2855 2742 
Q 2594 3103 2138 3103 
Q 1681 3103 1420 2742 
Q 1159 2381 1159 1747 
Q 1159 1113 1420 752 
Q 1681 391 2138 391 
Q 2594 391 2855 752 
Q 3116 1113 3116 1747 
z
" transform="scale(0.015625)"/>
     </defs>
     <use xlink:href="#DejaVuSans-47"/>
     <use xlink:href="#DejaVuSans-72" x="77.490234"/>
     <use xlink:href="#DejaVuSans-61" x="118.603516"/>
     <use xlink:href="#DejaVuSans-70" x="179.882812"/>
     <use xlink:href="#DejaVuSans-68" x="243.359375"/>
    </g>
    <!-- connectivity -->
    <g transform="translate(808.795474 97.757808) scale(0.1 -0.1)">
     <defs>
      <path id="DejaVuSans-76" d="M 191 3500 
L 800 3500 
L 1894 563 
L 2988 3500 
L 3597 3500 
L 2284 0 
L 1503 0 
L 191 3500 
z
" transform="scale(0.015625)"/>
      <path id="DejaVuSans-79" d="M 2059 -325 
Q 1816 -950 1584 -1140 
Q 1353 -1331 966 -1331 
L 506 -1331 
L 506 -850 
L 844 -850 
Q 1081 -850 1212 -737 
Q 1344 -625 1503 -206 
L 1606 56 
L 191 3500 
L 800 3500 
L 1894 763 
L 2988 3500 
L 3597 3500 
L 2059 -325 
z
" transform="scale(0.015625)"/>
     </defs>
     <use xlink:href="#DejaVuSans-63"/>
     <use xlink:href="#DejaVuSans-6f" x="54.980469"/>
     <use xlink:href="#DejaVuSans-6e" x="116.162109"/>
     <use xlink:href="#DejaVuSans-6e" x="179.541016"/>
     <use xlink:href="#DejaVuSans-65" x="242.919922"/>
     <use xlink:href="#DejaVuSans-63" x="304.443359"/>
     <use xlink:href="#DejaVuSans-74" x="359.423828"/>
     <use xlink:href="#DejaVuSans-69" x="398.632812"/>
     <use xlink:href="#DejaVuSans-76" x="426.416016"/>
     <use xlink:href="#DejaVuSans-69" x="485.595703"/>
     <use xlink:href="#DejaVuSans-74" x="513.378906"/>
     <use xlink:href="#DejaVuSans-79" x="552.587891"/>
    </g>
   </g>
   <g id="text_44">
    <!-- PCR -->
    <g transform="translate(892.125717 86.559996) scale(0.1 -0.1)">
     <defs>
      <path id="DejaVuSans-50" d="M 1259 4147 
L 1259 2394 
L 2053 2394 
Q 2494 2394 2734 2622 
Q 2975 2850 2975 3272 
Q 2975 3691 2734 3919 
Q 2494 4147 2053 4147 
L 1259 4147 
z
M 628 4666 
L 2053 4666 
Q 2838 4666 3239 4311 
Q 3641 3956 3641 3272 
Q 3641 2581 3239 2228 
Q 2838 1875 2053 1875 
L 1259 1875 
L 1259 0 
L 628 0 
L 628 4666 
z
" transform="scale(0.015625)"/>
      <path id="DejaVuSans-43" d="M 4122 4306 
L 4122 3641 
Q 3803 3938 3442 4084 
Q 3081 4231 2675 4231 
Q 1875 4231 1450 3742 
Q 1025 3253 1025 2328 
Q 1025 1406 1450 917 
Q 1875 428 2675 428 
Q 3081 428 3442 575 
Q 3803 722 4122 1019 
L 4122 359 
Q 3791 134 3420 21 
Q 3050 -91 2638 -91 
Q 1578 -91 968 557 
Q 359 1206 359 2328 
Q 359 3453 968 4101 
Q 1578 4750 2638 4750 
Q 3056 4750 3426 4639 
Q 3797 4528 4122 4306 
z
" transform="scale(0.015625)"/>
     </defs>
     <use xlink:href="#DejaVuSans-50"/>
     <use xlink:href="#DejaVuSans-43" x="60.302734"/>
     <use xlink:href="#DejaVuSans-52" x="130.126953"/>
    </g>
    <!-- comparison -->
    <g transform="translate(872.911654 97.757808) scale(0.1 -0.1)">
     <defs>
      <path id="DejaVuSans-6d" d="M 3328 2828 
Q 3544 3216 3844 3400 
Q 4144 3584 4550 3584 
Q 5097 3584 5394 3201 
Q 5691 2819 5691 2113 
L 5691 0 
L 5113 0 
L 5113 2094 
Q 5113 2597 4934 2840 
Q 4756 3084 4391 3084 
Q 3944 3084 3684 2787 
Q 3425 2491 3425 1978 
L 3425 0 
L 2847 0 
L 2847 2094 
Q 2847 2600 2669 2842 
Q 2491 3084 2119 3084 
Q 1678 3084 1418 2786 
Q 1159 2488 1159 1978 
L 1159 0 
L 581 0 
L 581 3500 
L 1159 3500 
L 1159 2956 
Q 1356 3278 1631 3431 
Q 1906 3584 2284 3584 
Q 2666 3584 2933 3390 
Q 3200 3197 3328 2828 
z
" transform="scale(0.015625)"/>
     </defs>
     <use xlink:href="#DejaVuSans-63"/>
     <use xlink:href="#DejaVuSans-6f" x="54.980469"/>
     <use xlink:href="#DejaVuSans-6d" x="116.162109"/>
     <use xlink:href="#DejaVuSans-70" x="213.574219"/>
     <use xlink:href="#DejaVuSans-61" x="277.050781"/>
     <use xlink:href="#DejaVuSans-72" x="338.330078"/>
     <use xlink:href="#DejaVuSans-69" x="379.443359"/>
     <use xlink:href="#DejaVuSans-73" x="407.226562"/>
     <use xlink:href="#DejaVuSans-6f" x="459.326172"/>
     <use xlink:href="#DejaVuSans-6e" x="520.507812"/>
    </g>
   </g>
   <g id="text_45">
    <!-- Batch -->
    <g transform="translate(950.455179 86.559996) scale(0.1 -0.1)">
     <use xlink:href="#DejaVuSans-42"/>
     <use xlink:href="#DejaVuSans-61" x="68.603516"/>
     <use xlink:href="#DejaVuSans-74" x="129.882812"/>
     <use xlink:href="#DejaVuSans-63" x="169.091797"/>
     <use xlink:href="#DejaVuSans-68" x="224.072266"/>
    </g>
    <!-- correction -->
    <g transform="translate(939.705179 97.757808) scale(0.1 -0.1)">
     <use xlink:href="#DejaVuSans-63"/>
     <use xlink:href="#DejaVuSans-6f" x="54.980469"/>
     <use xlink:href="#DejaVuSans-72" x="116.162109"/>
     <use xlink:href="#DejaVuSans-72" x="155.525391"/>
     <use xlink:href="#DejaVuSans-65" x="194.388672"/>
     <use xlink:href="#DejaVuSans-63" x="255.912109"/>
     <use xlink:href="#DejaVuSans-74" x="310.892578"/>
     <use xlink:href="#DejaVuSans-69" x="350.101562"/>
     <use xlink:href="#DejaVuSans-6f" x="377.884766"/>
     <use xlink:href="#DejaVuSans-6e" x="439.066406"/>
    </g>
   </g>
   <g id="text_46">
    <!-- Bio -->
    <g transform="translate(1019.670578 86.559996) scale(0.1 -0.1)">
     <use xlink:href="#DejaVuSans-42"/>
     <use xlink:href="#DejaVuSans-69" x="68.603516"/>
     <use xlink:href="#DejaVuSans-6f" x="96.386719"/>
    </g>
    <!-- conservation -->
    <g transform="translate(995.234641 97.757808) scale(0.1 -0.1)">
     <use xlink:href="#DejaVuSans-63"/>
     <use xlink:href="#DejaVuSans-6f" x="54.980469"/>
     <use xlink:href="#DejaVuSans-6e" x="116.162109"/>
     <use xlink:href="#DejaVuSans-73" x="179.541016"/>
     <use xlink:href="#DejaVuSans-65" x="231.640625"/>
     <use xlink:href="#DejaVuSans-72" x="293.164062"/>
     <use xlink:href="#DejaVuSans-76" x="334.277344"/>
     <use xlink:href="#DejaVuSans-61" x="393.457031"/>
     <use xlink:href="#DejaVuSans-74" x="454.736328"/>
     <use xlink:href="#DejaVuSans-69" x="493.945312"/>
     <use xlink:href="#DejaVuSans-6f" x="521.728516"/>
     <use xlink:href="#DejaVuSans-6e" x="582.910156"/>
    </g>
   </g>
   <g id="text_47">
    <!-- Total -->
    <g transform="translate(1078.594572 92.158902) scale(0.1 -0.1)">
     <use xlink:href="#DejaVuSans-54"/>
     <use xlink:href="#DejaVuSans-6f" x="44.083984"/>
     <use xlink:href="#DejaVuSans-74" x="105.265625"/>
     <use xlink:href="#DejaVuSans-61" x="144.474609"/>
     <use xlink:href="#DejaVuSans-6c" x="205.753906"/>
    </g>
   </g>
   <g id="text_48">
    <!-- Batch correction -->
    <g transform="translate(735.578512 62.089337) scale(0.1 -0.1)">
     <defs>
      <path id="DejaVuSans-20" transform="scale(0.015625)"/>
     </defs>
     <use xlink:href="#DejaVuSans-42"/>
     <use xlink:href="#DejaVuSans-61" x="68.603516"/>
     <use xlink:href="#DejaVuSans-74" x="129.882812"/>
     <use xlink:href="#DejaVuSans-63" x="169.091797"/>
     <use xlink:href="#DejaVuSans-68" x="224.072266"/>
     <use xlink:href="#DejaVuSans-20" x="287.451172"/>
     <use xlink:href="#DejaVuSans-63" x="319.238281"/>
     <use xlink:href="#DejaVuSans-6f" x="374.21875"/>
     <use xlink:href="#DejaVuSans-72" x="435.400391"/>
     <use xlink:href="#DejaVuSans-72" x="474.763672"/>
     <use xlink:href="#DejaVuSans-65" x="513.626953"/>
     <use xlink:href="#DejaVuSans-63" x="575.150391"/>
     <use xlink:href="#DejaVuSans-74" x="630.130859"/>
     <use xlink:href="#DejaVuSans-69" x="669.339844"/>
     <use xlink:href="#DejaVuSans-6f" x="697.123047"/>
     <use xlink:href="#DejaVuSans-6e" x="758.304688"/>
    </g>
   </g>
   <g id="text_49">
    <!-- Bio conservation -->
    <g transform="translate(421.271827 62.089337) scale(0.1 -0.1)">
     <use xlink:href="#DejaVuSans-42"/>
     <use xlink:href="#DejaVuSans-69" x="68.603516"/>
     <use xlink:href="#DejaVuSans-6f" x="96.386719"/>
     <use xlink:href="#DejaVuSans-20" x="157.568359"/>
     <use xlink:href="#DejaVuSans-63" x="189.355469"/>
     <use xlink:href="#DejaVuSans-6f" x="244.335938"/>
     <use xlink:href="#DejaVuSans-6e" x="305.517578"/>
     <use xlink:href="#DejaVuSans-73" x="368.896484"/>
     <use xlink:href="#DejaVuSans-65" x="420.996094"/>
     <use xlink:href="#DejaVuSans-72" x="482.519531"/>
     <use xlink:href="#DejaVuSans-76" x="523.632812"/>
     <use xlink:href="#DejaVuSans-61" x="582.8125"/>
     <use xlink:href="#DejaVuSans-74" x="644.091797"/>
     <use xlink:href="#DejaVuSans-69" x="683.300781"/>
     <use xlink:href="#DejaVuSans-6f" x="711.083984"/>
     <use xlink:href="#DejaVuSans-6e" x="772.265625"/>
    </g>
   </g>
   <g id="text_50">
    <!-- Aggregate score -->
    <g transform="translate(986.464328 62.089337) scale(0.1 -0.1)">
     <defs>
      <path id="DejaVuSans-67" d="M 2906 1791 
Q 2906 2416 2648 2759 
Q 2391 3103 1925 3103 
Q 1463 3103 1205 2759 
Q 947 2416 947 1791 
Q 947 1169 1205 825 
Q 1463 481 1925 481 
Q 2391 481 2648 825 
Q 2906 1169 2906 1791 
z
M 3481 434 
Q 3481 -459 3084 -895 
Q 2688 -1331 1869 -1331 
Q 1566 -1331 1297 -1286 
Q 1028 -1241 775 -1147 
L 775 -588 
Q 1028 -725 1275 -790 
Q 1522 -856 1778 -856 
Q 2344 -856 2625 -561 
Q 2906 -266 2906 331 
L 2906 616 
Q 2728 306 2450 153 
Q 2172 0 1784 0 
Q 1141 0 747 490 
Q 353 981 353 1791 
Q 353 2603 747 3093 
Q 1141 3584 1784 3584 
Q 2172 3584 2450 3431 
Q 2728 3278 2906 2969 
L 2906 3500 
L 3481 3500 
L 3481 434 
z
" transform="scale(0.015625)"/>
     </defs>
     <use xlink:href="#DejaVuSans-41"/>
     <use xlink:href="#DejaVuSans-67" x="68.408203"/>
     <use xlink:href="#DejaVuSans-67" x="131.884766"/>
     <use xlink:href="#DejaVuSans-72" x="195.361328"/>
     <use xlink:href="#DejaVuSans-65" x="234.224609"/>
     <use xlink:href="#DejaVuSans-67" x="295.748047"/>
     <use xlink:href="#DejaVuSans-61" x="359.224609"/>
     <use xlink:href="#DejaVuSans-74" x="420.503906"/>
     <use xlink:href="#DejaVuSans-65" x="459.712891"/>
     <use xlink:href="#DejaVuSans-20" x="521.236328"/>
     <use xlink:href="#DejaVuSans-73" x="553.023438"/>
     <use xlink:href="#DejaVuSans-63" x="605.123047"/>
     <use xlink:href="#DejaVuSans-6f" x="660.103516"/>
     <use xlink:href="#DejaVuSans-72" x="721.285156"/>
     <use xlink:href="#DejaVuSans-65" x="760.148438"/>
    </g>
   </g>
  </g>
  <g id="axes_2">
   <g id="patch_109">
    <path d="M 934.960383 142.804091 
L 963.167824 142.804091 
L 963.167824 120.096638 
L 934.960383 120.096638 
z
" clip-path="url(#pb1dca4b85d)" style="fill: #50bbc2"/>
   </g>
   <g id="text_51">
    <!-- 0.47 -->
    <g transform="translate(964.661197 135.31349) scale(0.14 -0.14)">
     <use xlink:href="#DejaVuSans-30"/>
     <use xlink:href="#DejaVuSans-2e" x="63.623047"/>
     <use xlink:href="#DejaVuSans-34" x="95.410156"/>
     <use xlink:href="#DejaVuSans-37" x="159.033203"/>
    </g>
   </g>
  </g>
  <g id="axes_3">
   <g id="patch_110">
    <path d="M 997.682032 142.804091 
L 1032.790147 142.804091 
L 1032.790147 120.096638 
L 997.682032 120.096638 
z
" clip-path="url(#pd36183fbb3)" style="fill: #289cc1"/>
   </g>
   <g id="text_52">
    <!-- 0.59 -->
    <g transform="translate(1000.124899 135.31349) scale(0.14 -0.14)">
     <use xlink:href="#DejaVuSans-30"/>
     <use xlink:href="#DejaVuSans-2e" x="63.623047"/>
     <use xlink:href="#DejaVuSans-35" x="95.410156"/>
     <use xlink:href="#DejaVuSans-39" x="159.033203"/>
    </g>
   </g>
  </g>
  <g id="axes_4">
   <g id="patch_111">
    <path d="M 1060.403682 142.804091 
L 1092.751527 142.804091 
L 1092.751527 120.096638 
L 1060.403682 120.096638 
z
" clip-path="url(#pa68109b439)" style="fill: #35aac3"/>
   </g>
   <g id="text_53">
    <!-- 0.54 -->
    <g transform="translate(1060.08628 135.31349) scale(0.14 -0.14)">
     <use xlink:href="#DejaVuSans-30"/>
     <use xlink:href="#DejaVuSans-2e" x="63.623047"/>
     <use xlink:href="#DejaVuSans-35" x="95.410156"/>
     <use xlink:href="#DejaVuSans-34" x="159.033203"/>
    </g>
   </g>
  </g>
  <g id="axes_5">
   <g id="patch_112">
    <path d="M 934.960383 184.854928 
L 964.253451 184.854928 
L 964.253451 162.147476 
L 934.960383 162.147476 
z
" clip-path="url(#p26a5063656)" style="fill: #46b8c3"/>
   </g>
   <g id="text_54">
    <!-- 0.49 -->
    <g transform="translate(965.746823 177.364327) scale(0.14 -0.14)">
     <use xlink:href="#DejaVuSans-30"/>
     <use xlink:href="#DejaVuSans-2e" x="63.623047"/>
     <use xlink:href="#DejaVuSans-34" x="95.410156"/>
     <use xlink:href="#DejaVuSans-39" x="159.033203"/>
    </g>
   </g>
  </g>
  <g id="axes_6">
   <g id="patch_113">
    <path d="M 997.682032 184.854928 
L 1031.617817 184.854928 
L 1031.617817 162.147476 
L 997.682032 162.147476 
z
" clip-path="url(#p7d7d538851)" style="fill: #2da2c2"/>
   </g>
   <g id="text_55">
    <!-- 0.57 -->
    <g transform="translate(998.95257 177.364327) scale(0.14 -0.14)">
     <use xlink:href="#DejaVuSans-30"/>
     <use xlink:href="#DejaVuSans-2e" x="63.623047"/>
     <use xlink:href="#DejaVuSans-35" x="95.410156"/>
     <use xlink:href="#DejaVuSans-37" x="159.033203"/>
    </g>
   </g>
  </g>
  <g id="axes_7">
   <g id="patch_114">
    <path d="M 1060.403682 184.854928 
L 1092.48238 184.854928 
L 1092.48238 162.147476 
L 1060.403682 162.147476 
z
" clip-path="url(#p3643391dbe)" style="fill: #36abc3"/>
   </g>
   <g id="text_56">
    <!-- 0.54 -->
    <g transform="translate(1059.817132 177.364327) scale(0.14 -0.14)">
     <use xlink:href="#DejaVuSans-30"/>
     <use xlink:href="#DejaVuSans-2e" x="63.623047"/>
     <use xlink:href="#DejaVuSans-35" x="95.410156"/>
     <use xlink:href="#DejaVuSans-34" x="159.033203"/>
    </g>
   </g>
  </g>
  <g id="axes_8">
   <g id="patch_115">
    <path d="M 934.960383 226.905766 
L 963.559052 226.905766 
L 963.559052 204.198313 
L 934.960383 204.198313 
z
" clip-path="url(#p3e81ae59bb)" style="fill: #4cbac2"/>
   </g>
   <g id="text_57">
    <!-- 0.48 -->
    <g transform="translate(965.052424 219.415164) scale(0.14 -0.14)">
     <use xlink:href="#DejaVuSans-30"/>
     <use xlink:href="#DejaVuSans-2e" x="63.623047"/>
     <use xlink:href="#DejaVuSans-34" x="95.410156"/>
     <use xlink:href="#DejaVuSans-38" x="159.033203"/>
    </g>
   </g>
  </g>
  <g id="axes_9">
   <g id="patch_116">
    <path d="M 997.682032 226.905766 
L 1031.827664 226.905766 
L 1031.827664 204.198313 
L 997.682032 204.198313 
z
" clip-path="url(#pae19f88914)" style="fill: #2ca1c2"/>
   </g>
   <g id="text_58">
    <!-- 0.57 -->
    <g transform="translate(999.162417 219.415164) scale(0.14 -0.14)">
     <use xlink:href="#DejaVuSans-30"/>
     <use xlink:href="#DejaVuSans-2e" x="63.623047"/>
     <use xlink:href="#DejaVuSans-35" x="95.410156"/>
     <use xlink:href="#DejaVuSans-37" x="159.033203"/>
    </g>
   </g>
  </g>
  <g id="axes_10">
   <g id="patch_117">
    <path d="M 1060.403682 226.905766 
L 1092.330529 226.905766 
L 1092.330529 204.198313 
L 1060.403682 204.198313 
z
" clip-path="url(#p0bb8dd7d66)" style="fill: #37acc3"/>
   </g>
   <g id="text_59">
    <!-- 0.53 -->
    <g transform="translate(1059.665281 219.415164) scale(0.14 -0.14)">
     <use xlink:href="#DejaVuSans-30"/>
     <use xlink:href="#DejaVuSans-2e" x="63.623047"/>
     <use xlink:href="#DejaVuSans-35" x="95.410156"/>
     <use xlink:href="#DejaVuSans-33" x="159.033203"/>
    </g>
   </g>
  </g>
 </g>
 <defs>
  <clipPath id="p5437599e9a">
   <rect x="210.6" y="25.272" width="912.6" height="213.408"/>
  </clipPath>
  <clipPath id="pb1dca4b85d">
   <rect x="933.46701" y="118.835113" width="62.721649" height="25.230502"/>
  </clipPath>
  <clipPath id="pd36183fbb3">
   <rect x="996.18866" y="118.835113" width="62.721649" height="25.230502"/>
  </clipPath>
  <clipPath id="pa68109b439">
   <rect x="1058.910309" y="118.835113" width="62.721649" height="25.230502"/>
  </clipPath>
  <clipPath id="p26a5063656">
   <rect x="933.46701" y="160.885951" width="62.721649" height="25.230502"/>
  </clipPath>
  <clipPath id="p7d7d538851">
   <rect x="996.18866" y="160.885951" width="62.721649" height="25.230502"/>
  </clipPath>
  <clipPath id="p3643391dbe">
   <rect x="1058.910309" y="160.885951" width="62.721649" height="25.230502"/>
  </clipPath>
  <clipPath id="p3e81ae59bb">
   <rect x="933.46701" y="202.936788" width="62.721649" height="25.230502"/>
  </clipPath>
  <clipPath id="pae19f88914">
   <rect x="996.18866" y="202.936788" width="62.721649" height="25.230502"/>
  </clipPath>
  <clipPath id="p0bb8dd7d66">
   <rect x="1058.910309" y="202.936788" width="62.721649" height="25.230502"/>
  </clipPath>
 </defs>
</svg>
