<?xml version="1.0" encoding="utf-8" standalone="no"?>
<!DOCTYPE svg PUBLIC "-//W3C//DTD SVG 1.1//EN"
  "http://www.w3.org/Graphics/SVG/1.1/DTD/svg11.dtd">
<svg xmlns:xlink="http://www.w3.org/1999/xlink" width="810pt" height="302.4pt" viewBox="0 0 810 302.4" xmlns="http://www.w3.org/2000/svg" version="1.1">
 <metadata>
  <rdf:RDF xmlns:dc="http://purl.org/dc/elements/1.1/" xmlns:cc="http://creativecommons.org/ns#" xmlns:rdf="http://www.w3.org/1999/02/22-rdf-syntax-ns#">
   <cc:Work>
    <dc:type rdf:resource="http://purl.org/dc/dcmitype/StillImage"/>
    <dc:date>2023-10-14T23:19:57.987206</dc:date>
    <dc:format>image/svg+xml</dc:format>
    <dc:creator>
     <cc:Agent>
      <dc:title>Matplotlib v3.7.2, https://matplotlib.org/</dc:title>
     </cc:Agent>
    </dc:creator>
   </cc:Work>
  </rdf:RDF>
 </metadata>
 <defs>
  <style type="text/css">*{stroke-linejoin: round; stroke-linecap: butt}</style>
 </defs>
 <g id="figure_1">
  <g id="patch_1">
   <path d="M 0 302.4 
L 810 302.4 
L 810 0 
L 0 0 
z
" style="fill: #ffffff"/>
  </g>
  <g id="axes_1">
   <g id="patch_2">
    <path d="M 147.297156 103.824 
L 237.12654 103.824 
L 237.12654 141.655111 
L 147.297156 141.655111 
z
" clip-path="url(#pa4ce3e0a59)" style="fill: #ffffff"/>
   </g>
   <g id="patch_3">
    <path d="M 237.12654 103.824 
L 297.012796 103.824 
L 297.012796 141.655111 
L 237.12654 141.655111 
z
" clip-path="url(#pa4ce3e0a59)" style="fill: #ffffff"/>
   </g>
   <g id="patch_4">
    <path d="M 297.012796 103.824 
L 356.899052 103.824 
L 356.899052 141.655111 
L 297.012796 141.655111 
z
" clip-path="url(#pa4ce3e0a59)" style="fill: #ffffff"/>
   </g>
   <g id="patch_5">
    <path d="M 356.899052 103.824 
L 416.785308 103.824 
L 416.785308 141.655111 
L 356.899052 141.655111 
z
" clip-path="url(#pa4ce3e0a59)" style="fill: #ffffff"/>
   </g>
   <g id="patch_6">
    <path d="M 416.785308 103.824 
L 476.671564 103.824 
L 476.671564 141.655111 
L 416.785308 141.655111 
z
" clip-path="url(#pa4ce3e0a59)" style="fill: #ffffff"/>
   </g>
   <g id="patch_7">
    <path d="M 476.671564 103.824 
L 536.55782 103.824 
L 536.55782 141.655111 
L 476.671564 141.655111 
z
" clip-path="url(#pa4ce3e0a59)" style="fill: #ffffff"/>
   </g>
   <g id="patch_8">
    <path d="M 536.55782 103.824 
L 596.444076 103.824 
L 596.444076 141.655111 
L 536.55782 141.655111 
z
" clip-path="url(#pa4ce3e0a59)" style="fill: #ffffff"/>
   </g>
   <g id="patch_9">
    <path d="M 596.444076 103.824 
L 656.330332 103.824 
L 656.330332 141.655111 
L 596.444076 141.655111 
z
" clip-path="url(#pa4ce3e0a59)" style="fill: #ffffff"/>
   </g>
   <g id="patch_10">
    <path d="M 596.444076 103.824 
L 656.330332 103.824 
L 656.330332 141.655111 
L 596.444076 141.655111 
z
" clip-path="url(#pa4ce3e0a59)" style="fill: #ffffff"/>
   </g>
   <g id="patch_11">
    <path d="M 656.330332 103.824 
L 716.216588 103.824 
L 716.216588 141.655111 
L 656.330332 141.655111 
z
" clip-path="url(#pa4ce3e0a59)" style="fill: #ffffff"/>
   </g>
   <g id="patch_12">
    <path d="M 656.330332 103.824 
L 716.216588 103.824 
L 716.216588 141.655111 
L 656.330332 141.655111 
z
" clip-path="url(#pa4ce3e0a59)" style="fill: #ffffff"/>
   </g>
   <g id="patch_13">
    <path d="M 716.216588 103.824 
L 776.102844 103.824 
L 776.102844 141.655111 
L 716.216588 141.655111 
z
" clip-path="url(#pa4ce3e0a59)" style="fill: #ffffff"/>
   </g>
   <g id="patch_14">
    <path d="M 716.216588 103.824 
L 776.102844 103.824 
L 776.102844 141.655111 
L 716.216588 141.655111 
z
" clip-path="url(#pa4ce3e0a59)" style="fill: #ffffff"/>
   </g>
   <g id="patch_15">
    <path d="M 147.297156 141.655111 
L 237.12654 141.655111 
L 237.12654 179.486222 
L 147.297156 179.486222 
z
" clip-path="url(#pa4ce3e0a59)" style="fill: #ffffff"/>
   </g>
   <g id="patch_16">
    <path d="M 237.12654 141.655111 
L 297.012796 141.655111 
L 297.012796 179.486222 
L 237.12654 179.486222 
z
" clip-path="url(#pa4ce3e0a59)" style="fill: #ffffff"/>
   </g>
   <g id="patch_17">
    <path d="M 297.012796 141.655111 
L 356.899052 141.655111 
L 356.899052 179.486222 
L 297.012796 179.486222 
z
" clip-path="url(#pa4ce3e0a59)" style="fill: #ffffff"/>
   </g>
   <g id="patch_18">
    <path d="M 356.899052 141.655111 
L 416.785308 141.655111 
L 416.785308 179.486222 
L 356.899052 179.486222 
z
" clip-path="url(#pa4ce3e0a59)" style="fill: #ffffff"/>
   </g>
   <g id="patch_19">
    <path d="M 416.785308 141.655111 
L 476.671564 141.655111 
L 476.671564 179.486222 
L 416.785308 179.486222 
z
" clip-path="url(#pa4ce3e0a59)" style="fill: #ffffff"/>
   </g>
   <g id="patch_20">
    <path d="M 476.671564 141.655111 
L 536.55782 141.655111 
L 536.55782 179.486222 
L 476.671564 179.486222 
z
" clip-path="url(#pa4ce3e0a59)" style="fill: #ffffff"/>
   </g>
   <g id="patch_21">
    <path d="M 536.55782 141.655111 
L 596.444076 141.655111 
L 596.444076 179.486222 
L 536.55782 179.486222 
z
" clip-path="url(#pa4ce3e0a59)" style="fill: #ffffff"/>
   </g>
   <g id="patch_22">
    <path d="M 596.444076 141.655111 
L 656.330332 141.655111 
L 656.330332 179.486222 
L 596.444076 179.486222 
z
" clip-path="url(#pa4ce3e0a59)" style="fill: #ffffff"/>
   </g>
   <g id="patch_23">
    <path d="M 596.444076 141.655111 
L 656.330332 141.655111 
L 656.330332 179.486222 
L 596.444076 179.486222 
z
" clip-path="url(#pa4ce3e0a59)" style="fill: #ffffff"/>
   </g>
   <g id="patch_24">
    <path d="M 656.330332 141.655111 
L 716.216588 141.655111 
L 716.216588 179.486222 
L 656.330332 179.486222 
z
" clip-path="url(#pa4ce3e0a59)" style="fill: #ffffff"/>
   </g>
   <g id="patch_25">
    <path d="M 656.330332 141.655111 
L 716.216588 141.655111 
L 716.216588 179.486222 
L 656.330332 179.486222 
z
" clip-path="url(#pa4ce3e0a59)" style="fill: #ffffff"/>
   </g>
   <g id="patch_26">
    <path d="M 716.216588 141.655111 
L 776.102844 141.655111 
L 776.102844 179.486222 
L 716.216588 179.486222 
z
" clip-path="url(#pa4ce3e0a59)" style="fill: #ffffff"/>
   </g>
   <g id="patch_27">
    <path d="M 716.216588 141.655111 
L 776.102844 141.655111 
L 776.102844 179.486222 
L 716.216588 179.486222 
z
" clip-path="url(#pa4ce3e0a59)" style="fill: #ffffff"/>
   </g>
   <g id="patch_28">
    <path d="M 147.297156 179.486222 
L 237.12654 179.486222 
L 237.12654 217.317333 
L 147.297156 217.317333 
z
" clip-path="url(#pa4ce3e0a59)" style="fill: #ffffff"/>
   </g>
   <g id="patch_29">
    <path d="M 237.12654 179.486222 
L 297.012796 179.486222 
L 297.012796 217.317333 
L 237.12654 217.317333 
z
" clip-path="url(#pa4ce3e0a59)" style="fill: #ffffff"/>
   </g>
   <g id="patch_30">
    <path d="M 297.012796 179.486222 
L 356.899052 179.486222 
L 356.899052 217.317333 
L 297.012796 217.317333 
z
" clip-path="url(#pa4ce3e0a59)" style="fill: #ffffff"/>
   </g>
   <g id="patch_31">
    <path d="M 356.899052 179.486222 
L 416.785308 179.486222 
L 416.785308 217.317333 
L 356.899052 217.317333 
z
" clip-path="url(#pa4ce3e0a59)" style="fill: #ffffff"/>
   </g>
   <g id="patch_32">
    <path d="M 416.785308 179.486222 
L 476.671564 179.486222 
L 476.671564 217.317333 
L 416.785308 217.317333 
z
" clip-path="url(#pa4ce3e0a59)" style="fill: #ffffff"/>
   </g>
   <g id="patch_33">
    <path d="M 476.671564 179.486222 
L 536.55782 179.486222 
L 536.55782 217.317333 
L 476.671564 217.317333 
z
" clip-path="url(#pa4ce3e0a59)" style="fill: #ffffff"/>
   </g>
   <g id="patch_34">
    <path d="M 536.55782 179.486222 
L 596.444076 179.486222 
L 596.444076 217.317333 
L 536.55782 217.317333 
z
" clip-path="url(#pa4ce3e0a59)" style="fill: #ffffff"/>
   </g>
   <g id="patch_35">
    <path d="M 596.444076 179.486222 
L 656.330332 179.486222 
L 656.330332 217.317333 
L 596.444076 217.317333 
z
" clip-path="url(#pa4ce3e0a59)" style="fill: #ffffff"/>
   </g>
   <g id="patch_36">
    <path d="M 596.444076 179.486222 
L 656.330332 179.486222 
L 656.330332 217.317333 
L 596.444076 217.317333 
z
" clip-path="url(#pa4ce3e0a59)" style="fill: #ffffff"/>
   </g>
   <g id="patch_37">
    <path d="M 656.330332 179.486222 
L 716.216588 179.486222 
L 716.216588 217.317333 
L 656.330332 217.317333 
z
" clip-path="url(#pa4ce3e0a59)" style="fill: #ffffff"/>
   </g>
   <g id="patch_38">
    <path d="M 656.330332 179.486222 
L 716.216588 179.486222 
L 716.216588 217.317333 
L 656.330332 217.317333 
z
" clip-path="url(#pa4ce3e0a59)" style="fill: #ffffff"/>
   </g>
   <g id="patch_39">
    <path d="M 716.216588 179.486222 
L 776.102844 179.486222 
L 776.102844 217.317333 
L 716.216588 217.317333 
z
" clip-path="url(#pa4ce3e0a59)" style="fill: #ffffff"/>
   </g>
   <g id="patch_40">
    <path d="M 716.216588 179.486222 
L 776.102844 179.486222 
L 776.102844 217.317333 
L 716.216588 217.317333 
z
" clip-path="url(#pa4ce3e0a59)" style="fill: #ffffff"/>
   </g>
   <g id="patch_41">
    <path d="M 147.297156 217.317333 
L 237.12654 217.317333 
L 237.12654 255.148444 
L 147.297156 255.148444 
z
" clip-path="url(#pa4ce3e0a59)" style="fill: #ffffff"/>
   </g>
   <g id="patch_42">
    <path d="M 237.12654 217.317333 
L 297.012796 217.317333 
L 297.012796 255.148444 
L 237.12654 255.148444 
z
" clip-path="url(#pa4ce3e0a59)" style="fill: #ffffff"/>
   </g>
   <g id="patch_43">
    <path d="M 297.012796 217.317333 
L 356.899052 217.317333 
L 356.899052 255.148444 
L 297.012796 255.148444 
z
" clip-path="url(#pa4ce3e0a59)" style="fill: #ffffff"/>
   </g>
   <g id="patch_44">
    <path d="M 356.899052 217.317333 
L 416.785308 217.317333 
L 416.785308 255.148444 
L 356.899052 255.148444 
z
" clip-path="url(#pa4ce3e0a59)" style="fill: #ffffff"/>
   </g>
   <g id="patch_45">
    <path d="M 416.785308 217.317333 
L 476.671564 217.317333 
L 476.671564 255.148444 
L 416.785308 255.148444 
z
" clip-path="url(#pa4ce3e0a59)" style="fill: #ffffff"/>
   </g>
   <g id="patch_46">
    <path d="M 476.671564 217.317333 
L 536.55782 217.317333 
L 536.55782 255.148444 
L 476.671564 255.148444 
z
" clip-path="url(#pa4ce3e0a59)" style="fill: #ffffff"/>
   </g>
   <g id="patch_47">
    <path d="M 536.55782 217.317333 
L 596.444076 217.317333 
L 596.444076 255.148444 
L 536.55782 255.148444 
z
" clip-path="url(#pa4ce3e0a59)" style="fill: #ffffff"/>
   </g>
   <g id="patch_48">
    <path d="M 596.444076 217.317333 
L 656.330332 217.317333 
L 656.330332 255.148444 
L 596.444076 255.148444 
z
" clip-path="url(#pa4ce3e0a59)" style="fill: #ffffff"/>
   </g>
   <g id="patch_49">
    <path d="M 596.444076 217.317333 
L 656.330332 217.317333 
L 656.330332 255.148444 
L 596.444076 255.148444 
z
" clip-path="url(#pa4ce3e0a59)" style="fill: #ffffff"/>
   </g>
   <g id="patch_50">
    <path d="M 656.330332 217.317333 
L 716.216588 217.317333 
L 716.216588 255.148444 
L 656.330332 255.148444 
z
" clip-path="url(#pa4ce3e0a59)" style="fill: #ffffff"/>
   </g>
   <g id="patch_51">
    <path d="M 656.330332 217.317333 
L 716.216588 217.317333 
L 716.216588 255.148444 
L 656.330332 255.148444 
z
" clip-path="url(#pa4ce3e0a59)" style="fill: #ffffff"/>
   </g>
   <g id="patch_52">
    <path d="M 716.216588 217.317333 
L 776.102844 217.317333 
L 776.102844 255.148444 
L 716.216588 255.148444 
z
" clip-path="url(#pa4ce3e0a59)" style="fill: #ffffff"/>
   </g>
   <g id="patch_53">
    <path d="M 716.216588 217.317333 
L 776.102844 217.317333 
L 776.102844 255.148444 
L 716.216588 255.148444 
z
" clip-path="url(#pa4ce3e0a59)" style="fill: #ffffff"/>
   </g>
   <g id="patch_54">
    <path d="M 147.297156 65.992889 
L 237.12654 65.992889 
L 237.12654 103.824 
L 147.297156 103.824 
z
" clip-path="url(#pa4ce3e0a59)" style="fill: #ffffff"/>
   </g>
   <g id="patch_55">
    <path d="M 237.12654 65.992889 
L 297.012796 65.992889 
L 297.012796 103.824 
L 237.12654 103.824 
z
" clip-path="url(#pa4ce3e0a59)" style="fill: #ffffff"/>
   </g>
   <g id="patch_56">
    <path d="M 297.012796 65.992889 
L 356.899052 65.992889 
L 356.899052 103.824 
L 297.012796 103.824 
z
" clip-path="url(#pa4ce3e0a59)" style="fill: #ffffff"/>
   </g>
   <g id="patch_57">
    <path d="M 356.899052 65.992889 
L 416.785308 65.992889 
L 416.785308 103.824 
L 356.899052 103.824 
z
" clip-path="url(#pa4ce3e0a59)" style="fill: #ffffff"/>
   </g>
   <g id="patch_58">
    <path d="M 416.785308 65.992889 
L 476.671564 65.992889 
L 476.671564 103.824 
L 416.785308 103.824 
z
" clip-path="url(#pa4ce3e0a59)" style="fill: #ffffff"/>
   </g>
   <g id="patch_59">
    <path d="M 476.671564 65.992889 
L 536.55782 65.992889 
L 536.55782 103.824 
L 476.671564 103.824 
z
" clip-path="url(#pa4ce3e0a59)" style="fill: #ffffff"/>
   </g>
   <g id="patch_60">
    <path d="M 536.55782 65.992889 
L 596.444076 65.992889 
L 596.444076 103.824 
L 536.55782 103.824 
z
" clip-path="url(#pa4ce3e0a59)" style="fill: #ffffff"/>
   </g>
   <g id="patch_61">
    <path d="M 596.444076 65.992889 
L 656.330332 65.992889 
L 656.330332 103.824 
L 596.444076 103.824 
z
" clip-path="url(#pa4ce3e0a59)" style="fill: #ffffff"/>
   </g>
   <g id="patch_62">
    <path d="M 656.330332 65.992889 
L 716.216588 65.992889 
L 716.216588 103.824 
L 656.330332 103.824 
z
" clip-path="url(#pa4ce3e0a59)" style="fill: #ffffff"/>
   </g>
   <g id="patch_63">
    <path d="M 716.216588 65.992889 
L 776.102844 65.992889 
L 776.102844 103.824 
L 716.216588 103.824 
z
" clip-path="url(#pa4ce3e0a59)" style="fill: #ffffff"/>
   </g>
   <g id="patch_64">
    <path d="M 237.12654 65.992889 
L 297.012796 65.992889 
L 297.012796 103.824 
L 237.12654 103.824 
z
" clip-path="url(#pa4ce3e0a59)" style="fill: #ffffff"/>
   </g>
   <g id="patch_65">
    <path d="M 297.012796 65.992889 
L 596.444076 65.992889 
L 596.444076 103.824 
L 297.012796 103.824 
z
" clip-path="url(#pa4ce3e0a59)" style="fill: #ffffff"/>
   </g>
   <g id="patch_66">
    <path d="M 596.444076 65.992889 
L 776.102844 65.992889 
L 776.102844 103.824 
L 596.444076 103.824 
z
" clip-path="url(#pa4ce3e0a59)" style="fill: #ffffff"/>
   </g>
   <g id="patch_67">
    <path d="M 596.444076 103.824 
L 656.330332 103.824 
L 656.330332 141.655111 
L 596.444076 141.655111 
z
" clip-path="url(#pa4ce3e0a59)" style="fill: #ffffff"/>
   </g>
   <g id="patch_68">
    <path d="M 656.330332 103.824 
L 716.216588 103.824 
L 716.216588 141.655111 
L 656.330332 141.655111 
z
" clip-path="url(#pa4ce3e0a59)" style="fill: #ffffff"/>
   </g>
   <g id="patch_69">
    <path d="M 716.216588 103.824 
L 776.102844 103.824 
L 776.102844 141.655111 
L 716.216588 141.655111 
z
" clip-path="url(#pa4ce3e0a59)" style="fill: #ffffff"/>
   </g>
   <g id="patch_70">
    <path d="M 596.444076 141.655111 
L 656.330332 141.655111 
L 656.330332 179.486222 
L 596.444076 179.486222 
z
" clip-path="url(#pa4ce3e0a59)" style="fill: #ffffff"/>
   </g>
   <g id="patch_71">
    <path d="M 656.330332 141.655111 
L 716.216588 141.655111 
L 716.216588 179.486222 
L 656.330332 179.486222 
z
" clip-path="url(#pa4ce3e0a59)" style="fill: #ffffff"/>
   </g>
   <g id="patch_72">
    <path d="M 716.216588 141.655111 
L 776.102844 141.655111 
L 776.102844 179.486222 
L 716.216588 179.486222 
z
" clip-path="url(#pa4ce3e0a59)" style="fill: #ffffff"/>
   </g>
   <g id="patch_73">
    <path d="M 596.444076 179.486222 
L 656.330332 179.486222 
L 656.330332 217.317333 
L 596.444076 217.317333 
z
" clip-path="url(#pa4ce3e0a59)" style="fill: #ffffff"/>
   </g>
   <g id="patch_74">
    <path d="M 656.330332 179.486222 
L 716.216588 179.486222 
L 716.216588 217.317333 
L 656.330332 217.317333 
z
" clip-path="url(#pa4ce3e0a59)" style="fill: #ffffff"/>
   </g>
   <g id="patch_75">
    <path d="M 716.216588 179.486222 
L 776.102844 179.486222 
L 776.102844 217.317333 
L 716.216588 217.317333 
z
" clip-path="url(#pa4ce3e0a59)" style="fill: #ffffff"/>
   </g>
   <g id="patch_76">
    <path d="M 596.444076 217.317333 
L 656.330332 217.317333 
L 656.330332 255.148444 
L 596.444076 255.148444 
z
" clip-path="url(#pa4ce3e0a59)" style="fill: #ffffff"/>
   </g>
   <g id="patch_77">
    <path d="M 656.330332 217.317333 
L 716.216588 217.317333 
L 716.216588 255.148444 
L 656.330332 255.148444 
z
" clip-path="url(#pa4ce3e0a59)" style="fill: #ffffff"/>
   </g>
   <g id="patch_78">
    <path d="M 716.216588 217.317333 
L 776.102844 217.317333 
L 776.102844 255.148444 
L 716.216588 255.148444 
z
" clip-path="url(#pa4ce3e0a59)" style="fill: #ffffff"/>
   </g>
   <g id="line2d_1">
    <path d="M 240.120853 65.992889 
L 294.018483 65.992889 
" clip-path="url(#pa4ce3e0a59)" style="fill: none; stroke: #000000; stroke-width: 0.2; stroke-linecap: square"/>
   </g>
   <g id="line2d_2">
    <path d="M 311.98436 65.992889 
L 581.472512 65.992889 
" clip-path="url(#pa4ce3e0a59)" style="fill: none; stroke: #000000; stroke-width: 0.2; stroke-linecap: square"/>
   </g>
   <g id="line2d_3">
    <path d="M 605.427014 65.992889 
L 767.119905 65.992889 
" clip-path="url(#pa4ce3e0a59)" style="fill: none; stroke: #000000; stroke-width: 0.2; stroke-linecap: square"/>
   </g>
   <g id="line2d_4">
    <path d="M 147.297156 103.824 
L 776.102844 103.824 
" clip-path="url(#pa4ce3e0a59)" style="fill: none; stroke: #000000; stroke-linecap: square"/>
   </g>
   <g id="line2d_5">
    <path d="M 147.297156 255.148444 
L 776.102844 255.148444 
" clip-path="url(#pa4ce3e0a59)" style="fill: none; stroke: #000000; stroke-linecap: square"/>
   </g>
   <g id="line2d_6">
    <path d="M 147.297156 141.655111 
L 776.102844 141.655111 
" clip-path="url(#pa4ce3e0a59)" style="fill: none; stroke-dasharray: 1,5; stroke-dashoffset: 0; stroke: #000000"/>
   </g>
   <g id="line2d_7">
    <path d="M 147.297156 179.486222 
L 776.102844 179.486222 
" clip-path="url(#pa4ce3e0a59)" style="fill: none; stroke-dasharray: 1,5; stroke-dashoffset: 0; stroke: #000000"/>
   </g>
   <g id="line2d_8">
    <path d="M 147.297156 217.317333 
L 776.102844 217.317333 
" clip-path="url(#pa4ce3e0a59)" style="fill: none; stroke-dasharray: 1,5; stroke-dashoffset: 0; stroke: #000000"/>
   </g>
   <g id="line2d_9">
    <path d="M 596.444076 103.824 
L 596.444076 255.148444 
" clip-path="url(#pa4ce3e0a59)" style="fill: none; stroke: #000000; stroke-linecap: square"/>
   </g>
   <g id="text_1">
    <!-- X_scVI -->
    <g transform="translate(156.280095 125.220806) scale(0.1 -0.1)">
     <defs>
      <path id="DejaVuSans-Bold-58" d="M 3188 2381 
L 4806 0 
L 3553 0 
L 2463 1594 
L 1381 0 
L 122 0 
L 1741 2381 
L 184 4666 
L 1441 4666 
L 2463 3163 
L 3481 4666 
L 4744 4666 
L 3188 2381 
z
" transform="scale(0.015625)"/>
      <path id="DejaVuSans-Bold-5f" d="M 3200 -916 
L 3200 -1509 
L 0 -1509 
L 0 -916 
L 3200 -916 
z
" transform="scale(0.015625)"/>
      <path id="DejaVuSans-Bold-73" d="M 3272 3391 
L 3272 2541 
Q 2913 2691 2578 2766 
Q 2244 2841 1947 2841 
Q 1628 2841 1473 2761 
Q 1319 2681 1319 2516 
Q 1319 2381 1436 2309 
Q 1553 2238 1856 2203 
L 2053 2175 
Q 2913 2066 3209 1816 
Q 3506 1566 3506 1031 
Q 3506 472 3093 190 
Q 2681 -91 1863 -91 
Q 1516 -91 1145 -36 
Q 775 19 384 128 
L 384 978 
Q 719 816 1070 734 
Q 1422 653 1784 653 
Q 2113 653 2278 743 
Q 2444 834 2444 1013 
Q 2444 1163 2330 1236 
Q 2216 1309 1875 1350 
L 1678 1375 
Q 931 1469 631 1722 
Q 331 1975 331 2491 
Q 331 3047 712 3315 
Q 1094 3584 1881 3584 
Q 2191 3584 2531 3537 
Q 2872 3491 3272 3391 
z
" transform="scale(0.015625)"/>
      <path id="DejaVuSans-Bold-63" d="M 3366 3391 
L 3366 2478 
Q 3138 2634 2908 2709 
Q 2678 2784 2431 2784 
Q 1963 2784 1702 2511 
Q 1441 2238 1441 1747 
Q 1441 1256 1702 982 
Q 1963 709 2431 709 
Q 2694 709 2930 787 
Q 3166 866 3366 1019 
L 3366 103 
Q 3103 6 2833 -42 
Q 2563 -91 2291 -91 
Q 1344 -91 809 395 
Q 275 881 275 1747 
Q 275 2613 809 3098 
Q 1344 3584 2291 3584 
Q 2566 3584 2833 3536 
Q 3100 3488 3366 3391 
z
" transform="scale(0.015625)"/>
      <path id="DejaVuSans-Bold-56" d="M 31 4666 
L 1241 4666 
L 2478 1222 
L 3713 4666 
L 4922 4666 
L 3194 0 
L 1759 0 
L 31 4666 
z
" transform="scale(0.015625)"/>
      <path id="DejaVuSans-Bold-49" d="M 588 4666 
L 1791 4666 
L 1791 0 
L 588 0 
L 588 4666 
z
" transform="scale(0.015625)"/>
     </defs>
     <use xlink:href="#DejaVuSans-Bold-58"/>
     <use xlink:href="#DejaVuSans-Bold-5f" x="77.099609"/>
     <use xlink:href="#DejaVuSans-Bold-73" x="127.099609"/>
     <use xlink:href="#DejaVuSans-Bold-63" x="186.621094"/>
     <use xlink:href="#DejaVuSans-Bold-56" x="245.898438"/>
     <use xlink:href="#DejaVuSans-Bold-49" x="323.291016"/>
    </g>
   </g>
   <g id="text_2">
    <g id="patch_79">
     <path d="M 267.069668 136.372368 
C 270.685132 136.372368 274.153003 134.935929 276.709522 132.37941 
C 279.266042 129.822891 280.702481 126.35502 280.702481 122.739556 
C 280.702481 119.124091 279.266042 115.656221 276.709522 113.099701 
C 274.153003 110.543182 270.685132 109.106743 267.069668 109.106743 
C 263.454204 109.106743 259.986333 110.543182 257.429814 113.099701 
C 254.873295 115.656221 253.436856 119.124091 253.436856 122.739556 
C 253.436856 126.35502 254.873295 129.822891 257.429814 132.37941 
C 259.986333 134.935929 263.454204 136.372368 267.069668 136.372368 
z
" style="fill: #a783b8; stroke: #a783b8; stroke-linejoin: miter"/>
    </g>
    <!-- 1.00 -->
    <g style="fill: #ffffff" transform="translate(255.936856 125.498931) scale(0.1 -0.1)">
     <defs>
      <path id="DejaVuSans-31" d="M 794 531 
L 1825 531 
L 1825 4091 
L 703 3866 
L 703 4441 
L 1819 4666 
L 2450 4666 
L 2450 531 
L 3481 531 
L 3481 0 
L 794 0 
L 794 531 
z
" transform="scale(0.015625)"/>
      <path id="DejaVuSans-2e" d="M 684 794 
L 1344 794 
L 1344 0 
L 684 0 
L 684 794 
z
" transform="scale(0.015625)"/>
      <path id="DejaVuSans-30" d="M 2034 4250 
Q 1547 4250 1301 3770 
Q 1056 3291 1056 2328 
Q 1056 1369 1301 889 
Q 1547 409 2034 409 
Q 2525 409 2770 889 
Q 3016 1369 3016 2328 
Q 3016 3291 2770 3770 
Q 2525 4250 2034 4250 
z
M 2034 4750 
Q 2819 4750 3233 4129 
Q 3647 3509 3647 2328 
Q 3647 1150 3233 529 
Q 2819 -91 2034 -91 
Q 1250 -91 836 529 
Q 422 1150 422 2328 
Q 422 3509 836 4129 
Q 1250 4750 2034 4750 
z
" transform="scale(0.015625)"/>
     </defs>
     <use xlink:href="#DejaVuSans-31"/>
     <use xlink:href="#DejaVuSans-2e" x="63.623047"/>
     <use xlink:href="#DejaVuSans-30" x="95.410156"/>
     <use xlink:href="#DejaVuSans-30" x="159.033203"/>
    </g>
   </g>
   <g id="text_3">
    <g id="patch_80">
     <path d="M 326.955924 136.372368 
C 330.571388 136.372368 334.039259 134.935929 336.595778 132.37941 
C 339.152298 129.822891 340.588737 126.35502 340.588737 122.739556 
C 340.588737 119.124091 339.152298 115.656221 336.595778 113.099701 
C 334.039259 110.543182 330.571388 109.106743 326.955924 109.106743 
C 323.34046 109.106743 319.872589 110.543182 317.31607 113.099701 
C 314.759551 115.656221 313.323112 119.124091 313.323112 122.739556 
C 313.323112 126.35502 314.759551 129.822891 317.31607 132.37941 
C 319.872589 134.935929 323.34046 136.372368 326.955924 136.372368 
z
" style="fill: #f2f6f1; stroke: #f2f6f1; stroke-linejoin: miter"/>
    </g>
    <!-- 0.78 -->
    <g transform="translate(315.823112 125.498931) scale(0.1 -0.1)">
     <defs>
      <path id="DejaVuSans-37" d="M 525 4666 
L 3525 4666 
L 3525 4397 
L 1831 0 
L 1172 0 
L 2766 4134 
L 525 4134 
L 525 4666 
z
" transform="scale(0.015625)"/>
      <path id="DejaVuSans-38" d="M 2034 2216 
Q 1584 2216 1326 1975 
Q 1069 1734 1069 1313 
Q 1069 891 1326 650 
Q 1584 409 2034 409 
Q 2484 409 2743 651 
Q 3003 894 3003 1313 
Q 3003 1734 2745 1975 
Q 2488 2216 2034 2216 
z
M 1403 2484 
Q 997 2584 770 2862 
Q 544 3141 544 3541 
Q 544 4100 942 4425 
Q 1341 4750 2034 4750 
Q 2731 4750 3128 4425 
Q 3525 4100 3525 3541 
Q 3525 3141 3298 2862 
Q 3072 2584 2669 2484 
Q 3125 2378 3379 2068 
Q 3634 1759 3634 1313 
Q 3634 634 3220 271 
Q 2806 -91 2034 -91 
Q 1263 -91 848 271 
Q 434 634 434 1313 
Q 434 1759 690 2068 
Q 947 2378 1403 2484 
z
M 1172 3481 
Q 1172 3119 1398 2916 
Q 1625 2713 2034 2713 
Q 2441 2713 2670 2916 
Q 2900 3119 2900 3481 
Q 2900 3844 2670 4047 
Q 2441 4250 2034 4250 
Q 1625 4250 1398 4047 
Q 1172 3844 1172 3481 
z
" transform="scale(0.015625)"/>
     </defs>
     <use xlink:href="#DejaVuSans-30"/>
     <use xlink:href="#DejaVuSans-2e" x="63.623047"/>
     <use xlink:href="#DejaVuSans-37" x="95.410156"/>
     <use xlink:href="#DejaVuSans-38" x="159.033203"/>
    </g>
   </g>
   <g id="text_4">
    <g id="patch_81">
     <path d="M 386.84218 136.372368 
C 390.457644 136.372368 393.925515 134.935929 396.482034 132.37941 
C 399.038553 129.822891 400.474993 126.35502 400.474993 122.739556 
C 400.474993 119.124091 399.038553 115.656221 396.482034 113.099701 
C 393.925515 110.543182 390.457644 109.106743 386.84218 109.106743 
C 383.226716 109.106743 379.758845 110.543182 377.202326 113.099701 
C 374.645807 115.656221 373.209368 119.124091 373.209368 122.739556 
C 373.209368 126.35502 374.645807 129.822891 377.202326 132.37941 
C 379.758845 134.935929 383.226716 136.372368 386.84218 136.372368 
z
" style="fill: #abdda5; stroke: #abdda5; stroke-linejoin: miter"/>
    </g>
    <!-- 0.04 -->
    <g transform="translate(375.709368 125.498931) scale(0.1 -0.1)">
     <defs>
      <path id="DejaVuSans-34" d="M 2419 4116 
L 825 1625 
L 2419 1625 
L 2419 4116 
z
M 2253 4666 
L 3047 4666 
L 3047 1625 
L 3713 1625 
L 3713 1100 
L 3047 1100 
L 3047 0 
L 2419 0 
L 2419 1100 
L 313 1100 
L 313 1709 
L 2253 4666 
z
" transform="scale(0.015625)"/>
     </defs>
     <use xlink:href="#DejaVuSans-30"/>
     <use xlink:href="#DejaVuSans-2e" x="63.623047"/>
     <use xlink:href="#DejaVuSans-30" x="95.410156"/>
     <use xlink:href="#DejaVuSans-34" x="159.033203"/>
    </g>
   </g>
   <g id="text_5">
    <g id="patch_82">
     <path d="M 446.728436 136.372368 
C 450.3439 136.372368 453.811771 134.935929 456.36829 132.37941 
C 458.924809 129.822891 460.361249 126.35502 460.361249 122.739556 
C 460.361249 119.124091 458.924809 115.656221 456.36829 113.099701 
C 453.811771 110.543182 450.3439 109.106743 446.728436 109.106743 
C 443.112972 109.106743 439.645101 110.543182 437.088582 113.099701 
C 434.532063 115.656221 433.095624 119.124091 433.095624 122.739556 
C 433.095624 126.35502 434.532063 129.822891 437.088582 132.37941 
C 439.645101 134.935929 443.112972 136.372368 446.728436 136.372368 
z
" style="fill: #bbe4b5; stroke: #bbe4b5; stroke-linejoin: miter"/>
    </g>
    <!-- 0.22 -->
    <g transform="translate(435.595624 125.498931) scale(0.1 -0.1)">
     <defs>
      <path id="DejaVuSans-32" d="M 1228 531 
L 3431 531 
L 3431 0 
L 469 0 
L 469 531 
Q 828 903 1448 1529 
Q 2069 2156 2228 2338 
Q 2531 2678 2651 2914 
Q 2772 3150 2772 3378 
Q 2772 3750 2511 3984 
Q 2250 4219 1831 4219 
Q 1534 4219 1204 4116 
Q 875 4013 500 3803 
L 500 4441 
Q 881 4594 1212 4672 
Q 1544 4750 1819 4750 
Q 2544 4750 2975 4387 
Q 3406 4025 3406 3419 
Q 3406 3131 3298 2873 
Q 3191 2616 2906 2266 
Q 2828 2175 2409 1742 
Q 1991 1309 1228 531 
z
" transform="scale(0.015625)"/>
     </defs>
     <use xlink:href="#DejaVuSans-30"/>
     <use xlink:href="#DejaVuSans-2e" x="63.623047"/>
     <use xlink:href="#DejaVuSans-32" x="95.410156"/>
     <use xlink:href="#DejaVuSans-32" x="159.033203"/>
    </g>
   </g>
   <g id="text_6">
    <g id="patch_83">
     <path d="M 506.614692 136.372368 
C 510.230156 136.372368 513.698027 134.935929 516.254546 132.37941 
C 518.811065 129.822891 520.247504 126.35502 520.247504 122.739556 
C 520.247504 119.124091 518.811065 115.656221 516.254546 113.099701 
C 513.698027 110.543182 510.230156 109.106743 506.614692 109.106743 
C 502.999228 109.106743 499.531357 110.543182 496.974838 113.099701 
C 494.418319 115.656221 492.981879 119.124091 492.981879 122.739556 
C 492.981879 126.35502 494.418319 129.822891 496.974838 132.37941 
C 499.531357 134.935929 502.999228 136.372368 506.614692 136.372368 
z
" style="fill: #f5f4f6; stroke: #f5f4f6; stroke-linejoin: miter"/>
    </g>
    <!-- 0.63 -->
    <g transform="translate(495.481879 125.498931) scale(0.1 -0.1)">
     <defs>
      <path id="DejaVuSans-36" d="M 2113 2584 
Q 1688 2584 1439 2293 
Q 1191 2003 1191 1497 
Q 1191 994 1439 701 
Q 1688 409 2113 409 
Q 2538 409 2786 701 
Q 3034 994 3034 1497 
Q 3034 2003 2786 2293 
Q 2538 2584 2113 2584 
z
M 3366 4563 
L 3366 3988 
Q 3128 4100 2886 4159 
Q 2644 4219 2406 4219 
Q 1781 4219 1451 3797 
Q 1122 3375 1075 2522 
Q 1259 2794 1537 2939 
Q 1816 3084 2150 3084 
Q 2853 3084 3261 2657 
Q 3669 2231 3669 1497 
Q 3669 778 3244 343 
Q 2819 -91 2113 -91 
Q 1303 -91 875 529 
Q 447 1150 447 2328 
Q 447 3434 972 4092 
Q 1497 4750 2381 4750 
Q 2619 4750 2861 4703 
Q 3103 4656 3366 4563 
z
" transform="scale(0.015625)"/>
      <path id="DejaVuSans-33" d="M 2597 2516 
Q 3050 2419 3304 2112 
Q 3559 1806 3559 1356 
Q 3559 666 3084 287 
Q 2609 -91 1734 -91 
Q 1441 -91 1130 -33 
Q 819 25 488 141 
L 488 750 
Q 750 597 1062 519 
Q 1375 441 1716 441 
Q 2309 441 2620 675 
Q 2931 909 2931 1356 
Q 2931 1769 2642 2001 
Q 2353 2234 1838 2234 
L 1294 2234 
L 1294 2753 
L 1863 2753 
Q 2328 2753 2575 2939 
Q 2822 3125 2822 3475 
Q 2822 3834 2567 4026 
Q 2313 4219 1838 4219 
Q 1578 4219 1281 4162 
Q 984 4106 628 3988 
L 628 4550 
Q 988 4650 1302 4700 
Q 1616 4750 1894 4750 
Q 2613 4750 3031 4423 
Q 3450 4097 3450 3541 
Q 3450 3153 3228 2886 
Q 3006 2619 2597 2516 
z
" transform="scale(0.015625)"/>
     </defs>
     <use xlink:href="#DejaVuSans-30"/>
     <use xlink:href="#DejaVuSans-2e" x="63.623047"/>
     <use xlink:href="#DejaVuSans-36" x="95.410156"/>
     <use xlink:href="#DejaVuSans-33" x="159.033203"/>
    </g>
   </g>
   <g id="text_7">
    <g id="patch_84">
     <path d="M 566.500948 136.372368 
C 570.116412 136.372368 573.584283 134.935929 576.140802 132.37941 
C 578.697321 129.822891 580.13376 126.35502 580.13376 122.739556 
C 580.13376 119.124091 578.697321 115.656221 576.140802 113.099701 
C 573.584283 110.543182 570.116412 109.106743 566.500948 109.106743 
C 562.885484 109.106743 559.417613 110.543182 556.861094 113.099701 
C 554.304574 115.656221 552.868135 119.124091 552.868135 122.739556 
C 552.868135 126.35502 554.304574 129.822891 556.861094 132.37941 
C 559.417613 134.935929 562.885484 136.372368 566.500948 136.372368 
z
" style="fill: #d3eecd; stroke: #d3eecd; stroke-linejoin: miter"/>
    </g>
    <!-- 0.42 -->
    <g transform="translate(555.368135 125.498931) scale(0.1 -0.1)">
     <use xlink:href="#DejaVuSans-30"/>
     <use xlink:href="#DejaVuSans-2e" x="63.623047"/>
     <use xlink:href="#DejaVuSans-34" x="95.410156"/>
     <use xlink:href="#DejaVuSans-32" x="159.033203"/>
    </g>
   </g>
   <g id="text_8">
    <!-- X_pca_harmony -->
    <g transform="translate(156.280095 163.190979) scale(0.1 -0.1)">
     <defs>
      <path id="DejaVuSans-Bold-70" d="M 1656 506 
L 1656 -1331 
L 538 -1331 
L 538 3500 
L 1656 3500 
L 1656 2988 
Q 1888 3294 2169 3439 
Q 2450 3584 2816 3584 
Q 3463 3584 3878 3070 
Q 4294 2556 4294 1747 
Q 4294 938 3878 423 
Q 3463 -91 2816 -91 
Q 2450 -91 2169 54 
Q 1888 200 1656 506 
z
M 2400 2772 
Q 2041 2772 1848 2508 
Q 1656 2244 1656 1747 
Q 1656 1250 1848 986 
Q 2041 722 2400 722 
Q 2759 722 2948 984 
Q 3138 1247 3138 1747 
Q 3138 2247 2948 2509 
Q 2759 2772 2400 2772 
z
" transform="scale(0.015625)"/>
      <path id="DejaVuSans-Bold-61" d="M 2106 1575 
Q 1756 1575 1579 1456 
Q 1403 1338 1403 1106 
Q 1403 894 1545 773 
Q 1688 653 1941 653 
Q 2256 653 2472 879 
Q 2688 1106 2688 1447 
L 2688 1575 
L 2106 1575 
z
M 3816 1997 
L 3816 0 
L 2688 0 
L 2688 519 
Q 2463 200 2181 54 
Q 1900 -91 1497 -91 
Q 953 -91 614 226 
Q 275 544 275 1050 
Q 275 1666 698 1953 
Q 1122 2241 2028 2241 
L 2688 2241 
L 2688 2328 
Q 2688 2594 2478 2717 
Q 2269 2841 1825 2841 
Q 1466 2841 1156 2769 
Q 847 2697 581 2553 
L 581 3406 
Q 941 3494 1303 3539 
Q 1666 3584 2028 3584 
Q 2975 3584 3395 3211 
Q 3816 2838 3816 1997 
z
" transform="scale(0.015625)"/>
      <path id="DejaVuSans-Bold-68" d="M 4056 2131 
L 4056 0 
L 2931 0 
L 2931 347 
L 2931 1625 
Q 2931 2084 2911 2256 
Q 2891 2428 2841 2509 
Q 2775 2619 2662 2680 
Q 2550 2741 2406 2741 
Q 2056 2741 1856 2470 
Q 1656 2200 1656 1722 
L 1656 0 
L 538 0 
L 538 4863 
L 1656 4863 
L 1656 2988 
Q 1909 3294 2193 3439 
Q 2478 3584 2822 3584 
Q 3428 3584 3742 3212 
Q 4056 2841 4056 2131 
z
" transform="scale(0.015625)"/>
      <path id="DejaVuSans-Bold-72" d="M 3138 2547 
Q 2991 2616 2845 2648 
Q 2700 2681 2553 2681 
Q 2122 2681 1889 2404 
Q 1656 2128 1656 1613 
L 1656 0 
L 538 0 
L 538 3500 
L 1656 3500 
L 1656 2925 
Q 1872 3269 2151 3426 
Q 2431 3584 2822 3584 
Q 2878 3584 2943 3579 
Q 3009 3575 3134 3559 
L 3138 2547 
z
" transform="scale(0.015625)"/>
      <path id="DejaVuSans-Bold-6d" d="M 3781 2919 
Q 3994 3244 4286 3414 
Q 4578 3584 4928 3584 
Q 5531 3584 5847 3212 
Q 6163 2841 6163 2131 
L 6163 0 
L 5038 0 
L 5038 1825 
Q 5041 1866 5042 1909 
Q 5044 1953 5044 2034 
Q 5044 2406 4934 2573 
Q 4825 2741 4581 2741 
Q 4263 2741 4089 2478 
Q 3916 2216 3909 1719 
L 3909 0 
L 2784 0 
L 2784 1825 
Q 2784 2406 2684 2573 
Q 2584 2741 2328 2741 
Q 2006 2741 1831 2477 
Q 1656 2213 1656 1722 
L 1656 0 
L 531 0 
L 531 3500 
L 1656 3500 
L 1656 2988 
Q 1863 3284 2130 3434 
Q 2397 3584 2719 3584 
Q 3081 3584 3359 3409 
Q 3638 3234 3781 2919 
z
" transform="scale(0.015625)"/>
      <path id="DejaVuSans-Bold-6f" d="M 2203 2784 
Q 1831 2784 1636 2517 
Q 1441 2250 1441 1747 
Q 1441 1244 1636 976 
Q 1831 709 2203 709 
Q 2569 709 2762 976 
Q 2956 1244 2956 1747 
Q 2956 2250 2762 2517 
Q 2569 2784 2203 2784 
z
M 2203 3584 
Q 3106 3584 3614 3096 
Q 4122 2609 4122 1747 
Q 4122 884 3614 396 
Q 3106 -91 2203 -91 
Q 1297 -91 786 396 
Q 275 884 275 1747 
Q 275 2609 786 3096 
Q 1297 3584 2203 3584 
z
" transform="scale(0.015625)"/>
      <path id="DejaVuSans-Bold-6e" d="M 4056 2131 
L 4056 0 
L 2931 0 
L 2931 347 
L 2931 1631 
Q 2931 2084 2911 2256 
Q 2891 2428 2841 2509 
Q 2775 2619 2662 2680 
Q 2550 2741 2406 2741 
Q 2056 2741 1856 2470 
Q 1656 2200 1656 1722 
L 1656 0 
L 538 0 
L 538 3500 
L 1656 3500 
L 1656 2988 
Q 1909 3294 2193 3439 
Q 2478 3584 2822 3584 
Q 3428 3584 3742 3212 
Q 4056 2841 4056 2131 
z
" transform="scale(0.015625)"/>
      <path id="DejaVuSans-Bold-79" d="M 78 3500 
L 1197 3500 
L 2138 1125 
L 2938 3500 
L 4056 3500 
L 2584 -331 
Q 2363 -916 2067 -1148 
Q 1772 -1381 1288 -1381 
L 641 -1381 
L 641 -647 
L 991 -647 
Q 1275 -647 1404 -556 
Q 1534 -466 1606 -231 
L 1638 -134 
L 78 3500 
z
" transform="scale(0.015625)"/>
     </defs>
     <use xlink:href="#DejaVuSans-Bold-58"/>
     <use xlink:href="#DejaVuSans-Bold-5f" x="77.099609"/>
     <use xlink:href="#DejaVuSans-Bold-70" x="127.099609"/>
     <use xlink:href="#DejaVuSans-Bold-63" x="198.681641"/>
     <use xlink:href="#DejaVuSans-Bold-61" x="257.958984"/>
     <use xlink:href="#DejaVuSans-Bold-5f" x="325.439453"/>
     <use xlink:href="#DejaVuSans-Bold-68" x="375.439453"/>
     <use xlink:href="#DejaVuSans-Bold-61" x="446.630859"/>
     <use xlink:href="#DejaVuSans-Bold-72" x="514.111328"/>
     <use xlink:href="#DejaVuSans-Bold-6d" x="563.427734"/>
     <use xlink:href="#DejaVuSans-Bold-6f" x="667.626953"/>
     <use xlink:href="#DejaVuSans-Bold-6e" x="736.328125"/>
     <use xlink:href="#DejaVuSans-Bold-79" x="807.519531"/>
    </g>
   </g>
   <g id="text_9">
    <g id="patch_85">
     <path d="M 267.069668 174.203479 
C 270.685132 174.203479 274.153003 172.76704 276.709522 170.210521 
C 279.266042 167.654002 280.702481 164.186131 280.702481 160.570667 
C 280.702481 156.955203 279.266042 153.487332 276.709522 150.930813 
C 274.153003 148.374293 270.685132 146.937854 267.069668 146.937854 
C 263.454204 146.937854 259.986333 148.374293 257.429814 150.930813 
C 254.873295 153.487332 253.436856 156.955203 253.436856 160.570667 
C 253.436856 164.186131 254.873295 167.654002 257.429814 170.210521 
C 259.986333 172.76704 263.454204 174.203479 267.069668 174.203479 
z
" style="fill: #b5e1af; stroke: #b5e1af; stroke-linejoin: miter"/>
    </g>
    <!-- 1.00 -->
    <g transform="translate(255.936856 163.330042) scale(0.1 -0.1)">
     <use xlink:href="#DejaVuSans-31"/>
     <use xlink:href="#DejaVuSans-2e" x="63.623047"/>
     <use xlink:href="#DejaVuSans-30" x="95.410156"/>
     <use xlink:href="#DejaVuSans-30" x="159.033203"/>
    </g>
   </g>
   <g id="text_10">
    <g id="patch_86">
     <path d="M 326.955924 174.203479 
C 330.571388 174.203479 334.039259 172.76704 336.595778 170.210521 
C 339.152298 167.654002 340.588737 164.186131 340.588737 160.570667 
C 340.588737 156.955203 339.152298 153.487332 336.595778 150.930813 
C 334.039259 148.374293 330.571388 146.937854 326.955924 146.937854 
C 323.34046 146.937854 319.872589 148.374293 317.31607 150.930813 
C 314.759551 153.487332 313.323112 156.955203 313.323112 160.570667 
C 313.323112 164.186131 314.759551 167.654002 317.31607 170.210521 
C 319.872589 172.76704 323.34046 174.203479 326.955924 174.203479 
z
" style="fill: #c7e9c1; stroke: #c7e9c1; stroke-linejoin: miter"/>
    </g>
    <!-- 0.80 -->
    <g transform="translate(315.823112 163.330042) scale(0.1 -0.1)">
     <use xlink:href="#DejaVuSans-30"/>
     <use xlink:href="#DejaVuSans-2e" x="63.623047"/>
     <use xlink:href="#DejaVuSans-38" x="95.410156"/>
     <use xlink:href="#DejaVuSans-30" x="159.033203"/>
    </g>
   </g>
   <g id="text_11">
    <g id="patch_87">
     <path d="M 386.84218 174.203479 
C 390.457644 174.203479 393.925515 172.76704 396.482034 170.210521 
C 399.038553 167.654002 400.474993 164.186131 400.474993 160.570667 
C 400.474993 156.955203 399.038553 153.487332 396.482034 150.930813 
C 393.925515 148.374293 390.457644 146.937854 386.84218 146.937854 
C 383.226716 146.937854 379.758845 148.374293 377.202326 150.930813 
C 374.645807 153.487332 373.209368 156.955203 373.209368 160.570667 
C 373.209368 164.186131 374.645807 167.654002 377.202326 170.210521 
C 379.758845 172.76704 383.226716 174.203479 386.84218 174.203479 
z
" style="fill: #caafd4; stroke: #caafd4; stroke-linejoin: miter"/>
    </g>
    <!-- 0.01 -->
    <g transform="translate(375.709368 163.330042) scale(0.1 -0.1)">
     <use xlink:href="#DejaVuSans-30"/>
     <use xlink:href="#DejaVuSans-2e" x="63.623047"/>
     <use xlink:href="#DejaVuSans-30" x="95.410156"/>
     <use xlink:href="#DejaVuSans-31" x="159.033203"/>
    </g>
   </g>
   <g id="text_12">
    <g id="patch_88">
     <path d="M 446.728436 174.203479 
C 450.3439 174.203479 453.811771 172.76704 456.36829 170.210521 
C 458.924809 167.654002 460.361249 164.186131 460.361249 160.570667 
C 460.361249 156.955203 458.924809 153.487332 456.36829 150.930813 
C 453.811771 148.374293 450.3439 146.937854 446.728436 146.937854 
C 443.112972 146.937854 439.645101 148.374293 437.088582 150.930813 
C 434.532063 153.487332 433.095624 156.955203 433.095624 160.570667 
C 433.095624 164.186131 434.532063 167.654002 437.088582 170.210521 
C 439.645101 172.76704 443.112972 174.203479 446.728436 174.203479 
z
" style="fill: #f1eaf1; stroke: #f1eaf1; stroke-linejoin: miter"/>
    </g>
    <!-- 0.19 -->
    <g transform="translate(435.595624 163.330042) scale(0.1 -0.1)">
     <defs>
      <path id="DejaVuSans-39" d="M 703 97 
L 703 672 
Q 941 559 1184 500 
Q 1428 441 1663 441 
Q 2288 441 2617 861 
Q 2947 1281 2994 2138 
Q 2813 1869 2534 1725 
Q 2256 1581 1919 1581 
Q 1219 1581 811 2004 
Q 403 2428 403 3163 
Q 403 3881 828 4315 
Q 1253 4750 1959 4750 
Q 2769 4750 3195 4129 
Q 3622 3509 3622 2328 
Q 3622 1225 3098 567 
Q 2575 -91 1691 -91 
Q 1453 -91 1209 -44 
Q 966 3 703 97 
z
M 1959 2075 
Q 2384 2075 2632 2365 
Q 2881 2656 2881 3163 
Q 2881 3666 2632 3958 
Q 2384 4250 1959 4250 
Q 1534 4250 1286 3958 
Q 1038 3666 1038 3163 
Q 1038 2656 1286 2365 
Q 1534 2075 1959 2075 
z
" transform="scale(0.015625)"/>
     </defs>
     <use xlink:href="#DejaVuSans-30"/>
     <use xlink:href="#DejaVuSans-2e" x="63.623047"/>
     <use xlink:href="#DejaVuSans-31" x="95.410156"/>
     <use xlink:href="#DejaVuSans-39" x="159.033203"/>
    </g>
   </g>
   <g id="text_13">
    <g id="patch_89">
     <path d="M 506.614692 174.203479 
C 510.230156 174.203479 513.698027 172.76704 516.254546 170.210521 
C 518.811065 167.654002 520.247504 164.186131 520.247504 160.570667 
C 520.247504 156.955203 518.811065 153.487332 516.254546 150.930813 
C 513.698027 148.374293 510.230156 146.937854 506.614692 146.937854 
C 502.999228 146.937854 499.531357 148.374293 496.974838 150.930813 
C 494.418319 153.487332 492.981879 156.955203 492.981879 160.570667 
C 492.981879 164.186131 494.418319 167.654002 496.974838 170.210521 
C 499.531357 172.76704 502.999228 174.203479 506.614692 174.203479 
z
" style="fill: #ecf4ea; stroke: #ecf4ea; stroke-linejoin: miter"/>
    </g>
    <!-- 0.65 -->
    <g transform="translate(495.481879 163.330042) scale(0.1 -0.1)">
     <defs>
      <path id="DejaVuSans-35" d="M 691 4666 
L 3169 4666 
L 3169 4134 
L 1269 4134 
L 1269 2991 
Q 1406 3038 1543 3061 
Q 1681 3084 1819 3084 
Q 2600 3084 3056 2656 
Q 3513 2228 3513 1497 
Q 3513 744 3044 326 
Q 2575 -91 1722 -91 
Q 1428 -91 1123 -41 
Q 819 9 494 109 
L 494 744 
Q 775 591 1075 516 
Q 1375 441 1709 441 
Q 2250 441 2565 725 
Q 2881 1009 2881 1497 
Q 2881 1984 2565 2268 
Q 2250 2553 1709 2553 
Q 1456 2553 1204 2497 
Q 953 2441 691 2322 
L 691 4666 
z
" transform="scale(0.015625)"/>
     </defs>
     <use xlink:href="#DejaVuSans-30"/>
     <use xlink:href="#DejaVuSans-2e" x="63.623047"/>
     <use xlink:href="#DejaVuSans-36" x="95.410156"/>
     <use xlink:href="#DejaVuSans-35" x="159.033203"/>
    </g>
   </g>
   <g id="text_14">
    <g id="patch_90">
     <path d="M 566.500948 174.203479 
C 570.116412 174.203479 573.584283 172.76704 576.140802 170.210521 
C 578.697321 167.654002 580.13376 164.186131 580.13376 160.570667 
C 580.13376 156.955203 578.697321 153.487332 576.140802 150.930813 
C 573.584283 148.374293 570.116412 146.937854 566.500948 146.937854 
C 562.885484 146.937854 559.417613 148.374293 556.861094 150.930813 
C 554.304574 153.487332 552.868135 156.955203 552.868135 160.570667 
C 552.868135 164.186131 554.304574 167.654002 556.861094 170.210521 
C 559.417613 172.76704 562.885484 174.203479 566.500948 174.203479 
z
" style="fill: #f3f6f2; stroke: #f3f6f2; stroke-linejoin: miter"/>
    </g>
    <!-- 0.33 -->
    <g transform="translate(555.368135 163.330042) scale(0.1 -0.1)">
     <use xlink:href="#DejaVuSans-30"/>
     <use xlink:href="#DejaVuSans-2e" x="63.623047"/>
     <use xlink:href="#DejaVuSans-33" x="95.410156"/>
     <use xlink:href="#DejaVuSans-33" x="159.033203"/>
    </g>
   </g>
   <g id="text_15">
    <!-- X_scanorama -->
    <g transform="translate(156.280095 200.883028) scale(0.1 -0.1)">
     <use xlink:href="#DejaVuSans-Bold-58"/>
     <use xlink:href="#DejaVuSans-Bold-5f" x="77.099609"/>
     <use xlink:href="#DejaVuSans-Bold-73" x="127.099609"/>
     <use xlink:href="#DejaVuSans-Bold-63" x="186.621094"/>
     <use xlink:href="#DejaVuSans-Bold-61" x="245.898438"/>
     <use xlink:href="#DejaVuSans-Bold-6e" x="313.378906"/>
     <use xlink:href="#DejaVuSans-Bold-6f" x="384.570312"/>
     <use xlink:href="#DejaVuSans-Bold-72" x="453.271484"/>
     <use xlink:href="#DejaVuSans-Bold-61" x="502.587891"/>
     <use xlink:href="#DejaVuSans-Bold-6d" x="570.068359"/>
     <use xlink:href="#DejaVuSans-Bold-61" x="674.267578"/>
    </g>
   </g>
   <g id="text_16">
    <g id="patch_91">
     <path d="M 267.069668 212.03459 
C 270.685132 212.03459 274.153003 210.598151 276.709522 208.041632 
C 279.266042 205.485113 280.702481 202.017242 280.702481 198.401778 
C 280.702481 194.786314 279.266042 191.318443 276.709522 188.761924 
C 274.153003 186.205404 270.685132 184.768965 267.069668 184.768965 
C 263.454204 184.768965 259.986333 186.205404 257.429814 188.761924 
C 254.873295 191.318443 253.436856 194.786314 253.436856 198.401778 
C 253.436856 202.017242 254.873295 205.485113 257.429814 208.041632 
C 259.986333 210.598151 263.454204 212.03459 267.069668 212.03459 
z
" style="fill: #e4d0e6; stroke: #e4d0e6; stroke-linejoin: miter"/>
    </g>
    <!-- 1.00 -->
    <g transform="translate(255.936856 201.161153) scale(0.1 -0.1)">
     <use xlink:href="#DejaVuSans-31"/>
     <use xlink:href="#DejaVuSans-2e" x="63.623047"/>
     <use xlink:href="#DejaVuSans-30" x="95.410156"/>
     <use xlink:href="#DejaVuSans-30" x="159.033203"/>
    </g>
   </g>
   <g id="text_17">
    <g id="patch_92">
     <path d="M 326.955924 212.03459 
C 330.571388 212.03459 334.039259 210.598151 336.595778 208.041632 
C 339.152298 205.485113 340.588737 202.017242 340.588737 198.401778 
C 340.588737 194.786314 339.152298 191.318443 336.595778 188.761924 
C 334.039259 186.205404 330.571388 184.768965 326.955924 184.768965 
C 323.34046 184.768965 319.872589 186.205404 317.31607 188.761924 
C 314.759551 191.318443 313.323112 194.786314 313.323112 198.401778 
C 313.323112 202.017242 314.759551 205.485113 317.31607 208.041632 
C 319.872589 210.598151 323.34046 212.03459 326.955924 212.03459 
z
" style="fill: #f4f1f4; stroke: #f4f1f4; stroke-linejoin: miter"/>
    </g>
    <!-- 0.78 -->
    <g transform="translate(315.823112 201.161153) scale(0.1 -0.1)">
     <use xlink:href="#DejaVuSans-30"/>
     <use xlink:href="#DejaVuSans-2e" x="63.623047"/>
     <use xlink:href="#DejaVuSans-37" x="95.410156"/>
     <use xlink:href="#DejaVuSans-38" x="159.033203"/>
    </g>
   </g>
   <g id="text_18">
    <g id="patch_93">
     <path d="M 386.84218 212.03459 
C 390.457644 212.03459 393.925515 210.598151 396.482034 208.041632 
C 399.038553 205.485113 400.474993 202.017242 400.474993 198.401778 
C 400.474993 194.786314 399.038553 191.318443 396.482034 188.761924 
C 393.925515 186.205404 390.457644 184.768965 386.84218 184.768965 
C 383.226716 184.768965 379.758845 186.205404 377.202326 188.761924 
C 374.645807 191.318443 373.209368 194.786314 373.209368 198.401778 
C 373.209368 202.017242 374.645807 205.485113 377.202326 208.041632 
C 379.758845 210.598151 383.226716 212.03459 386.84218 212.03459 
z
" style="fill: #b9e3b3; stroke: #b9e3b3; stroke-linejoin: miter"/>
    </g>
    <!-- 0.04 -->
    <g transform="translate(375.709368 201.161153) scale(0.1 -0.1)">
     <use xlink:href="#DejaVuSans-30"/>
     <use xlink:href="#DejaVuSans-2e" x="63.623047"/>
     <use xlink:href="#DejaVuSans-30" x="95.410156"/>
     <use xlink:href="#DejaVuSans-34" x="159.033203"/>
    </g>
   </g>
   <g id="text_19">
    <g id="patch_94">
     <path d="M 446.728436 212.03459 
C 450.3439 212.03459 453.811771 210.598151 456.36829 208.041632 
C 458.924809 205.485113 460.361249 202.017242 460.361249 198.401778 
C 460.361249 194.786314 458.924809 191.318443 456.36829 188.761924 
C 453.811771 186.205404 450.3439 184.768965 446.728436 184.768965 
C 443.112972 184.768965 439.645101 186.205404 437.088582 188.761924 
C 434.532063 191.318443 433.095624 194.786314 433.095624 198.401778 
C 433.095624 202.017242 434.532063 205.485113 437.088582 208.041632 
C 439.645101 210.598151 443.112972 212.03459 446.728436 212.03459 
z
" style="fill: #ecf4ea; stroke: #ecf4ea; stroke-linejoin: miter"/>
    </g>
    <!-- 0.20 -->
    <g transform="translate(435.595624 201.161153) scale(0.1 -0.1)">
     <use xlink:href="#DejaVuSans-30"/>
     <use xlink:href="#DejaVuSans-2e" x="63.623047"/>
     <use xlink:href="#DejaVuSans-32" x="95.410156"/>
     <use xlink:href="#DejaVuSans-30" x="159.033203"/>
    </g>
   </g>
   <g id="text_20">
    <g id="patch_95">
     <path d="M 506.614692 212.03459 
C 510.230156 212.03459 513.698027 210.598151 516.254546 208.041632 
C 518.811065 205.485113 520.247504 202.017242 520.247504 198.401778 
C 520.247504 194.786314 518.811065 191.318443 516.254546 188.761924 
C 513.698027 186.205404 510.230156 184.768965 506.614692 184.768965 
C 502.999228 184.768965 499.531357 186.205404 496.974838 188.761924 
C 494.418319 191.318443 492.981879 194.786314 492.981879 198.401778 
C 492.981879 202.017242 494.418319 205.485113 496.974838 208.041632 
C 499.531357 210.598151 502.999228 212.03459 506.614692 212.03459 
z
" style="fill: #7b3488; stroke: #7b3488; stroke-linejoin: miter"/>
    </g>
    <!-- 0.43 -->
    <g style="fill: #ffffff" transform="translate(495.481879 201.161153) scale(0.1 -0.1)">
     <use xlink:href="#DejaVuSans-30"/>
     <use xlink:href="#DejaVuSans-2e" x="63.623047"/>
     <use xlink:href="#DejaVuSans-34" x="95.410156"/>
     <use xlink:href="#DejaVuSans-33" x="159.033203"/>
    </g>
   </g>
   <g id="text_21">
    <g id="patch_96">
     <path d="M 566.500948 212.03459 
C 570.116412 212.03459 573.584283 210.598151 576.140802 208.041632 
C 578.697321 205.485113 580.13376 202.017242 580.13376 198.401778 
C 580.13376 194.786314 578.697321 191.318443 576.140802 188.761924 
C 573.584283 186.205404 570.116412 184.768965 566.500948 184.768965 
C 562.885484 184.768965 559.417613 186.205404 556.861094 188.761924 
C 554.304574 191.318443 552.868135 194.786314 552.868135 198.401778 
C 552.868135 202.017242 554.304574 205.485113 556.861094 208.041632 
C 559.417613 210.598151 562.885484 212.03459 566.500948 212.03459 
z
" style="fill: #f5f2f5; stroke: #f5f2f5; stroke-linejoin: miter"/>
    </g>
    <!-- 0.30 -->
    <g transform="translate(555.368135 201.161153) scale(0.1 -0.1)">
     <use xlink:href="#DejaVuSans-30"/>
     <use xlink:href="#DejaVuSans-2e" x="63.623047"/>
     <use xlink:href="#DejaVuSans-33" x="95.410156"/>
     <use xlink:href="#DejaVuSans-30" x="159.033203"/>
    </g>
   </g>
   <g id="text_22">
    <!-- Unintegrated -->
    <g transform="translate(156.280095 238.953201) scale(0.1 -0.1)">
     <defs>
      <path id="DejaVuSans-Bold-55" d="M 588 4666 
L 1791 4666 
L 1791 1869 
Q 1791 1291 1980 1042 
Q 2169 794 2597 794 
Q 3028 794 3217 1042 
Q 3406 1291 3406 1869 
L 3406 4666 
L 4609 4666 
L 4609 1869 
Q 4609 878 4112 393 
Q 3616 -91 2597 -91 
Q 1581 -91 1084 393 
Q 588 878 588 1869 
L 588 4666 
z
" transform="scale(0.015625)"/>
      <path id="DejaVuSans-Bold-69" d="M 538 3500 
L 1656 3500 
L 1656 0 
L 538 0 
L 538 3500 
z
M 538 4863 
L 1656 4863 
L 1656 3950 
L 538 3950 
L 538 4863 
z
" transform="scale(0.015625)"/>
      <path id="DejaVuSans-Bold-74" d="M 1759 4494 
L 1759 3500 
L 2913 3500 
L 2913 2700 
L 1759 2700 
L 1759 1216 
Q 1759 972 1856 886 
Q 1953 800 2241 800 
L 2816 800 
L 2816 0 
L 1856 0 
Q 1194 0 917 276 
Q 641 553 641 1216 
L 641 2700 
L 84 2700 
L 84 3500 
L 641 3500 
L 641 4494 
L 1759 4494 
z
" transform="scale(0.015625)"/>
      <path id="DejaVuSans-Bold-65" d="M 4031 1759 
L 4031 1441 
L 1416 1441 
Q 1456 1047 1700 850 
Q 1944 653 2381 653 
Q 2734 653 3104 758 
Q 3475 863 3866 1075 
L 3866 213 
Q 3469 63 3072 -14 
Q 2675 -91 2278 -91 
Q 1328 -91 801 392 
Q 275 875 275 1747 
Q 275 2603 792 3093 
Q 1309 3584 2216 3584 
Q 3041 3584 3536 3087 
Q 4031 2591 4031 1759 
z
M 2881 2131 
Q 2881 2450 2695 2645 
Q 2509 2841 2209 2841 
Q 1884 2841 1681 2658 
Q 1478 2475 1428 2131 
L 2881 2131 
z
" transform="scale(0.015625)"/>
      <path id="DejaVuSans-Bold-67" d="M 2919 594 
Q 2688 288 2409 144 
Q 2131 0 1766 0 
Q 1125 0 706 504 
Q 288 1009 288 1791 
Q 288 2575 706 3076 
Q 1125 3578 1766 3578 
Q 2131 3578 2409 3434 
Q 2688 3291 2919 2981 
L 2919 3500 
L 4044 3500 
L 4044 353 
Q 4044 -491 3511 -936 
Q 2978 -1381 1966 -1381 
Q 1638 -1381 1331 -1331 
Q 1025 -1281 716 -1178 
L 716 -306 
Q 1009 -475 1290 -558 
Q 1572 -641 1856 -641 
Q 2406 -641 2662 -400 
Q 2919 -159 2919 353 
L 2919 594 
z
M 2181 2772 
Q 1834 2772 1640 2515 
Q 1447 2259 1447 1791 
Q 1447 1309 1634 1061 
Q 1822 813 2181 813 
Q 2531 813 2725 1069 
Q 2919 1325 2919 1791 
Q 2919 2259 2725 2515 
Q 2531 2772 2181 2772 
z
" transform="scale(0.015625)"/>
      <path id="DejaVuSans-Bold-64" d="M 2919 2988 
L 2919 4863 
L 4044 4863 
L 4044 0 
L 2919 0 
L 2919 506 
Q 2688 197 2409 53 
Q 2131 -91 1766 -91 
Q 1119 -91 703 423 
Q 288 938 288 1747 
Q 288 2556 703 3070 
Q 1119 3584 1766 3584 
Q 2128 3584 2408 3439 
Q 2688 3294 2919 2988 
z
M 2181 722 
Q 2541 722 2730 984 
Q 2919 1247 2919 1747 
Q 2919 2247 2730 2509 
Q 2541 2772 2181 2772 
Q 1825 2772 1636 2509 
Q 1447 2247 1447 1747 
Q 1447 1247 1636 984 
Q 1825 722 2181 722 
z
" transform="scale(0.015625)"/>
     </defs>
     <use xlink:href="#DejaVuSans-Bold-55"/>
     <use xlink:href="#DejaVuSans-Bold-6e" x="81.201172"/>
     <use xlink:href="#DejaVuSans-Bold-69" x="152.392578"/>
     <use xlink:href="#DejaVuSans-Bold-6e" x="186.669922"/>
     <use xlink:href="#DejaVuSans-Bold-74" x="257.861328"/>
     <use xlink:href="#DejaVuSans-Bold-65" x="305.664062"/>
     <use xlink:href="#DejaVuSans-Bold-67" x="373.486328"/>
     <use xlink:href="#DejaVuSans-Bold-72" x="445.068359"/>
     <use xlink:href="#DejaVuSans-Bold-61" x="494.384766"/>
     <use xlink:href="#DejaVuSans-Bold-74" x="561.865234"/>
     <use xlink:href="#DejaVuSans-Bold-65" x="609.667969"/>
     <use xlink:href="#DejaVuSans-Bold-64" x="677.490234"/>
    </g>
   </g>
   <g id="text_23">
    <g id="patch_97">
     <path d="M 267.069668 249.865701 
C 270.685132 249.865701 274.153003 248.429262 276.709522 245.872743 
C 279.266042 243.316224 280.702481 239.848353 280.702481 236.232889 
C 280.702481 232.617425 279.266042 229.149554 276.709522 226.593035 
C 274.153003 224.036516 270.685132 222.600076 267.069668 222.600076 
C 263.454204 222.600076 259.986333 224.036516 257.429814 226.593035 
C 254.873295 229.149554 253.436856 232.617425 253.436856 236.232889 
C 253.436856 239.848353 254.873295 243.316224 257.429814 245.872743 
C 259.986333 248.429262 263.454204 249.865701 267.069668 249.865701 
z
" style="fill: #d5eecf; stroke: #d5eecf; stroke-linejoin: miter"/>
    </g>
    <!-- 1.00 -->
    <g transform="translate(255.936856 238.992264) scale(0.1 -0.1)">
     <use xlink:href="#DejaVuSans-31"/>
     <use xlink:href="#DejaVuSans-2e" x="63.623047"/>
     <use xlink:href="#DejaVuSans-30" x="95.410156"/>
     <use xlink:href="#DejaVuSans-30" x="159.033203"/>
    </g>
   </g>
   <g id="text_24">
    <g id="patch_98">
     <path d="M 326.955924 249.865701 
C 330.571388 249.865701 334.039259 248.429262 336.595778 245.872743 
C 339.152298 243.316224 340.588737 239.848353 340.588737 236.232889 
C 340.588737 232.617425 339.152298 229.149554 336.595778 226.593035 
C 334.039259 224.036516 330.571388 222.600076 326.955924 222.600076 
C 323.34046 222.600076 319.872589 224.036516 317.31607 226.593035 
C 314.759551 229.149554 313.323112 232.617425 313.323112 236.232889 
C 313.323112 239.848353 314.759551 243.316224 317.31607 245.872743 
C 319.872589 248.429262 323.34046 249.865701 326.955924 249.865701 
z
" style="fill: #8e5a9e; stroke: #8e5a9e; stroke-linejoin: miter"/>
    </g>
    <!-- 0.74 -->
    <g style="fill: #ffffff" transform="translate(315.823112 238.992264) scale(0.1 -0.1)">
     <use xlink:href="#DejaVuSans-30"/>
     <use xlink:href="#DejaVuSans-2e" x="63.623047"/>
     <use xlink:href="#DejaVuSans-37" x="95.410156"/>
     <use xlink:href="#DejaVuSans-34" x="159.033203"/>
    </g>
   </g>
   <g id="text_25">
    <g id="patch_99">
     <path d="M 386.84218 249.865701 
C 390.457644 249.865701 393.925515 248.429262 396.482034 245.872743 
C 399.038553 243.316224 400.474993 239.848353 400.474993 236.232889 
C 400.474993 232.617425 399.038553 229.149554 396.482034 226.593035 
C 393.925515 224.036516 390.457644 222.600076 386.84218 222.600076 
C 383.226716 222.600076 379.758845 224.036516 377.202326 226.593035 
C 374.645807 229.149554 373.209368 232.617425 373.209368 236.232889 
C 373.209368 239.848353 374.645807 243.316224 377.202326 245.872743 
C 379.758845 248.429262 383.226716 249.865701 386.84218 249.865701 
z
" style="fill: #d0b7d8; stroke: #d0b7d8; stroke-linejoin: miter"/>
    </g>
    <!-- 0.01 -->
    <g transform="translate(375.709368 238.992264) scale(0.1 -0.1)">
     <use xlink:href="#DejaVuSans-30"/>
     <use xlink:href="#DejaVuSans-2e" x="63.623047"/>
     <use xlink:href="#DejaVuSans-30" x="95.410156"/>
     <use xlink:href="#DejaVuSans-31" x="159.033203"/>
    </g>
   </g>
   <g id="text_26">
    <g id="patch_100">
     <path d="M 446.728436 249.865701 
C 450.3439 249.865701 453.811771 248.429262 456.36829 245.872743 
C 458.924809 243.316224 460.361249 239.848353 460.361249 236.232889 
C 460.361249 232.617425 458.924809 229.149554 456.36829 226.593035 
C 453.811771 224.036516 450.3439 222.600076 446.728436 222.600076 
C 443.112972 222.600076 439.645101 224.036516 437.088582 226.593035 
C 434.532063 229.149554 433.095624 232.617425 433.095624 236.232889 
C 433.095624 239.848353 434.532063 243.316224 437.088582 245.872743 
C 439.645101 248.429262 443.112972 249.865701 446.728436 249.865701 
z
" style="fill: #9568a6; stroke: #9568a6; stroke-linejoin: miter"/>
    </g>
    <!-- 0.15 -->
    <g style="fill: #ffffff" transform="translate(435.595624 238.992264) scale(0.1 -0.1)">
     <use xlink:href="#DejaVuSans-30"/>
     <use xlink:href="#DejaVuSans-2e" x="63.623047"/>
     <use xlink:href="#DejaVuSans-31" x="95.410156"/>
     <use xlink:href="#DejaVuSans-35" x="159.033203"/>
    </g>
   </g>
   <g id="text_27">
    <g id="patch_101">
     <path d="M 506.614692 249.865701 
C 510.230156 249.865701 513.698027 248.429262 516.254546 245.872743 
C 518.811065 243.316224 520.247504 239.848353 520.247504 236.232889 
C 520.247504 232.617425 518.811065 229.149554 516.254546 226.593035 
C 513.698027 224.036516 510.230156 222.600076 506.614692 222.600076 
C 502.999228 222.600076 499.531357 224.036516 496.974838 226.593035 
C 494.418319 229.149554 492.981879 232.617425 492.981879 236.232889 
C 492.981879 239.848353 494.418319 243.316224 496.974838 245.872743 
C 499.531357 248.429262 502.999228 249.865701 506.614692 249.865701 
z
" style="fill: #f4f6f3; stroke: #f4f6f3; stroke-linejoin: miter"/>
    </g>
    <!-- 0.64 -->
    <g transform="translate(495.481879 238.992264) scale(0.1 -0.1)">
     <use xlink:href="#DejaVuSans-30"/>
     <use xlink:href="#DejaVuSans-2e" x="63.623047"/>
     <use xlink:href="#DejaVuSans-36" x="95.410156"/>
     <use xlink:href="#DejaVuSans-34" x="159.033203"/>
    </g>
   </g>
   <g id="text_28">
    <g id="patch_102">
     <path d="M 566.500948 249.865701 
C 570.116412 249.865701 573.584283 248.429262 576.140802 245.872743 
C 578.697321 243.316224 580.13376 239.848353 580.13376 236.232889 
C 580.13376 232.617425 578.697321 229.149554 576.140802 226.593035 
C 573.584283 224.036516 570.116412 222.600076 566.500948 222.600076 
C 562.885484 222.600076 559.417613 224.036516 556.861094 226.593035 
C 554.304574 229.149554 552.868135 232.617425 552.868135 236.232889 
C 552.868135 239.848353 554.304574 243.316224 556.861094 245.872743 
C 559.417613 248.429262 562.885484 249.865701 566.500948 249.865701 
z
" style="fill: #894f98; stroke: #894f98; stroke-linejoin: miter"/>
    </g>
    <!-- 0.00 -->
    <g style="fill: #ffffff" transform="translate(555.368135 238.992264) scale(0.1 -0.1)">
     <use xlink:href="#DejaVuSans-30"/>
     <use xlink:href="#DejaVuSans-2e" x="63.623047"/>
     <use xlink:href="#DejaVuSans-30" x="95.410156"/>
     <use xlink:href="#DejaVuSans-30" x="159.033203"/>
    </g>
   </g>
   <g id="text_29">
    <!-- Method -->
    <g transform="translate(156.280095 87.667819) scale(0.1 -0.1)">
     <defs>
      <path id="DejaVuSans-Bold-4d" d="M 588 4666 
L 2119 4666 
L 3181 2169 
L 4250 4666 
L 5778 4666 
L 5778 0 
L 4641 0 
L 4641 3413 
L 3566 897 
L 2803 897 
L 1728 3413 
L 1728 0 
L 588 0 
L 588 4666 
z
" transform="scale(0.015625)"/>
     </defs>
     <use xlink:href="#DejaVuSans-Bold-4d"/>
     <use xlink:href="#DejaVuSans-Bold-65" x="99.511719"/>
     <use xlink:href="#DejaVuSans-Bold-74" x="167.333984"/>
     <use xlink:href="#DejaVuSans-Bold-68" x="215.136719"/>
     <use xlink:href="#DejaVuSans-Bold-6f" x="286.328125"/>
     <use xlink:href="#DejaVuSans-Bold-64" x="355.029297"/>
    </g>
   </g>
   <g id="text_30">
    <!-- cLISI -->
    <g transform="translate(255.410293 87.667819) scale(0.1 -0.1)">
     <defs>
      <path id="DejaVuSans-63" d="M 3122 3366 
L 3122 2828 
Q 2878 2963 2633 3030 
Q 2388 3097 2138 3097 
Q 1578 3097 1268 2742 
Q 959 2388 959 1747 
Q 959 1106 1268 751 
Q 1578 397 2138 397 
Q 2388 397 2633 464 
Q 2878 531 3122 666 
L 3122 134 
Q 2881 22 2623 -34 
Q 2366 -91 2075 -91 
Q 1284 -91 818 406 
Q 353 903 353 1747 
Q 353 2603 823 3093 
Q 1294 3584 2113 3584 
Q 2378 3584 2631 3529 
Q 2884 3475 3122 3366 
z
" transform="scale(0.015625)"/>
      <path id="DejaVuSans-4c" d="M 628 4666 
L 1259 4666 
L 1259 531 
L 3531 531 
L 3531 0 
L 628 0 
L 628 4666 
z
" transform="scale(0.015625)"/>
      <path id="DejaVuSans-49" d="M 628 4666 
L 1259 4666 
L 1259 0 
L 628 0 
L 628 4666 
z
" transform="scale(0.015625)"/>
      <path id="DejaVuSans-53" d="M 3425 4513 
L 3425 3897 
Q 3066 4069 2747 4153 
Q 2428 4238 2131 4238 
Q 1616 4238 1336 4038 
Q 1056 3838 1056 3469 
Q 1056 3159 1242 3001 
Q 1428 2844 1947 2747 
L 2328 2669 
Q 3034 2534 3370 2195 
Q 3706 1856 3706 1288 
Q 3706 609 3251 259 
Q 2797 -91 1919 -91 
Q 1588 -91 1214 -16 
Q 841 59 441 206 
L 441 856 
Q 825 641 1194 531 
Q 1563 422 1919 422 
Q 2459 422 2753 634 
Q 3047 847 3047 1241 
Q 3047 1584 2836 1778 
Q 2625 1972 2144 2069 
L 1759 2144 
Q 1053 2284 737 2584 
Q 422 2884 422 3419 
Q 422 4038 858 4394 
Q 1294 4750 2059 4750 
Q 2388 4750 2728 4690 
Q 3069 4631 3425 4513 
z
" transform="scale(0.015625)"/>
     </defs>
     <use xlink:href="#DejaVuSans-63"/>
     <use xlink:href="#DejaVuSans-4c" x="54.980469"/>
     <use xlink:href="#DejaVuSans-49" x="110.693359"/>
     <use xlink:href="#DejaVuSans-53" x="140.185547"/>
     <use xlink:href="#DejaVuSans-49" x="203.662109"/>
    </g>
   </g>
   <g id="text_31">
    <!-- Silhouette -->
    <g transform="translate(301.533268 82.068913) scale(0.1 -0.1)">
     <defs>
      <path id="DejaVuSans-69" d="M 603 3500 
L 1178 3500 
L 1178 0 
L 603 0 
L 603 3500 
z
M 603 4863 
L 1178 4863 
L 1178 4134 
L 603 4134 
L 603 4863 
z
" transform="scale(0.015625)"/>
      <path id="DejaVuSans-6c" d="M 603 4863 
L 1178 4863 
L 1178 0 
L 603 0 
L 603 4863 
z
" transform="scale(0.015625)"/>
      <path id="DejaVuSans-68" d="M 3513 2113 
L 3513 0 
L 2938 0 
L 2938 2094 
Q 2938 2591 2744 2837 
Q 2550 3084 2163 3084 
Q 1697 3084 1428 2787 
Q 1159 2491 1159 1978 
L 1159 0 
L 581 0 
L 581 4863 
L 1159 4863 
L 1159 2956 
Q 1366 3272 1645 3428 
Q 1925 3584 2291 3584 
Q 2894 3584 3203 3211 
Q 3513 2838 3513 2113 
z
" transform="scale(0.015625)"/>
      <path id="DejaVuSans-6f" d="M 1959 3097 
Q 1497 3097 1228 2736 
Q 959 2375 959 1747 
Q 959 1119 1226 758 
Q 1494 397 1959 397 
Q 2419 397 2687 759 
Q 2956 1122 2956 1747 
Q 2956 2369 2687 2733 
Q 2419 3097 1959 3097 
z
M 1959 3584 
Q 2709 3584 3137 3096 
Q 3566 2609 3566 1747 
Q 3566 888 3137 398 
Q 2709 -91 1959 -91 
Q 1206 -91 779 398 
Q 353 888 353 1747 
Q 353 2609 779 3096 
Q 1206 3584 1959 3584 
z
" transform="scale(0.015625)"/>
      <path id="DejaVuSans-75" d="M 544 1381 
L 544 3500 
L 1119 3500 
L 1119 1403 
Q 1119 906 1312 657 
Q 1506 409 1894 409 
Q 2359 409 2629 706 
Q 2900 1003 2900 1516 
L 2900 3500 
L 3475 3500 
L 3475 0 
L 2900 0 
L 2900 538 
Q 2691 219 2414 64 
Q 2138 -91 1772 -91 
Q 1169 -91 856 284 
Q 544 659 544 1381 
z
M 1991 3584 
L 1991 3584 
z
" transform="scale(0.015625)"/>
      <path id="DejaVuSans-65" d="M 3597 1894 
L 3597 1613 
L 953 1613 
Q 991 1019 1311 708 
Q 1631 397 2203 397 
Q 2534 397 2845 478 
Q 3156 559 3463 722 
L 3463 178 
Q 3153 47 2828 -22 
Q 2503 -91 2169 -91 
Q 1331 -91 842 396 
Q 353 884 353 1716 
Q 353 2575 817 3079 
Q 1281 3584 2069 3584 
Q 2775 3584 3186 3129 
Q 3597 2675 3597 1894 
z
M 3022 2063 
Q 3016 2534 2758 2815 
Q 2500 3097 2075 3097 
Q 1594 3097 1305 2825 
Q 1016 2553 972 2059 
L 3022 2063 
z
" transform="scale(0.015625)"/>
      <path id="DejaVuSans-74" d="M 1172 4494 
L 1172 3500 
L 2356 3500 
L 2356 3053 
L 1172 3053 
L 1172 1153 
Q 1172 725 1289 603 
Q 1406 481 1766 481 
L 2356 481 
L 2356 0 
L 1766 0 
Q 1100 0 847 248 
Q 594 497 594 1153 
L 594 3053 
L 172 3053 
L 172 3500 
L 594 3500 
L 594 4494 
L 1172 4494 
z
" transform="scale(0.015625)"/>
     </defs>
     <use xlink:href="#DejaVuSans-53"/>
     <use xlink:href="#DejaVuSans-69" x="63.476562"/>
     <use xlink:href="#DejaVuSans-6c" x="91.259766"/>
     <use xlink:href="#DejaVuSans-68" x="119.042969"/>
     <use xlink:href="#DejaVuSans-6f" x="182.421875"/>
     <use xlink:href="#DejaVuSans-75" x="243.603516"/>
     <use xlink:href="#DejaVuSans-65" x="306.982422"/>
     <use xlink:href="#DejaVuSans-74" x="368.505859"/>
     <use xlink:href="#DejaVuSans-74" x="407.714844"/>
     <use xlink:href="#DejaVuSans-65" x="446.923828"/>
    </g>
    <!-- batch -->
    <g transform="translate(312.839518 93.266726) scale(0.1 -0.1)">
     <defs>
      <path id="DejaVuSans-62" d="M 3116 1747 
Q 3116 2381 2855 2742 
Q 2594 3103 2138 3103 
Q 1681 3103 1420 2742 
Q 1159 2381 1159 1747 
Q 1159 1113 1420 752 
Q 1681 391 2138 391 
Q 2594 391 2855 752 
Q 3116 1113 3116 1747 
z
M 1159 2969 
Q 1341 3281 1617 3432 
Q 1894 3584 2278 3584 
Q 2916 3584 3314 3078 
Q 3713 2572 3713 1747 
Q 3713 922 3314 415 
Q 2916 -91 2278 -91 
Q 1894 -91 1617 61 
Q 1341 213 1159 525 
L 1159 0 
L 581 0 
L 581 4863 
L 1159 4863 
L 1159 2969 
z
" transform="scale(0.015625)"/>
      <path id="DejaVuSans-61" d="M 2194 1759 
Q 1497 1759 1228 1600 
Q 959 1441 959 1056 
Q 959 750 1161 570 
Q 1363 391 1709 391 
Q 2188 391 2477 730 
Q 2766 1069 2766 1631 
L 2766 1759 
L 2194 1759 
z
M 3341 1997 
L 3341 0 
L 2766 0 
L 2766 531 
Q 2569 213 2275 61 
Q 1981 -91 1556 -91 
Q 1019 -91 701 211 
Q 384 513 384 1019 
Q 384 1609 779 1909 
Q 1175 2209 1959 2209 
L 2766 2209 
L 2766 2266 
Q 2766 2663 2505 2880 
Q 2244 3097 1772 3097 
Q 1472 3097 1187 3025 
Q 903 2953 641 2809 
L 641 3341 
Q 956 3463 1253 3523 
Q 1550 3584 1831 3584 
Q 2591 3584 2966 3190 
Q 3341 2797 3341 1997 
z
" transform="scale(0.015625)"/>
     </defs>
     <use xlink:href="#DejaVuSans-62"/>
     <use xlink:href="#DejaVuSans-61" x="63.476562"/>
     <use xlink:href="#DejaVuSans-74" x="124.755859"/>
     <use xlink:href="#DejaVuSans-63" x="163.964844"/>
     <use xlink:href="#DejaVuSans-68" x="218.945312"/>
    </g>
   </g>
   <g id="text_32">
    <!-- iLISI -->
    <g transform="translate(376.542961 87.667819) scale(0.1 -0.1)">
     <use xlink:href="#DejaVuSans-69"/>
     <use xlink:href="#DejaVuSans-4c" x="27.783203"/>
     <use xlink:href="#DejaVuSans-49" x="83.496094"/>
     <use xlink:href="#DejaVuSans-53" x="112.988281"/>
     <use xlink:href="#DejaVuSans-49" x="176.464844"/>
    </g>
   </g>
   <g id="text_33">
    <!-- KBET -->
    <g transform="translate(433.80578 87.667819) scale(0.1 -0.1)">
     <defs>
      <path id="DejaVuSans-4b" d="M 628 4666 
L 1259 4666 
L 1259 2694 
L 3353 4666 
L 4166 4666 
L 1850 2491 
L 4331 0 
L 3500 0 
L 1259 2247 
L 1259 0 
L 628 0 
L 628 4666 
z
" transform="scale(0.015625)"/>
      <path id="DejaVuSans-42" d="M 1259 2228 
L 1259 519 
L 2272 519 
Q 2781 519 3026 730 
Q 3272 941 3272 1375 
Q 3272 1813 3026 2020 
Q 2781 2228 2272 2228 
L 1259 2228 
z
M 1259 4147 
L 1259 2741 
L 2194 2741 
Q 2656 2741 2882 2914 
Q 3109 3088 3109 3444 
Q 3109 3797 2882 3972 
Q 2656 4147 2194 4147 
L 1259 4147 
z
M 628 4666 
L 2241 4666 
Q 2963 4666 3353 4366 
Q 3744 4066 3744 3513 
Q 3744 3084 3544 2831 
Q 3344 2578 2956 2516 
Q 3422 2416 3680 2098 
Q 3938 1781 3938 1306 
Q 3938 681 3513 340 
Q 3088 0 2303 0 
L 628 0 
L 628 4666 
z
" transform="scale(0.015625)"/>
      <path id="DejaVuSans-45" d="M 628 4666 
L 3578 4666 
L 3578 4134 
L 1259 4134 
L 1259 2753 
L 3481 2753 
L 3481 2222 
L 1259 2222 
L 1259 531 
L 3634 531 
L 3634 0 
L 628 0 
L 628 4666 
z
" transform="scale(0.015625)"/>
      <path id="DejaVuSans-54" d="M -19 4666 
L 3928 4666 
L 3928 4134 
L 2272 4134 
L 2272 0 
L 1638 0 
L 1638 4134 
L -19 4134 
L -19 4666 
z
" transform="scale(0.015625)"/>
     </defs>
     <use xlink:href="#DejaVuSans-4b"/>
     <use xlink:href="#DejaVuSans-42" x="65.576172"/>
     <use xlink:href="#DejaVuSans-45" x="134.179688"/>
     <use xlink:href="#DejaVuSans-54" x="197.363281"/>
    </g>
   </g>
   <g id="text_34">
    <!-- Graph -->
    <g transform="translate(491.277973 82.068913) scale(0.1 -0.1)">
     <defs>
      <path id="DejaVuSans-47" d="M 3809 666 
L 3809 1919 
L 2778 1919 
L 2778 2438 
L 4434 2438 
L 4434 434 
Q 4069 175 3628 42 
Q 3188 -91 2688 -91 
Q 1594 -91 976 548 
Q 359 1188 359 2328 
Q 359 3472 976 4111 
Q 1594 4750 2688 4750 
Q 3144 4750 3555 4637 
Q 3966 4525 4313 4306 
L 4313 3634 
Q 3963 3931 3569 4081 
Q 3175 4231 2741 4231 
Q 1884 4231 1454 3753 
Q 1025 3275 1025 2328 
Q 1025 1384 1454 906 
Q 1884 428 2741 428 
Q 3075 428 3337 486 
Q 3600 544 3809 666 
z
" transform="scale(0.015625)"/>
      <path id="DejaVuSans-72" d="M 2631 2963 
Q 2534 3019 2420 3045 
Q 2306 3072 2169 3072 
Q 1681 3072 1420 2755 
Q 1159 2438 1159 1844 
L 1159 0 
L 581 0 
L 581 3500 
L 1159 3500 
L 1159 2956 
Q 1341 3275 1631 3429 
Q 1922 3584 2338 3584 
Q 2397 3584 2469 3576 
Q 2541 3569 2628 3553 
L 2631 2963 
z
" transform="scale(0.015625)"/>
      <path id="DejaVuSans-70" d="M 1159 525 
L 1159 -1331 
L 581 -1331 
L 581 3500 
L 1159 3500 
L 1159 2969 
Q 1341 3281 1617 3432 
Q 1894 3584 2278 3584 
Q 2916 3584 3314 3078 
Q 3713 2572 3713 1747 
Q 3713 922 3314 415 
Q 2916 -91 2278 -91 
Q 1894 -91 1617 61 
Q 1341 213 1159 525 
z
M 3116 1747 
Q 3116 2381 2855 2742 
Q 2594 3103 2138 3103 
Q 1681 3103 1420 2742 
Q 1159 2381 1159 1747 
Q 1159 1113 1420 752 
Q 1681 391 2138 391 
Q 2594 391 2855 752 
Q 3116 1113 3116 1747 
z
" transform="scale(0.015625)"/>
     </defs>
     <use xlink:href="#DejaVuSans-47"/>
     <use xlink:href="#DejaVuSans-72" x="77.490234"/>
     <use xlink:href="#DejaVuSans-61" x="118.603516"/>
     <use xlink:href="#DejaVuSans-70" x="179.882812"/>
     <use xlink:href="#DejaVuSans-68" x="243.359375"/>
    </g>
    <!-- connectivity -->
    <g transform="translate(476.025629 93.266726) scale(0.1 -0.1)">
     <defs>
      <path id="DejaVuSans-6e" d="M 3513 2113 
L 3513 0 
L 2938 0 
L 2938 2094 
Q 2938 2591 2744 2837 
Q 2550 3084 2163 3084 
Q 1697 3084 1428 2787 
Q 1159 2491 1159 1978 
L 1159 0 
L 581 0 
L 581 3500 
L 1159 3500 
L 1159 2956 
Q 1366 3272 1645 3428 
Q 1925 3584 2291 3584 
Q 2894 3584 3203 3211 
Q 3513 2838 3513 2113 
z
" transform="scale(0.015625)"/>
      <path id="DejaVuSans-76" d="M 191 3500 
L 800 3500 
L 1894 563 
L 2988 3500 
L 3597 3500 
L 2284 0 
L 1503 0 
L 191 3500 
z
" transform="scale(0.015625)"/>
      <path id="DejaVuSans-79" d="M 2059 -325 
Q 1816 -950 1584 -1140 
Q 1353 -1331 966 -1331 
L 506 -1331 
L 506 -850 
L 844 -850 
Q 1081 -850 1212 -737 
Q 1344 -625 1503 -206 
L 1606 56 
L 191 3500 
L 800 3500 
L 1894 763 
L 2988 3500 
L 3597 3500 
L 2059 -325 
z
" transform="scale(0.015625)"/>
     </defs>
     <use xlink:href="#DejaVuSans-63"/>
     <use xlink:href="#DejaVuSans-6f" x="54.980469"/>
     <use xlink:href="#DejaVuSans-6e" x="116.162109"/>
     <use xlink:href="#DejaVuSans-6e" x="179.541016"/>
     <use xlink:href="#DejaVuSans-65" x="242.919922"/>
     <use xlink:href="#DejaVuSans-63" x="304.443359"/>
     <use xlink:href="#DejaVuSans-74" x="359.423828"/>
     <use xlink:href="#DejaVuSans-69" x="398.632812"/>
     <use xlink:href="#DejaVuSans-76" x="426.416016"/>
     <use xlink:href="#DejaVuSans-69" x="485.595703"/>
     <use xlink:href="#DejaVuSans-74" x="513.378906"/>
     <use xlink:href="#DejaVuSans-79" x="552.587891"/>
    </g>
   </g>
   <g id="text_35">
    <!-- PCR -->
    <g transform="translate(556.520479 82.068913) scale(0.1 -0.1)">
     <defs>
      <path id="DejaVuSans-50" d="M 1259 4147 
L 1259 2394 
L 2053 2394 
Q 2494 2394 2734 2622 
Q 2975 2850 2975 3272 
Q 2975 3691 2734 3919 
Q 2494 4147 2053 4147 
L 1259 4147 
z
M 628 4666 
L 2053 4666 
Q 2838 4666 3239 4311 
Q 3641 3956 3641 3272 
Q 3641 2581 3239 2228 
Q 2838 1875 2053 1875 
L 1259 1875 
L 1259 0 
L 628 0 
L 628 4666 
z
" transform="scale(0.015625)"/>
      <path id="DejaVuSans-43" d="M 4122 4306 
L 4122 3641 
Q 3803 3938 3442 4084 
Q 3081 4231 2675 4231 
Q 1875 4231 1450 3742 
Q 1025 3253 1025 2328 
Q 1025 1406 1450 917 
Q 1875 428 2675 428 
Q 3081 428 3442 575 
Q 3803 722 4122 1019 
L 4122 359 
Q 3791 134 3420 21 
Q 3050 -91 2638 -91 
Q 1578 -91 968 557 
Q 359 1206 359 2328 
Q 359 3453 968 4101 
Q 1578 4750 2638 4750 
Q 3056 4750 3426 4639 
Q 3797 4528 4122 4306 
z
" transform="scale(0.015625)"/>
      <path id="DejaVuSans-52" d="M 2841 2188 
Q 3044 2119 3236 1894 
Q 3428 1669 3622 1275 
L 4263 0 
L 3584 0 
L 2988 1197 
Q 2756 1666 2539 1819 
Q 2322 1972 1947 1972 
L 1259 1972 
L 1259 0 
L 628 0 
L 628 4666 
L 2053 4666 
Q 2853 4666 3247 4331 
Q 3641 3997 3641 3322 
Q 3641 2881 3436 2590 
Q 3231 2300 2841 2188 
z
M 1259 4147 
L 1259 2491 
L 2053 2491 
Q 2509 2491 2742 2702 
Q 2975 2913 2975 3322 
Q 2975 3731 2742 3939 
Q 2509 4147 2053 4147 
L 1259 4147 
z
" transform="scale(0.015625)"/>
     </defs>
     <use xlink:href="#DejaVuSans-50"/>
     <use xlink:href="#DejaVuSans-43" x="60.302734"/>
     <use xlink:href="#DejaVuSans-52" x="130.126953"/>
    </g>
    <!-- comparison -->
    <g transform="translate(537.306417 93.266726) scale(0.1 -0.1)">
     <defs>
      <path id="DejaVuSans-6d" d="M 3328 2828 
Q 3544 3216 3844 3400 
Q 4144 3584 4550 3584 
Q 5097 3584 5394 3201 
Q 5691 2819 5691 2113 
L 5691 0 
L 5113 0 
L 5113 2094 
Q 5113 2597 4934 2840 
Q 4756 3084 4391 3084 
Q 3944 3084 3684 2787 
Q 3425 2491 3425 1978 
L 3425 0 
L 2847 0 
L 2847 2094 
Q 2847 2600 2669 2842 
Q 2491 3084 2119 3084 
Q 1678 3084 1418 2786 
Q 1159 2488 1159 1978 
L 1159 0 
L 581 0 
L 581 3500 
L 1159 3500 
L 1159 2956 
Q 1356 3278 1631 3431 
Q 1906 3584 2284 3584 
Q 2666 3584 2933 3390 
Q 3200 3197 3328 2828 
z
" transform="scale(0.015625)"/>
      <path id="DejaVuSans-73" d="M 2834 3397 
L 2834 2853 
Q 2591 2978 2328 3040 
Q 2066 3103 1784 3103 
Q 1356 3103 1142 2972 
Q 928 2841 928 2578 
Q 928 2378 1081 2264 
Q 1234 2150 1697 2047 
L 1894 2003 
Q 2506 1872 2764 1633 
Q 3022 1394 3022 966 
Q 3022 478 2636 193 
Q 2250 -91 1575 -91 
Q 1294 -91 989 -36 
Q 684 19 347 128 
L 347 722 
Q 666 556 975 473 
Q 1284 391 1588 391 
Q 1994 391 2212 530 
Q 2431 669 2431 922 
Q 2431 1156 2273 1281 
Q 2116 1406 1581 1522 
L 1381 1569 
Q 847 1681 609 1914 
Q 372 2147 372 2553 
Q 372 3047 722 3315 
Q 1072 3584 1716 3584 
Q 2034 3584 2315 3537 
Q 2597 3491 2834 3397 
z
" transform="scale(0.015625)"/>
     </defs>
     <use xlink:href="#DejaVuSans-63"/>
     <use xlink:href="#DejaVuSans-6f" x="54.980469"/>
     <use xlink:href="#DejaVuSans-6d" x="116.162109"/>
     <use xlink:href="#DejaVuSans-70" x="213.574219"/>
     <use xlink:href="#DejaVuSans-61" x="277.050781"/>
     <use xlink:href="#DejaVuSans-72" x="338.330078"/>
     <use xlink:href="#DejaVuSans-69" x="379.443359"/>
     <use xlink:href="#DejaVuSans-73" x="407.226562"/>
     <use xlink:href="#DejaVuSans-6f" x="459.326172"/>
     <use xlink:href="#DejaVuSans-6e" x="520.507812"/>
    </g>
   </g>
   <g id="text_36">
    <!-- Batch -->
    <g transform="translate(612.014548 82.068913) scale(0.1 -0.1)">
     <use xlink:href="#DejaVuSans-42"/>
     <use xlink:href="#DejaVuSans-61" x="68.603516"/>
     <use xlink:href="#DejaVuSans-74" x="129.882812"/>
     <use xlink:href="#DejaVuSans-63" x="169.091797"/>
     <use xlink:href="#DejaVuSans-68" x="224.072266"/>
    </g>
    <!-- correction -->
    <g transform="translate(601.264548 93.266726) scale(0.1 -0.1)">
     <use xlink:href="#DejaVuSans-63"/>
     <use xlink:href="#DejaVuSans-6f" x="54.980469"/>
     <use xlink:href="#DejaVuSans-72" x="116.162109"/>
     <use xlink:href="#DejaVuSans-72" x="155.525391"/>
     <use xlink:href="#DejaVuSans-65" x="194.388672"/>
     <use xlink:href="#DejaVuSans-63" x="255.912109"/>
     <use xlink:href="#DejaVuSans-74" x="310.892578"/>
     <use xlink:href="#DejaVuSans-69" x="350.101562"/>
     <use xlink:href="#DejaVuSans-6f" x="377.884766"/>
     <use xlink:href="#DejaVuSans-6e" x="439.066406"/>
    </g>
   </g>
   <g id="text_37">
    <!-- Bio -->
    <g transform="translate(678.394553 82.068913) scale(0.1 -0.1)">
     <use xlink:href="#DejaVuSans-42"/>
     <use xlink:href="#DejaVuSans-69" x="68.603516"/>
     <use xlink:href="#DejaVuSans-6f" x="96.386719"/>
    </g>
    <!-- conservation -->
    <g transform="translate(653.958616 93.266726) scale(0.1 -0.1)">
     <use xlink:href="#DejaVuSans-63"/>
     <use xlink:href="#DejaVuSans-6f" x="54.980469"/>
     <use xlink:href="#DejaVuSans-6e" x="116.162109"/>
     <use xlink:href="#DejaVuSans-73" x="179.541016"/>
     <use xlink:href="#DejaVuSans-65" x="231.640625"/>
     <use xlink:href="#DejaVuSans-72" x="293.164062"/>
     <use xlink:href="#DejaVuSans-76" x="334.277344"/>
     <use xlink:href="#DejaVuSans-61" x="393.457031"/>
     <use xlink:href="#DejaVuSans-74" x="454.736328"/>
     <use xlink:href="#DejaVuSans-69" x="493.945312"/>
     <use xlink:href="#DejaVuSans-6f" x="521.728516"/>
     <use xlink:href="#DejaVuSans-6e" x="582.910156"/>
    </g>
   </g>
   <g id="text_38">
    <!-- Total -->
    <g transform="translate(734.483153 87.667819) scale(0.1 -0.1)">
     <use xlink:href="#DejaVuSans-54"/>
     <use xlink:href="#DejaVuSans-6f" x="44.083984"/>
     <use xlink:href="#DejaVuSans-74" x="105.265625"/>
     <use xlink:href="#DejaVuSans-61" x="144.474609"/>
     <use xlink:href="#DejaVuSans-6c" x="205.753906"/>
    </g>
   </g>
   <g id="text_39">
    <!-- Bio conservation -->
    <g transform="translate(225.286856 60.13009) scale(0.1 -0.1)">
     <defs>
      <path id="DejaVuSans-20" transform="scale(0.015625)"/>
     </defs>
     <use xlink:href="#DejaVuSans-42"/>
     <use xlink:href="#DejaVuSans-69" x="68.603516"/>
     <use xlink:href="#DejaVuSans-6f" x="96.386719"/>
     <use xlink:href="#DejaVuSans-20" x="157.568359"/>
     <use xlink:href="#DejaVuSans-63" x="189.355469"/>
     <use xlink:href="#DejaVuSans-6f" x="244.335938"/>
     <use xlink:href="#DejaVuSans-6e" x="305.517578"/>
     <use xlink:href="#DejaVuSans-73" x="368.896484"/>
     <use xlink:href="#DejaVuSans-65" x="420.996094"/>
     <use xlink:href="#DejaVuSans-72" x="482.519531"/>
     <use xlink:href="#DejaVuSans-76" x="523.632812"/>
     <use xlink:href="#DejaVuSans-61" x="582.8125"/>
     <use xlink:href="#DejaVuSans-74" x="644.091797"/>
     <use xlink:href="#DejaVuSans-69" x="683.300781"/>
     <use xlink:href="#DejaVuSans-6f" x="711.083984"/>
     <use xlink:href="#DejaVuSans-6e" x="772.265625"/>
    </g>
   </g>
   <g id="text_40">
    <!-- Batch correction -->
    <g transform="translate(405.644061 60.13009) scale(0.1 -0.1)">
     <use xlink:href="#DejaVuSans-42"/>
     <use xlink:href="#DejaVuSans-61" x="68.603516"/>
     <use xlink:href="#DejaVuSans-74" x="129.882812"/>
     <use xlink:href="#DejaVuSans-63" x="169.091797"/>
     <use xlink:href="#DejaVuSans-68" x="224.072266"/>
     <use xlink:href="#DejaVuSans-20" x="287.451172"/>
     <use xlink:href="#DejaVuSans-63" x="319.238281"/>
     <use xlink:href="#DejaVuSans-6f" x="374.21875"/>
     <use xlink:href="#DejaVuSans-72" x="435.400391"/>
     <use xlink:href="#DejaVuSans-72" x="474.763672"/>
     <use xlink:href="#DejaVuSans-65" x="513.626953"/>
     <use xlink:href="#DejaVuSans-63" x="575.150391"/>
     <use xlink:href="#DejaVuSans-74" x="630.130859"/>
     <use xlink:href="#DejaVuSans-69" x="669.339844"/>
     <use xlink:href="#DejaVuSans-6f" x="697.123047"/>
     <use xlink:href="#DejaVuSans-6e" x="758.304688"/>
    </g>
   </g>
   <g id="text_41">
    <!-- Aggregate score -->
    <g transform="translate(645.188303 60.13009) scale(0.1 -0.1)">
     <defs>
      <path id="DejaVuSans-41" d="M 2188 4044 
L 1331 1722 
L 3047 1722 
L 2188 4044 
z
M 1831 4666 
L 2547 4666 
L 4325 0 
L 3669 0 
L 3244 1197 
L 1141 1197 
L 716 0 
L 50 0 
L 1831 4666 
z
" transform="scale(0.015625)"/>
      <path id="DejaVuSans-67" d="M 2906 1791 
Q 2906 2416 2648 2759 
Q 2391 3103 1925 3103 
Q 1463 3103 1205 2759 
Q 947 2416 947 1791 
Q 947 1169 1205 825 
Q 1463 481 1925 481 
Q 2391 481 2648 825 
Q 2906 1169 2906 1791 
z
M 3481 434 
Q 3481 -459 3084 -895 
Q 2688 -1331 1869 -1331 
Q 1566 -1331 1297 -1286 
Q 1028 -1241 775 -1147 
L 775 -588 
Q 1028 -725 1275 -790 
Q 1522 -856 1778 -856 
Q 2344 -856 2625 -561 
Q 2906 -266 2906 331 
L 2906 616 
Q 2728 306 2450 153 
Q 2172 0 1784 0 
Q 1141 0 747 490 
Q 353 981 353 1791 
Q 353 2603 747 3093 
Q 1141 3584 1784 3584 
Q 2172 3584 2450 3431 
Q 2728 3278 2906 2969 
L 2906 3500 
L 3481 3500 
L 3481 434 
z
" transform="scale(0.015625)"/>
     </defs>
     <use xlink:href="#DejaVuSans-41"/>
     <use xlink:href="#DejaVuSans-67" x="68.408203"/>
     <use xlink:href="#DejaVuSans-67" x="131.884766"/>
     <use xlink:href="#DejaVuSans-72" x="195.361328"/>
     <use xlink:href="#DejaVuSans-65" x="234.224609"/>
     <use xlink:href="#DejaVuSans-67" x="295.748047"/>
     <use xlink:href="#DejaVuSans-61" x="359.224609"/>
     <use xlink:href="#DejaVuSans-74" x="420.503906"/>
     <use xlink:href="#DejaVuSans-65" x="459.712891"/>
     <use xlink:href="#DejaVuSans-20" x="521.236328"/>
     <use xlink:href="#DejaVuSans-73" x="553.023438"/>
     <use xlink:href="#DejaVuSans-63" x="605.123047"/>
     <use xlink:href="#DejaVuSans-6f" x="660.103516"/>
     <use xlink:href="#DejaVuSans-72" x="721.285156"/>
     <use xlink:href="#DejaVuSans-65" x="760.148438"/>
    </g>
   </g>
  </g>
  <g id="axes_2">
   <g id="patch_103">
    <path d="M 597.869939 132.953956 
L 621.732923 132.953956 
L 621.732923 112.525156 
L 597.869939 112.525156 
z
" clip-path="url(#p033aae43e4)" style="fill: #69c5be"/>
   </g>
   <g id="text_42">
    <!-- 0.42 -->
    <g transform="translate(623.158786 126.602681) scale(0.14 -0.14)">
     <use xlink:href="#DejaVuSans-30"/>
     <use xlink:href="#DejaVuSans-2e" x="63.623047"/>
     <use xlink:href="#DejaVuSans-34" x="95.410156"/>
     <use xlink:href="#DejaVuSans-32" x="159.033203"/>
    </g>
   </g>
  </g>
  <g id="axes_3">
   <g id="patch_104">
    <path d="M 657.756195 132.953956 
L 714.527266 132.953956 
L 714.527266 112.525156 
L 657.756195 112.525156 
z
" clip-path="url(#p1fb645ae35)" style="fill: #091e5a"/>
   </g>
   <g id="text_43">
    <!-- 1.00 -->
    <g transform="translate(681.929528 126.602681) scale(0.14 -0.14)">
     <use xlink:href="#DejaVuSans-31"/>
     <use xlink:href="#DejaVuSans-2e" x="63.623047"/>
     <use xlink:href="#DejaVuSans-30" x="95.410156"/>
     <use xlink:href="#DejaVuSans-30" x="159.033203"/>
    </g>
   </g>
  </g>
  <g id="axes_4">
   <g id="patch_105">
    <path d="M 717.642451 132.953956 
L 761.250287 132.953956 
L 761.250287 112.525156 
L 717.642451 112.525156 
z
" clip-path="url(#p420c82d1f9)" style="fill: #2259a6"/>
   </g>
   <g id="text_44">
    <!-- 0.76 -->
    <g transform="translate(728.652549 126.602681) scale(0.14 -0.14)">
     <use xlink:href="#DejaVuSans-30"/>
     <use xlink:href="#DejaVuSans-2e" x="63.623047"/>
     <use xlink:href="#DejaVuSans-37" x="95.410156"/>
     <use xlink:href="#DejaVuSans-36" x="159.033203"/>
    </g>
   </g>
  </g>
  <g id="axes_5">
   <g id="patch_106">
    <path d="M 597.869939 170.785067 
L 620.458779 170.785067 
L 620.458779 150.356267 
L 597.869939 150.356267 
z
" clip-path="url(#pa28f7204fc)" style="fill: #75c9bd"/>
   </g>
   <g id="text_45">
    <!-- 0.40 -->
    <g transform="translate(621.884643 164.433792) scale(0.14 -0.14)">
     <use xlink:href="#DejaVuSans-30"/>
     <use xlink:href="#DejaVuSans-2e" x="63.623047"/>
     <use xlink:href="#DejaVuSans-34" x="95.410156"/>
     <use xlink:href="#DejaVuSans-30" x="159.033203"/>
    </g>
   </g>
  </g>
  <g id="axes_6">
   <g id="patch_107">
    <path d="M 657.756195 170.785067 
L 714.725141 170.785067 
L 714.725141 150.356267 
L 657.756195 150.356267 
z
" clip-path="url(#pe6cec6b41f)" style="fill: #081d58"/>
   </g>
   <g id="text_46">
    <!-- 1.00 -->
    <g transform="translate(682.127403 164.433792) scale(0.14 -0.14)">
     <use xlink:href="#DejaVuSans-31"/>
     <use xlink:href="#DejaVuSans-2e" x="63.623047"/>
     <use xlink:href="#DejaVuSans-30" x="95.410156"/>
     <use xlink:href="#DejaVuSans-30" x="159.033203"/>
    </g>
   </g>
  </g>
  <g id="axes_7">
   <g id="patch_108">
    <path d="M 717.642451 170.785067 
L 760.859355 170.785067 
L 760.859355 150.356267 
L 717.642451 150.356267 
z
" clip-path="url(#p5eab3b8f09)" style="fill: #225ca7"/>
   </g>
   <g id="text_47">
    <!-- 0.76 -->
    <g transform="translate(728.261617 164.433792) scale(0.14 -0.14)">
     <use xlink:href="#DejaVuSans-30"/>
     <use xlink:href="#DejaVuSans-2e" x="63.623047"/>
     <use xlink:href="#DejaVuSans-37" x="95.410156"/>
     <use xlink:href="#DejaVuSans-36" x="159.033203"/>
    </g>
   </g>
  </g>
  <g id="axes_8">
   <g id="patch_109">
    <path d="M 597.869939 208.616178 
L 617.864369 208.616178 
L 617.864369 188.187378 
L 597.869939 188.187378 
z
" clip-path="url(#p80d481f0a5)" style="fill: #8ed3ba"/>
   </g>
   <g id="text_48">
    <!-- 0.35 -->
    <g transform="translate(619.290232 202.264903) scale(0.14 -0.14)">
     <use xlink:href="#DejaVuSans-30"/>
     <use xlink:href="#DejaVuSans-2e" x="63.623047"/>
     <use xlink:href="#DejaVuSans-33" x="95.410156"/>
     <use xlink:href="#DejaVuSans-35" x="159.033203"/>
    </g>
   </g>
  </g>
  <g id="axes_9">
   <g id="patch_110">
    <path d="M 657.756195 208.616178 
L 714.59884 208.616178 
L 714.59884 188.187378 
L 657.756195 188.187378 
z
" clip-path="url(#p1d4784be75)" style="fill: #081d58"/>
   </g>
   <g id="text_49">
    <!-- 1.00 -->
    <g transform="translate(682.001102 202.264903) scale(0.14 -0.14)">
     <use xlink:href="#DejaVuSans-31"/>
     <use xlink:href="#DejaVuSans-2e" x="63.623047"/>
     <use xlink:href="#DejaVuSans-30" x="95.410156"/>
     <use xlink:href="#DejaVuSans-30" x="159.033203"/>
    </g>
   </g>
  </g>
  <g id="axes_10">
   <g id="patch_111">
    <path d="M 717.642451 208.616178 
L 759.74581 208.616178 
L 759.74581 188.187378 
L 717.642451 188.187378 
z
" clip-path="url(#p493d992b45)" style="fill: #2163aa"/>
   </g>
   <g id="text_50">
    <!-- 0.74 -->
    <g transform="translate(727.148071 202.264903) scale(0.14 -0.14)">
     <use xlink:href="#DejaVuSans-30"/>
     <use xlink:href="#DejaVuSans-2e" x="63.623047"/>
     <use xlink:href="#DejaVuSans-37" x="95.410156"/>
     <use xlink:href="#DejaVuSans-34" x="159.033203"/>
    </g>
   </g>
  </g>
  <g id="axes_11">
   <g id="patch_112">
    <path d="M 597.869939 246.447289 
L 615.344413 246.447289 
L 615.344413 226.018489 
L 597.869939 226.018489 
z
" clip-path="url(#p3da980ebe9)" style="fill: #a7dcb7"/>
   </g>
   <g id="text_51">
    <!-- 0.31 -->
    <g transform="translate(616.770276 240.096014) scale(0.14 -0.14)">
     <use xlink:href="#DejaVuSans-30"/>
     <use xlink:href="#DejaVuSans-2e" x="63.623047"/>
     <use xlink:href="#DejaVuSans-33" x="95.410156"/>
     <use xlink:href="#DejaVuSans-31" x="159.033203"/>
    </g>
   </g>
  </g>
  <g id="axes_12">
   <g id="patch_113">
    <path d="M 657.756195 246.447289 
L 714.695792 246.447289 
L 714.695792 226.018489 
L 657.756195 226.018489 
z
" clip-path="url(#p1cef99e984)" style="fill: #081d58"/>
   </g>
   <g id="text_52">
    <!-- 1.00 -->
    <g transform="translate(682.098054 240.096014) scale(0.14 -0.14)">
     <use xlink:href="#DejaVuSans-31"/>
     <use xlink:href="#DejaVuSans-2e" x="63.623047"/>
     <use xlink:href="#DejaVuSans-30" x="95.410156"/>
     <use xlink:href="#DejaVuSans-30" x="159.033203"/>
    </g>
   </g>
  </g>
  <g id="axes_13">
   <g id="patch_114">
    <path d="M 717.642451 246.447289 
L 758.795999 246.447289 
L 758.795999 226.018489 
L 717.642451 226.018489 
z
" clip-path="url(#pa39c489bdb)" style="fill: #216aad"/>
   </g>
   <g id="text_53">
    <!-- 0.72 -->
    <g transform="translate(726.198261 240.096014) scale(0.14 -0.14)">
     <use xlink:href="#DejaVuSans-30"/>
     <use xlink:href="#DejaVuSans-2e" x="63.623047"/>
     <use xlink:href="#DejaVuSans-37" x="95.410156"/>
     <use xlink:href="#DejaVuSans-32" x="159.033203"/>
    </g>
   </g>
  </g>
 </g>
 <defs>
  <clipPath id="pa4ce3e0a59">
   <rect x="145.8" y="27.216" width="631.8" height="229.824"/>
  </clipPath>
  <clipPath id="p033aae43e4">
   <rect x="596.444076" y="111.390222" width="59.886256" height="22.698667"/>
  </clipPath>
  <clipPath id="p1fb645ae35">
   <rect x="656.330332" y="111.390222" width="59.886256" height="22.698667"/>
  </clipPath>
  <clipPath id="p420c82d1f9">
   <rect x="716.216588" y="111.390222" width="59.886256" height="22.698667"/>
  </clipPath>
  <clipPath id="pa28f7204fc">
   <rect x="596.444076" y="149.221333" width="59.886256" height="22.698667"/>
  </clipPath>
  <clipPath id="pe6cec6b41f">
   <rect x="656.330332" y="149.221333" width="59.886256" height="22.698667"/>
  </clipPath>
  <clipPath id="p5eab3b8f09">
   <rect x="716.216588" y="149.221333" width="59.886256" height="22.698667"/>
  </clipPath>
  <clipPath id="p80d481f0a5">
   <rect x="596.444076" y="187.052444" width="59.886256" height="22.698667"/>
  </clipPath>
  <clipPath id="p1d4784be75">
   <rect x="656.330332" y="187.052444" width="59.886256" height="22.698667"/>
  </clipPath>
  <clipPath id="p493d992b45">
   <rect x="716.216588" y="187.052444" width="59.886256" height="22.698667"/>
  </clipPath>
  <clipPath id="p3da980ebe9">
   <rect x="596.444076" y="224.883556" width="59.886256" height="22.698667"/>
  </clipPath>
  <clipPath id="p1cef99e984">
   <rect x="656.330332" y="224.883556" width="59.886256" height="22.698667"/>
  </clipPath>
  <clipPath id="pa39c489bdb">
   <rect x="716.216588" y="224.883556" width="59.886256" height="22.698667"/>
  </clipPath>
 </defs>
</svg>
